<?xml version="1.0" encoding="UTF-8"?>
<svg width="63px" height="63px" viewBox="0 0 63 63" version="1.1" xmlns="http://www.w3.org/2000/svg" xmlns:xlink="http://www.w3.org/1999/xlink">
    <!-- Generator: Sketch 51 (57462) - http://www.bohemiancoding.com/sketch -->
    <title>Group 3</title>
    <desc>Created with Sketch.</desc>
    <defs>
        <polygon id="path-1" points="0 0 63 0 63 63 0 63"></polygon>
    </defs>
    <g id="Page-1" stroke="none" stroke-width="1" fill="none" fill-rule="evenodd">
        <g id="Individual-pack-page" transform="translate(-184.000000, -2816.000000)">
            <g id="mac-download" transform="translate(160.000000, 2808.000000)">
                <g id="Group-3" transform="translate(24.000000, 8.000000)">
                    <mask id="mask-2" fill="white">
                        <use xlink:href="#path-1"></use>
                    </mask>
                    <g id="Clip-2"></g>
                    <path d="M44.6487716,44.4965482 C42.9947817,46.912934 41.2806701,49.3203655 38.5803046,49.3689746 C35.9247107,49.4188629 35.0702132,47.7955736 32.0372589,47.7955736 C29.0017462,47.7955736 28.0525888,49.3216447 25.5389848,49.4201421 C22.9332792,49.5173604 20.9479797,46.8144365 19.281198,44.4057259 C15.8721624,39.4834112 13.2715736,30.4945584 16.7688731,24.4260914 C18.5008934,21.4097665 21.604203,19.506335 24.9697462,19.4538883 C27.5332386,19.4065584 29.9496244,21.1807919 31.5127919,21.1807919 C33.079797,21.1807919 36.0168122,19.049665 39.1060508,19.3643452 C40.3980305,19.4167919 44.0258071,19.8836954 46.3564873,23.292731 C46.1697259,23.4104162 42.0238782,25.8216853 42.0737665,30.8424975 C42.1287716,36.8406091 47.335066,38.8323046 47.3951878,38.8630051 C47.3465787,38.998599 46.5598782,41.7040812 44.6487716,44.4965482 M33.3062132,12.7739695 C34.735066,11.0969543 37.1514518,9.85358376 39.1444264,9.77299492 C39.3989848,12.096 38.4626193,14.425401 37.0810964,16.1011371 C35.6944569,17.7755939 33.4264569,19.0790863 31.1993909,18.9063959 C30.9000609,16.632 32.0219086,14.2578274 33.3062132,12.7739695 M31.5,0 C14.1030457,0 0,14.1030457 0,31.5 C0,48.8995127 14.1030457,63 31.5,63 C48.8969543,63 63,48.8995127 63,31.5 C63,14.1030457 48.8956751,0 31.5,0" id="Fill-1" fill="#FFFFFF" mask="url(#mask-2)"></path>
                </g>
            </g>
        </g>
    </g>
</svg>