<?xml version="1.0" encoding="UTF-8"?>
<svg width="298px" height="149px" viewBox="0 0 298 149" version="1.1" xmlns="http://www.w3.org/2000/svg" xmlns:xlink="http://www.w3.org/1999/xlink">
    <!-- Generator: Sketch 51 (57462) - http://www.bohemiancoding.com/sketch -->
    <title>Group 37</title>
    <desc>Created with Sketch.</desc>
    <defs>
        <polygon id="path-1" points="0.605888889 0.247272727 20.6422222 0.247272727 20.6422222 17 0.605888889 17"></polygon>
    </defs>
    <g id="Page-1" stroke="none" stroke-width="1" fill="none" fill-rule="evenodd">
        <g id="Log-in" transform="translate(-70.000000, -672.000000)">
            <g id="hot-air-baloons" transform="translate(70.000000, 330.000000)">
                <g id="Group-37" transform="translate(0.000000, 342.000000)">
                    <path d="M61,85.5003796 C61,102.347681 46.5648275,116 31.1495828,116 C15.734338,116 0,102.333255 0,85.5003796 C0,68.6667455 15.7799228,55 31.1495828,55 C46.5192427,55 61,68.6667455 61,85.5003796" id="Fill-1" fill="#4D8AF0"></path>
                    <g id="Group-5" transform="translate(20.000000, 133.000000)">
                        <mask id="mask-2" fill="white">
                            <use xlink:href="#path-1"></use>
                        </mask>
                        <g id="Clip-4"></g>
                        <polygon id="Fill-3" mask="url(#mask-2)" points="0.605888889 17 20.6422222 17 20.6422222 0.247272727 0.605888889 0.247272727"></polygon>
                    </g>
                    <g id="Group-20">
                        <polygon id="Fill-6" fill="#1DBE71" points="20.9895652 148.900667 39.5936061 148.900667 39.5936061 133.198359 20.9895652 133.198359"></polygon>
                        <path d="M39.3727355,133.198435 L40.1501269,118.855466" id="Stroke-8" stroke="#AD7676" stroke-width="2"></path>
                        <path d="M21.4544757,133.198435 L20.402711,118.855466" id="Stroke-9" stroke="#AD7676" stroke-width="2"></path>
                        <g id="Group-13" transform="translate(24.388747, 132.953846)" fill="#FFFFFF">
                            <path d="M0.98324757,1.60492103 C0.95123734,1.71648 0.938280818,1.83262359 0.945140153,1.94800308 C0.939805115,1.98926462 0.939805115,2.03052615 0.945140153,2.07025949 C1.01144706,1.9243159 1.02440358,1.75926974 0.98324757,1.60492103" id="Fill-10"></path>
                            <path d="M0.556444501,0.0304876923 C0.529769309,0.217692821 0.529769309,0.408718462 0.556444501,0.59592359 C0.582357545,0.407954359 0.582357545,0.218456923 0.556444501,0.0304876923" id="Fill-11"></path>
                            <polygon id="Fill-12" points="3.92506394 0.855718462 3.92506394 0.733462051 3.92506394 0.672333846"></polygon>
                        </g>
                        <polygon id="Fill-14" fill="#4D8AF0" points="26.4694118 120.254462 33.4202046 120.254462 33.4202046 117.885744 26.4694118 117.885744"></polygon>
                        <path d="M1.74539591,86.099459 C1.74539591,69.3885359 17.1255494,55.7951513 32.3532731,55.4131 L31.6902041,55.4131 C16.2490788,55.4131 0.442122251,69.1669462 0.442122251,86.1071 C0.442122251,103.047254 16.2719432,116.8011 31.6902041,116.8011 L32.3532731,116.8011 C17.1407923,116.411408 1.74539591,102.818023 1.74539591,86.099459" id="Fill-15" fill="#FFFFFF"></path>
                        <polygon id="Fill-16" fill="#4D8AF0" points="20.2883887 118.85539 40.2566752 118.85539 40.2566752 112.498821 20.2883887 112.498821"></polygon>
                        <path d="M20.2885412,57.6440503 C20.2885412,57.6440503 -3.42951509,84.1125631 20.2885412,114.569691 L28.1234261,114.569691 C28.1234261,114.569691 6.50127775,89.4070297 27.1326332,55.7337938 L23.2685412,56.5972297 L20.2885412,57.6440503 Z" id="Fill-17" fill="#FFFFFF"></path>
                        <path d="M40.9197442,57.2463349 C40.9197442,57.2463349 64.6378005,84.1198221 40.9197442,114.554027 L33.0848593,114.554027 C33.0848593,114.554027 54.7070077,89.1560221 34.0756522,55.5355092 L37.9397442,56.2996118 L40.9197442,57.2463349 Z" id="Fill-18" fill="#FFFFFF"></path>
                        <path d="M297.992226,35.7447944 C297.992226,55.0995123 281.453607,70.8171021 263.817495,70.8171021 C246.181382,70.8171021 228.103224,55.0995123 228.103224,35.7447944 C228.103224,16.3900764 246.166139,0.710691795 263.79463,0.710691795 C281.423121,0.710691795 297.992226,16.3977174 297.992226,35.7447944" id="Fill-19" fill="#47E6B1"></path>
                    </g>
                    <polygon id="Fill-21" points="251 107 273 107 273 89 251 89"></polygon>
                    <g id="Group-36" transform="translate(227.000000, 0.000000)">
                        <polygon id="Fill-23" fill="#F2F2F2" points="24.0235897 106.681277 45.1047436 106.681277 45.1047436 88.8858865 24.0235897 88.8858865"></polygon>
                        <path d="M44.8399244,88.8856589 L45.7173603,72.6163468" id="Stroke-25" stroke="#AD7676" stroke-width="2"></path>
                        <path d="M24.5453615,88.8856589 L23.3577974,72.6163468" id="Stroke-26" stroke="#AD7676" stroke-width="2"></path>
                        <g id="Group-30" transform="translate(27.987179, 88.028369)" fill="#FFFFFF">
                            <path d="M1.02130513,2.3905773 C0.984997436,2.51579007 0.969112821,2.64707376 0.975920513,2.77759858 C0.969869231,2.82237163 0.969869231,2.86866241 0.975920513,2.91343546 C1.05307436,2.7510383 1.06820256,2.56435745 1.02130513,2.3905773" id="Fill-27"></path>
                            <path d="M0.514585897,0.606788652 C0.483573077,0.820788652 0.483573077,1.03782411 0.514585897,1.25258298 C0.544085897,1.03782411 0.544085897,0.820788652 0.514585897,0.606788652" id="Fill-28"></path>
                            <polygon id="Fill-29" points="4.33430641 1.54057234 4.33430641 1.4039766 4.33430641 1.33491986"></polygon>
                        </g>
                        <polygon id="Fill-31" fill="#47E6B1" points="30.2261538 74.2094326 38.1003846 74.2094326 38.1003846 71.5230496 30.2261538 71.5230496"></polygon>
                        <path d="M2.23905,35.4997922 C2.23905,16.528161 19.6364859,1.15355106 36.9128962,0.71340922 L36.1564859,0.71340922 C18.6607167,0.71340922 0.73379359,16.2929128 0.73379359,35.5073809 C0.73379359,54.7218489 18.6682808,70.3317071 36.16405,70.3317071 L36.9204603,70.3317071 C19.6591782,69.853622 2.23905,54.4486574 2.23905,35.4997922" id="Fill-32" fill="#FFFFFF"></path>
                        <polygon id="Fill-33" fill="#47E6B1" points="23.229359 72.6158156 45.8460256 72.6158156 45.8460256 65.4141844 23.229359 65.4141844"></polygon>
                        <path d="M23.2294346,3.24020284 C23.2294346,3.24020284 -3.63825769,33.2457348 23.2294346,67.7437489 L32.1021269,67.7437489 C32.1021269,67.7437489 7.60956282,39.2255929 30.9750756,1.08502553 L26.6030244,2.03360709 L23.2294346,3.24020284 Z" id="Fill-34" fill="#FFFFFF"></path>
                        <path d="M46.5950231,2.79262411 C46.5950231,2.79262411 73.4627154,33.2534752 46.5950231,67.7742553 L37.7223308,67.7742553 C37.7223308,67.7742553 62.2148949,39.0132624 38.8493821,0.865106383 L43.2214333,1.72262411 L46.5950231,2.79262411 Z" id="Fill-35" fill="#FFFFFF"></path>
                    </g>
                </g>
            </g>
        </g>
    </g>
</svg>