<?xml version="1.0" encoding="UTF-8"?>
<svg width="271px" height="51px" viewBox="0 0 271 51" version="1.1" xmlns="http://www.w3.org/2000/svg" xmlns:xlink="http://www.w3.org/1999/xlink">
    <!-- Generator: Sketch 51 (57462) - http://www.bohemiancoding.com/sketch -->
    <title>cloud</title>
    <desc>Created with Sketch.</desc>
    <defs>
        <polygon id="path-1" points="200.8601 57 0 57 0 0.77 277.19 0.77 277.19 57 200.8601 57 200.8601 35.3102 0.0001 35.3102 0.0001 57.0002 200.8601 57.0002"></polygon>
    </defs>
    <g id="Page-1" stroke="none" stroke-width="1" fill="none" fill-rule="evenodd">
        <g id="Desktop-home" transform="translate(-63.000000, -314.000000)">
            <g id="slider" transform="translate(0.000000, 111.000000)">
                <g id="cloud" transform="translate(56.000000, 202.000000)">
                    <path d="M41.2999,1.0002 L222.2399,1.0002 C227.7399,1.0002 232.1999,5.4592 232.1999,10.9602 L232.1999,12.7302 C232.1999,18.2302 227.7399,22.6902 222.2399,22.6902 L41.2999,22.6902 C35.7999,22.6902 31.3399,18.2302 31.3399,12.7302 L31.3399,10.9602 C31.3399,5.4592 35.7999,1.0002 41.2999,1.0002" id="Fill-1" fill="#F2F2F2"></path>
                    <path d="M86.2902,19.4802 L267.2292,19.4802 C272.7302,19.4802 277.1892,23.9392 277.1892,29.4402 L277.1892,31.2102 C277.1892,36.7102 272.7302,41.1702 267.2292,41.1702 L86.2902,41.1702 C80.7892,41.1702 76.3302,36.7102 76.3302,31.2102 L76.3302,29.4402 C76.3302,23.9392 80.7892,19.4802 86.2902,19.4802" id="Fill-3" fill="#F2F2F2"></path>
                    <g id="Group-7" transform="translate(0.000000, 0.230000)">
                        <mask id="mask-2" fill="white">
                            <use xlink:href="#path-1"></use>
                        </mask>
                        <g id="Clip-6"></g>
                        <path d="M9.9601,35.3102 L190.8991,35.3102 C196.4001,35.3102 200.8601,39.7692 200.8601,45.2702 L200.8601,47.0402 C200.8601,52.5402 196.4001,57.0002 190.8991,57.0002 L9.9601,57.0002 C4.4591,57.0002 0.0001,52.5402 0.0001,47.0402 L0.0001,45.2702 C0.0001,39.7692 4.4591,35.3102 9.9601,35.3102" id="Fill-5" fill="#F2F2F2" mask="url(#mask-2)"></path>
                    </g>
                </g>
            </g>
        </g>
    </g>
</svg>