<?xml version="1.0" encoding="UTF-8"?>
<svg width="228px" height="152px" viewBox="0 0 228 152" version="1.1" xmlns="http://www.w3.org/2000/svg" xmlns:xlink="http://www.w3.org/1999/xlink">
    <!-- Generator: Sketch 51 (57462) - http://www.bohemiancoding.com/sketch -->
    <title>Group 53</title>
    <desc>Created with Sketch.</desc>
    <defs>
        <polygon id="path-1" points="0.4401 0.93 227.7 0.93 227.7 152.04 0.4401 152.04"></polygon>
        <polygon id="path-3" points="0.24 0.93 39.2376778 0.93 39.2376778 74.08 0.24 74.08"></polygon>
    </defs>
    <g id="Page-1" stroke="none" stroke-width="1" fill="none" fill-rule="evenodd">
        <g id="Log-in" transform="translate(-105.000000, -368.000000)">
            <g id="hot-air-baloons" transform="translate(70.000000, 330.000000)">
                <g id="Group-53" transform="translate(35.000000, 37.000000)">
                    <path d="M106.47,38.0501 C106.47,53.9201 92.86,66.7801 78.37,66.7801 C63.88,66.7801 49.02,53.9201 49.02,38.0501 C49.02,22.1801 63.88,9.3201 78.37,9.3201 C92.86,9.3201 106.47,22.1801 106.47,38.0501" id="Fill-1" fill="#1DBE71"></path>
                    <polygon id="Fill-3" points="68.18 97.63 86.61 97.63 86.61 82.13 68.18 82.13"></polygon>
                    <g id="Group-19" transform="translate(0.000000, 9.070000)">
                        <polygon id="Fill-5" fill="#1DBE71" points="68.73 87.76 86.19 87.76 86.19 73.06 68.73 73.06"></polygon>
                        <path d="M85.97,73.0602 L86.7,59.6302" id="Stroke-7" stroke="#AD7676" stroke-width="2"></path>
                        <path d="M69.1599,73.0602 L68.1699,59.6302" id="Stroke-8" stroke="#AD7676" stroke-width="2"></path>
                        <g id="Group-12" transform="translate(72.000000, 72.000000)" fill="#FFFFFF">
                            <path d="M0.8801,2.3302 C0.8631,2.4362 0.8631,2.5442 0.8801,2.6502 C0.8761,2.6862 0.8761,2.7232 0.8801,2.7602 C0.9291,2.6212 0.9291,2.4692 0.8801,2.3302" id="Fill-9"></path>
                            <path d="M0.4299,0.86 C0.4049,1.036 0.4049,1.214 0.4299,1.39 C0.4539,1.214 0.4539,1.036 0.4299,0.86" id="Fill-10"></path>
                            <polygon id="Fill-11" points="3.5999 1.63 3.5999 1.52 3.5999 1.46"></polygon>
                        </g>
                        <polygon id="Fill-13" fill="#1DBE71" points="73.86 60.95 80.38 60.95 80.38 58.73 73.86 58.73"></polygon>
                        <path d="M50.6799,28.9801 C50.6799,13.3401 65.1099,0.6201 79.3999,0.2601 L78.7799,0.2601 C64.2899,0.2601 49.4299,13.1201 49.4299,28.9901 C49.4299,44.8601 64.2799,57.7201 78.7799,57.7201 L79.3999,57.7201 C65.1099,57.3501 50.6799,44.6301 50.6799,28.9801" id="Fill-14" fill="#FFFFFF"></path>
                        <polygon id="Fill-15" fill="#1DBE71" points="68.07 59.63 86.81 59.63 86.81 53.68 68.07 53.68"></polygon>
                        <path d="M68.0701,2.34 C68.0701,2.34 45.8101,27.11 68.0701,55.62 L75.4201,55.62 C75.4201,55.62 55.1301,32.07 74.4901,0.62 L70.8701,1.43 L68.0701,2.34 Z" id="Fill-16" fill="#FFFFFF"></path>
                        <path d="M87.4202,1.9699 C87.4202,1.9699 109.6802,27.1199 87.4202,55.6299 L80.0702,55.6299 C80.0702,55.6299 100.3602,31.8799 81.0002,0.3799 L84.6202,1.0899 L87.4202,1.9699 Z" id="Fill-17" fill="#FFFFFF"></path>
                        <path d="M66.2502,73.4601 C66.2502,92.2501 50.5602,107.4601 33.8402,107.4601 C17.1202,107.4601 0.0002,92.2301 0.0002,73.4601 C0.0002,54.6901 17.1302,39.4601 33.8402,39.4601 C50.5502,39.4601 66.2502,54.6701 66.2502,73.4601" id="Fill-18" fill="#47E6B1"></path>
                    </g>
                    <polygon id="Fill-20" points="22.1 153.07 43.351 153.07 43.351 134.71 22.1 134.71"></polygon>
                    <g id="Group-36" transform="translate(0.000000, 0.070000)">
                        <mask id="mask-2" fill="white">
                            <use xlink:href="#path-1"></use>
                        </mask>
                        <g id="Clip-23"></g>
                        <polygon id="Fill-22" fill="#E6E6E6" mask="url(#mask-2)" points="22.73 152.04 42.86 152.04 42.86 134.64 22.73 134.64"></polygon>
                        <path d="M42.6199,134.6398 L43.4599,118.7398" id="Stroke-24" stroke="#AD7676" stroke-width="2" mask="url(#mask-2)"></path>
                        <path d="M23.2302,134.6398 L22.0902,118.7398" id="Stroke-25" stroke="#AD7676" stroke-width="2" mask="url(#mask-2)"></path>
                        <g id="Group-29" mask="url(#mask-2)" fill="#FFFFFF">
                            <g transform="translate(26.000000, 134.000000)">
                                <path d="M1.49,2.11 C1.469,2.236 1.469,2.364 1.49,2.49 C1.484,2.536 1.484,2.584 1.49,2.63 C1.549,2.462 1.549,2.278 1.49,2.11" id="Fill-26"></path>
                                <path d="M1.01,0.4 C0.981,0.609 0.981,0.821 1.01,1.03 C1.038,0.821 1.038,0.609 1.01,0.4" id="Fill-27"></path>
                                <polygon id="Fill-28" points="4.6599 1.3102 4.6599 1.1702 4.6599 1.1102"></polygon>
                            </g>
                        </g>
                        <polygon id="Fill-30" fill="#47E6B1" mask="url(#mask-2)" points="28.66 120.3 36.18 120.3 36.18 117.67 28.66 117.67"></polygon>
                        <path d="M1.8801,82.4601 C1.8801,63.9401 18.5201,48.8801 35.0001,48.4601 L34.2801,48.4601 C17.5701,48.4601 0.4401,63.6901 0.4401,82.4601 C0.4401,101.2301 17.5701,116.4601 34.2801,116.4601 L35.0001,116.4601 C18.5601,116.0401 1.8801,100.9801 1.8801,82.4601" id="Fill-31" fill="#FFFFFF" mask="url(#mask-2)"></path>
                        <polygon id="Fill-32" fill="#47E6B1" mask="url(#mask-2)" points="21.97 118.74 43.57 118.74 43.57 111.7 21.97 111.7"></polygon>
                        <path d="M21.97,50.9201 C21.97,50.9201 -3.69,80.2501 21.97,114.0001 L30.44,114.0001 C30.44,114.0001 7.05,86.1101 29.37,48.8001 L25.19,49.8001 L21.97,50.9201 Z" id="Fill-33" fill="#FFFFFF" mask="url(#mask-2)"></path>
                        <path d="M44.2898,50.4699 C44.2898,50.4699 69.9498,80.2499 44.2898,113.9999 L35.8198,113.9999 C35.8198,113.9999 59.2098,85.8799 36.8898,48.5899 L41.0698,49.4299 L44.2898,50.4699 Z" id="Fill-34" fill="#FFFFFF" mask="url(#mask-2)"></path>
                        <path d="M227.7,24.9298 C227.7,38.1998 216.61,48.9298 204.81,48.9298 C193.01,48.9298 180.88,38.1998 180.88,24.9298 C180.88,11.6598 192.98,0.9298 204.78,0.9298 C216.58,0.9298 227.7,11.6598 227.7,24.9298" id="Fill-35" fill="#F55F44" mask="url(#mask-2)"></path>
                    </g>
                    <polygon id="Fill-37" points="196.51 74.82 211.52 74.82 211.52 61.86 196.51 61.86"></polygon>
                    <g id="Group-52" transform="translate(181.000000, 0.070000)">
                        <mask id="mask-4" fill="white">
                            <use xlink:href="#path-3"></use>
                        </mask>
                        <g id="Clip-40"></g>
                        <polygon id="Fill-39" fill="#E6E6E6" mask="url(#mask-4)" points="15.96 74.08 30.18 74.08 30.18 61.79 15.96 61.79"></polygon>
                        <path d="M30.0002,61.7902 L30.6002,50.5502" id="Stroke-41" stroke="#AD7676" stroke-width="2" mask="url(#mask-4)"></path>
                        <path d="M16.3098,61.7902 L15.5098,50.5502" id="Stroke-42" stroke="#AD7676" stroke-width="2" mask="url(#mask-4)"></path>
                        <g id="Group-46" mask="url(#mask-4)" fill="#FFFFFF">
                            <g transform="translate(18.000000, 61.000000)">
                                <path d="M1.3201,1.8502 C1.3051,1.9392 1.3051,2.0302 1.3201,2.1202 C1.3161,2.1532 1.3161,2.1862 1.3201,2.2202 C1.3621,2.1002 1.3621,1.9702 1.3201,1.8502" id="Fill-43"></path>
                                <path d="M0.9802,0.61 C0.9602,0.756 0.9602,0.904 0.9802,1.05 C0.9992,0.904 0.9992,0.756 0.9802,0.61" id="Fill-44"></path>
                                <path d="M3.55,1.2599 L3.55,1.1599 L3.55,1.2599 Z" id="Fill-45"></path>
                            </g>
                        </g>
                        <polygon id="Fill-47" fill="#F55F44" mask="url(#mask-4)" points="20.14 51.65 25.45 51.65 25.45 49.8 20.14 49.8"></polygon>
                        <path d="M1.26,24.9298 C1.26,11.8498 13.01,1.2098 24.65,0.9298 L24.14,0.9298 C12.34,0.9298 0.24,11.6898 0.24,24.9298 C0.24,38.1698 12.34,48.9298 24.14,48.9298 L24.65,48.9298 C13.01,48.6398 1.26,38.0098 1.26,24.9298" id="Fill-48" fill="#FFFFFF" mask="url(#mask-4)"></path>
                        <polygon id="Fill-49" fill="#F55F44" mask="url(#mask-4)" points="15.42 50.55 30.68 50.55 30.68 45.58 15.42 45.58"></polygon>
                        <path d="M15.4202,2.65 C15.4202,2.65 -2.7098,23.37 15.4202,47.21 L21.4202,47.21 C21.4202,47.21 4.8802,27.49 20.6502,1.11 L17.6502,1.78 L15.4202,2.65 Z" id="Fill-50" fill="#FFFFFF" mask="url(#mask-4)"></path>
                        <path d="M31.1799,2.3302 C31.1799,2.3302 49.3099,23.3302 31.1799,47.2002 L25.1799,47.2002 C25.1799,47.2002 41.6999,27.3402 25.9399,1.0002 L28.9399,1.5902 L31.1799,2.3302 Z" id="Fill-51" fill="#FFFFFF" mask="url(#mask-4)"></path>
                    </g>
                </g>
            </g>
        </g>
    </g>
</svg>