<?xml version="1.0" encoding="UTF-8"?>
<svg width="233px" height="363px" viewBox="0 0 233 363" version="1.1" xmlns="http://www.w3.org/2000/svg" xmlns:xlink="http://www.w3.org/1999/xlink">
    <!-- Generator: Sketch 51 (57462) - http://www.bohemiancoding.com/sketch -->
    <title>Group 64</title>
    <desc>Created with Sketch.</desc>
    <defs>
        <polygon id="path-1" points="0 0.106266481 232.583524 0.106266481 232.583524 238.778748 0 238.778748"></polygon>
        <path d="M0.0830769231,7.69125 C0.0830769231,11.160625 2.85230769,14.07 6.63230769,14.9016875 L6.63230769,20.733125 L10.9984615,20.733125 L10.9984615,14.9016875 C14.7646154,14.07 17.5472308,11.165 17.5472308,7.69125 C17.5472308,3.574375 13.6384615,0.25375 8.81538462,0.25375 C3.99230769,0.25375 0.0830769231,3.5923125 0.0830769231,7.69125" id="path-3"></path>
        <path d="M0.772452055,0.44 C-0.126972603,0.888888889 -0.161369863,2.78666667 0.700684932,4.67111111 C0.885835616,5.07555556 1.10580822,5.46044444 1.35932877,5.82222222 L0.509589041,6.71111111 C0.509589041,6.71111111 21.3182329,28.4888889 29.4457534,27.5328889 L30.9791918,21.596 C30.9791918,21.596 24.0233014,21.836 12.2641096,11.4271111 L4.12767123,2.91111111 L3.96630137,3.08044444 L3.96630137,3.04044444 C3.24013699,1.42888889 2.07912329,0.344 1.19456164,0.343555556 C1.04465753,0.343555556 0.903246575,0.374666667 0.772452055,0.44" id="path-5"></path>
        <polygon id="path-7" points="0 366 232.583612 366 232.583612 0.105958987 0 0.105958987"></polygon>
        <path d="M0.139785714,9.4955814 C0.139785714,14.5296977 4.31842857,18.6107209 9.47240476,18.6107209 C14.6268333,18.6107209 18.8050238,14.5296977 18.8050238,9.4955814 C18.8050238,4.46102326 14.6268333,0.38 9.47240476,0.38 C4.31842857,0.38 0.139785714,4.46102326 0.139785714,9.4955814" id="path-9"></path>
        <polygon id="path-11" points="0 366 232.583612 366 232.583612 0.105958987 0 0.105958987"></polygon>
        <path d="M1.13733945,0.351020408 C0.049,0.86 0.00899082569,2.98411224 1.05192661,5.11612245 C1.39582569,5.82693878 1.85121101,6.48115306 2.40055046,7.0555102 L1.95100917,7.39336735 C1.95100917,7.39336735 18.5525688,14.2163265 31.436422,13.3655408 L31.436422,39.1085 C31.4409174,41.018051 33.0264495,42.5651735 34.9837523,42.57 L45.3677064,42.57 C47.3241101,42.5651735 48.9096422,41.018051 48.9141376,39.1085 L48.9141376,7.65180612 C48.906945,5.7369898 47.3119725,4.18986735 45.3497248,4.19469388 L34.9653211,4.19469388 C33.8122477,4.19776531 32.7324495,4.74755102 32.0702752,5.66941837 C24.1812752,6.66894898 7.94788991,8.21387755 6.30256881,4.19469388 L5.54733945,4.74755102 C5.41247706,4.24120408 5.22681651,3.74933673 4.99485321,3.27765306 C4.10386239,1.46331633 2.71388073,0.241765306 1.64936697,0.241326531 C1.46775229,0.241326531 1.29602752,0.276867347 1.13733945,0.351020408" id="path-13"></path>
        <path d="M6.463,0.160851064 C4.3746,0.424021277 2.28574,1.57276596 1.403,3.4493617 C1.21256,3.04544681 0.78246,2.80059574 0.3266,2.83723404 C0.2668,6.8093617 0.5842,9.54338298 4.6138,11.5321277 C6.9184,12.653617 9.59606,13.5382979 10.8882,15.7008511 C11.31554,16.3934043 11.5552,17.1976596 11.9416,17.9348936 C13.11,20.1644681 16.2012,21.5808511 18.38206,20.2404255 C19.42534,19.6010426 20.06014,18.5023404 20.6448,17.4434043 C21.5924,15.7365957 22.55426,13.9632128 22.72906,12.0285319 C22.95354,9.40531915 21.6706,6.78702128 19.734,4.93723404 C17.7974,3.08744681 15.2812,1.90787234 12.7098,1.05446809 C11.07772,0.513829787 9.35502,0.0884680851 7.64704,0.0884680851 C7.25098,0.0884680851 6.85584,0.111255319 6.463,0.160851064" id="path-15"></path>
        <polygon id="path-17" points="0.0443786982 0.227054795 74.7785503 0.227054795 74.7785503 65 0.0443786982 65"></polygon>
    </defs>
    <g id="Page-1" stroke="none" stroke-width="1" fill="none" fill-rule="evenodd">
        <g id="Log-in" transform="translate(-1113.000000, -563.000000)">
            <g id="hot-air-baloons" transform="translate(70.000000, 330.000000)">
                <g id="Group-64" transform="translate(1043.000000, 233.000000)">
                    <g id="Group-3">
                        <mask id="mask-2" fill="white">
                            <use xlink:href="#path-1"></use>
                        </mask>
                        <g id="Clip-2"></g>
                        <path d="M232.583524,119.442507 C232.583524,185.34897 177.479024,238.778748 118.803776,238.778748 C60.1285293,238.778748 -8.85931559e-05,185.352954 -8.85931559e-05,119.442507 C-8.85931559e-05,53.5316183 60.132516,0.106266481 118.807763,0.106266481 C177.48301,0.106266481 232.583524,53.553748 232.583524,119.442507" id="Fill-1" fill="#1DBE71" mask="url(#mask-2)"></path>
                    </g>
                    <g id="Group-6" transform="translate(85.000000, 276.000000)">
                        <mask id="mask-4" fill="white">
                            <use xlink:href="#path-3"></use>
                        </mask>
                        <g id="Clip-5"></g>
                        <path d="M0.0830769231,7.69125 C0.0830769231,11.160625 2.85230769,14.07 6.63230769,14.9016875 L6.63230769,20.733125 L10.9984615,20.733125 L10.9984615,14.9016875 C14.7646154,14.07 17.5472308,11.165 17.5472308,7.69125 C17.5472308,3.574375 13.6384615,0.25375 8.81538462,0.25375 C3.99230769,0.25375 0.0830769231,3.5923125 0.0830769231,7.69125" id="Fill-4" mask="url(#mask-4)"></path>
                    </g>
                    <g id="Group-9" transform="translate(59.000000, 273.000000)">
                        <mask id="mask-6" fill="white">
                            <use xlink:href="#path-5"></use>
                        </mask>
                        <g id="Clip-8"></g>
                        <path d="M0.772452055,0.44 C-0.126972603,0.888888889 -0.161369863,2.78666667 0.700684932,4.67111111 C0.885835616,5.07555556 1.10580822,5.46044444 1.35932877,5.82222222 L0.509589041,6.71111111 C0.509589041,6.71111111 21.3182329,28.4888889 29.4457534,27.5328889 L30.9791918,21.596 C30.9791918,21.596 24.0233014,21.836 12.2641096,11.4271111 L4.12767123,2.91111111 L3.96630137,3.08044444 L3.96630137,3.04044444 C3.24013699,1.42888889 2.07912329,0.344 1.19456164,0.343555556 C1.04465753,0.343555556 0.903246575,0.374666667 0.772452055,0.44" id="Fill-7" mask="url(#mask-6)"></path>
                    </g>
                    <g id="Group-17">
                        <path d="M92.8633017,275.66992 C96.7188759,275.66992 99.8444424,278.785114 99.8444424,282.627893 C99.8444424,286.470672 96.7188759,289.586308 92.8633017,289.586308 C89.0077276,289.586308 85.882161,286.470672 85.882161,282.627893 C85.882161,278.785114 89.0077276,275.66992 92.8633017,275.66992" id="Fill-10" fill="#F8C198"></path>
                        <mask id="mask-8" fill="white">
                            <use xlink:href="#path-7"></use>
                        </mask>
                        <g id="Clip-13"></g>
                        <polygon id="Fill-12" fill="#F8C198" mask="url(#mask-8)" points="91.1180608 294.809247 94.6086312 294.809247 94.6086312 287.850832 91.1180608 287.850832"></polygon>
                        <path d="M89.4259759,292.199698 L96.3008048,292.199698 C98.2578276,292.199698 99.844531,293.780695 99.844531,295.731664 L99.844531,319.983028 C99.844531,321.933556 98.2578276,323.514994 96.3008048,323.514994 L89.4259759,323.514994 C87.468953,323.514994 85.8822496,321.933556 85.8822496,319.983028 L85.8822496,295.731664 C85.8822496,293.780695 87.468953,292.199698 89.4259759,292.199698" id="Fill-14" fill="#605B38" mask="url(#mask-8)"></path>
                        <path d="M89.9796831,292.830905 C89.9796831,292.830905 83.2643219,293.069312 71.9155386,283.497684 L64.0617553,275.669964 L60.571185,279.148951 C60.571185,279.148951 80.6463941,299.157539 88.4780291,298.287793 L89.9796831,292.830905 Z" id="Fill-15" fill="#605B38" mask="url(#mask-8)"></path>
                        <path d="M60.8114053,273.402088 C61.6809471,272.987524 63.0598996,274.056385 63.8917894,275.789697 C64.7236791,277.52301 64.6931144,279.264269 63.8235726,279.678834 C62.9540308,280.093398 61.5746354,279.024096 60.7431886,277.291225 C59.9112989,275.557471 59.9418635,273.816211 60.8114053,273.402088" id="Fill-16" fill="#F8C198" mask="url(#mask-8)"></path>
                    </g>
                    <g id="Group-20" transform="translate(115.000000, 274.000000)">
                        <mask id="mask-10" fill="white">
                            <use xlink:href="#path-9"></use>
                        </mask>
                        <g id="Clip-19"></g>
                        <path d="M0.139785714,9.4955814 C0.139785714,14.5296977 4.31842857,18.6107209 9.47240476,18.6107209 C14.6268333,18.6107209 18.8050238,14.5296977 18.8050238,9.4955814 C18.8050238,4.46102326 14.6268333,0.38 9.47240476,0.38 C4.31842857,0.38 0.139785714,4.46102326 0.139785714,9.4955814" id="Fill-18" mask="url(#mask-10)"></path>
                    </g>
                    <g id="Group-25">
                        <path d="M125.332605,274.981363 C129.895595,274.981363 133.593917,278.667853 133.593917,283.214818 C133.593917,287.762666 129.895595,291.449155 125.332605,291.449155 C120.770057,291.449155 117.071736,287.762666 117.071736,283.214818 C117.071736,278.667853 120.770057,274.981363 125.332605,274.981363" id="Fill-21" fill="#F8C198"></path>
                        <mask id="mask-12" fill="white">
                            <use xlink:href="#path-11"></use>
                        </mask>
                        <g id="Clip-24"></g>
                        <polygon id="Fill-23" fill="#F8C198" mask="url(#mask-12)" points="123.264087 297.625549 127.396958 297.625549 127.396958 289.391653 123.264087 289.391653"></polygon>
                    </g>
                    <g id="Group-28" transform="translate(86.000000, 291.000000)">
                        <mask id="mask-14" fill="white">
                            <use xlink:href="#path-13"></use>
                        </mask>
                        <g id="Clip-27"></g>
                        <path d="M1.13733945,0.351020408 C0.049,0.86 0.00899082569,2.98411224 1.05192661,5.11612245 C1.39582569,5.82693878 1.85121101,6.48115306 2.40055046,7.0555102 L1.95100917,7.39336735 C1.95100917,7.39336735 18.5525688,14.2163265 31.436422,13.3655408 L31.436422,39.1085 C31.4409174,41.018051 33.0264495,42.5651735 34.9837523,42.57 L45.3677064,42.57 C47.3241101,42.5651735 48.9096422,41.018051 48.9141376,39.1085 L48.9141376,7.65180612 C48.906945,5.7369898 47.3119725,4.18986735 45.3497248,4.19469388 L34.9653211,4.19469388 C33.8122477,4.19776531 32.7324495,4.74755102 32.0702752,5.66941837 C24.1812752,6.66894898 7.94788991,8.21387755 6.30256881,4.19469388 L5.54733945,4.74755102 C5.41247706,4.24120408 5.22681651,3.74933673 4.99485321,3.27765306 C4.10386239,1.46331633 2.71388073,0.241765306 1.64936697,0.241326531 C1.46775229,0.241326531 1.29602752,0.276867347 1.13733945,0.351020408" id="Fill-26" mask="url(#mask-14)"></path>
                    </g>
                    <g id="Group-35" transform="translate(88.000000, 291.000000)">
                        <path d="M32.9800286,3.98663936 L42.3114571,3.98663936 C44.2469619,3.98663936 45.816219,5.54900106 45.816219,7.47600106 L45.816219,37.1050436 C45.816219,39.0324798 44.2469619,40.5944053 42.3114571,40.5944053 L32.9800286,40.5944053 C31.0440857,40.5944053 29.4752667,39.0324798 29.4752667,37.1050436 L29.4752667,7.47600106 C29.4752667,5.54900106 31.0440857,3.98663936 32.9800286,3.98663936" id="Fill-29" fill="#53AD9B"></path>
                        <path d="M34.0705352,4.8198117 C34.0705352,4.8198117 8.02577333,9.0676734 5.98468762,3.98236489 L1.89725905,7.03555638 C1.89725905,7.03555638 21.30444,15.1696947 33.5579638,12.1208649 C45.8119257,9.07247128 34.0705352,4.8198117 34.0705352,4.8198117" id="Fill-31" fill="#53AD9B"></path>
                        <path d="M1.1577981,0.312864894 C2.17461714,-0.171284043 3.7889981,1.07965213 4.76288381,3.10697128 C5.73676952,5.1347266 5.70216,7.17120532 4.68490286,7.65535426 C3.66764571,8.13950319 2.05370286,6.88856702 1.07937905,4.86124787 C0.105931429,2.83349255 0.140540952,0.79701383 1.1577981,0.312864894" id="Fill-33" fill="#F8C198"></path>
                    </g>
                    <g id="Group-38" transform="translate(118.000000, 272.000000)">
                        <mask id="mask-16" fill="white">
                            <use xlink:href="#path-15"></use>
                        </mask>
                        <g id="Clip-37"></g>
                        <path d="M6.463,0.160851064 C4.3746,0.424021277 2.28574,1.57276596 1.403,3.4493617 C1.21256,3.04544681 0.78246,2.80059574 0.3266,2.83723404 C0.2668,6.8093617 0.5842,9.54338298 4.6138,11.5321277 C6.9184,12.653617 9.59606,13.5382979 10.8882,15.7008511 C11.31554,16.3934043 11.5552,17.1976596 11.9416,17.9348936 C13.11,20.1644681 16.2012,21.5808511 18.38206,20.2404255 C19.42534,19.6010426 20.06014,18.5023404 20.6448,17.4434043 C21.5924,15.7365957 22.55426,13.9632128 22.72906,12.0285319 C22.95354,9.40531915 21.6706,6.78702128 19.734,4.93723404 C17.7974,3.08744681 15.2812,1.90787234 12.7098,1.05446809 C11.07772,0.513829787 9.35502,0.0884680851 7.64704,0.0884680851 C7.25098,0.0884680851 6.85584,0.111255319 6.463,0.160851064" id="Fill-36" mask="url(#mask-16)"></path>
                    </g>
                    <g id="Group-41" transform="translate(78.000000, 302.000000)">
                        <mask id="mask-18" fill="white">
                            <use xlink:href="#path-17"></use>
                        </mask>
                        <g id="Clip-40"></g>
                        <polygon id="Fill-39" mask="url(#mask-18)" points="0.0443786982 65 74.7785503 65 74.7785503 0.227054795 0.0443786982 0.227054795"></polygon>
                    </g>
                    <g id="Group-63" transform="translate(1.000000, 0.000000)">
                        <polygon id="Fill-42" fill="#F5F5F5" points="78.258451 362.748285 148.783417 362.748285 148.783417 301.842007 78.258451 301.842007"></polygon>
                        <path d="M147.912936,301.84214 L150.856079,246.186556" id="Stroke-44" stroke="#AD7676" stroke-width="2"></path>
                        <path d="M79.9998109,301.84214 L76.0177289,246.186556" id="Stroke-45" stroke="#AD7676" stroke-width="2"></path>
                        <path d="M116.71831,282.870753 C116.726707,278.572603 120.043267,275.003986 124.332037,274.678965 C124.124779,274.678965 123.91708,274.648052 123.704962,274.648052 C119.153253,274.651585 115.465928,278.341643 115.469463,282.890184 C115.472998,287.433866 119.158114,291.116417 123.704962,291.11995 C123.91708,291.11995 124.124779,291.11995 124.332037,291.088596 C120.033103,290.763132 116.712565,287.179501 116.71831,282.870753" id="Fill-46" fill="#FFFFFF"></path>
                        <path d="M85.3644633,282.035853 C85.366231,277.729313 88.68942,274.151864 92.9874702,273.830816 C92.7797708,273.830816 92.5720715,273.800346 92.3599531,273.800346 C87.8082446,273.803437 84.1213608,277.493937 84.1244542,282.042477 C84.1279895,286.586159 87.8131057,290.268711 92.3599531,290.271802 C92.5720715,290.271802 92.7797708,290.271802 92.9874702,290.240889 C88.68942,289.920284 85.366231,286.342835 85.3644633,282.035853" id="Fill-47" fill="#FFFFFF"></path>
                        <path d="M89.9428633,288.368834 C90.3900797,288.666476 90.807246,289.006071 91.1886173,289.384527 C92.6694692,291.226024 89.862877,294.078797 90.914631,296.198064 C91.379082,297.13471 92.4838656,297.611644 92.9783667,298.530184 C93.9200843,300.274527 92.3424533,302.826568 93.7079658,304.27106 C94.074754,304.655257 94.5917927,304.880476 94.8790364,305.330473 C95.4314282,306.213684 94.6580797,307.388356 94.7813736,308.421714 C94.9364852,309.746531 96.3859613,310.453542 97.6361344,310.921203 C98.7011458,311.319089 100.097592,311.636604 100.822772,310.757808 C101.171442,310.316203 101.238171,309.738141 101.565187,309.292119 C102.175027,308.457042 103.403547,308.452626 104.300189,307.940363 C105.692658,307.145914 106.03249,305.290728 106.03249,303.696973 C106.03249,302.102776 105.873843,300.362407 106.74839,299.015509 C107.738718,297.487553 109.793615,296.917881 110.783059,295.389925 C112.281588,293.06752 110.628831,289.821276 111.69782,287.273651 C112.069027,286.39044 112.749574,285.643684 112.970531,284.716312 C113.337319,283.184381 112.356713,281.625071 111.202877,280.59613 C110.049925,279.567188 108.608845,278.759049 107.632216,277.504889 C106.947251,276.621677 106.50136,275.584345 105.692658,274.829199 C103.730121,273.000509 100.610654,273.654527 97.9901071,273.062776 C95.5640023,272.536823 93.3274784,270.876827 90.8571822,271.155038 C88.6966674,271.39748 87.0081162,273.057918 85.5011913,274.62606 C85.1056788,274.967863 84.8148998,275.41521 84.6619977,275.915549 C84.2200843,278.048505 86.2922164,280.243286 87.203,281.806571 C88.3652323,283.899783 88.0068405,286.747699 89.9428633,288.368834" id="Fill-48" fill="#33250A"></path>
                        <g id="Group-55" transform="translate(84.405467, 271.145985)" fill="#FFFFFF">
                            <path d="M1.06947472,5.2063562 C2.57639954,3.63865547 4.26406697,1.97821752 6.4254656,1.73577591 C8.8913426,1.45756423 11.1318437,3.11800219 13.5579485,3.64351314 C16.1780533,4.21274307 19.3028232,3.55960803 21.2600579,5.4099365 C22.0692014,6.16508248 22.5155339,7.22052044 23.2004998,8.08606788 C24.1771285,9.31814818 25.6000897,10.1086226 26.7711604,11.1773088 C27.5838392,11.862681 28.1888187,12.7622321 28.5167185,13.7735095 C28.5167185,13.7249328 28.5476524,13.6767978 28.5609098,13.6277796 C28.9276979,12.0958489 27.9466501,10.5365387 26.7711604,9.50759708 C25.5956706,8.47865547 24.1771285,7.67051679 23.2004998,6.4163562 C22.5155339,5.53314453 22.0692014,4.49581241 21.2600579,3.74066642 C19.2984041,1.91197664 16.1780533,2.56599489 13.5579485,1.97424307 C11.1318437,1.44829051 8.89576173,-0.212147445 6.4254656,0.0660642336 C4.26406697,0.308947445 2.57639954,1.9693854 1.06947472,3.53752774 C0.673520273,3.87933066 0.382299317,4.32667737 0.22983918,4.82701679 C0.140130752,5.31366642 0.159574943,5.81444745 0.286846014,6.29270657 C0.469798178,5.88024672 0.735830068,5.51018102 1.06947472,5.2063562" id="Fill-49"></path>
                            <path d="M10.5265991,35.9600518 C10.404631,36.3906175 10.353369,36.8379642 10.3759066,37.2848693 C10.3949089,37.4482635 10.435123,37.6085664 10.4956651,37.7618036 C10.6370774,37.1347234 10.7917472,36.5027854 10.5265991,35.9600518" id="Fill-50"></path>
                            <path d="M8.83402642,29.8482712 C8.71470979,30.5782456 8.69703326,31.3210266 8.78099681,32.0563004 C8.89722005,31.3258843 8.9153385,30.5831033 8.83402642,29.8482712" id="Fill-51"></path>
                            <path d="M27.0051535,22.2392259 C27.0480191,21.2787332 27.0228301,20.3164741 26.9300282,19.3599558 C26.8871626,20.3200069 26.9123517,21.2827077 27.0051535,22.2392259" id="Fill-52"></path>
                            <path d="M21.6093904,33.0408606 L21.6093904,32.5687839 L21.6093904,32.3303168 C21.6142515,32.5687839 21.6093904,32.8068095 21.6093904,33.0408606" id="Fill-53"></path>
                            <path d="M7.10610068,20.4995197 C6.78748109,21.8901365 5.97922141,23.4180927 6.37694351,24.7168555 C6.68628292,23.2639723 7.53475672,21.7316 7.10610068,20.4995197" id="Fill-54"></path>
                        </g>
                        <path d="M116.276397,274.820058 C116.68826,274.786496 117.077144,275.013923 117.248606,275.389729 C118.04847,273.623306 119.934998,272.572284 121.844506,272.325426 C123.753572,272.077685 125.679873,272.536955 127.500556,273.15962 C129.829882,273.95451 132.105294,275.054109 133.860133,276.776813 C135.614529,278.498634 136.7856,280.931882 136.569062,283.400901 C136.409973,285.202211 135.539404,286.853817 134.68165,288.444039 C134.151795,289.428379 133.576866,290.452904 132.631613,291.049072 C130.65626,292.290426 127.858948,290.978415 126.793937,288.903309 C126.444825,288.218379 126.228287,287.468091 125.839404,286.805682 C124.667891,284.791518 122.242228,283.970131 120.160816,282.923966 C116.506192,281.073196 116.218948,278.525572 116.276397,274.820058" id="Fill-56" fill="#263238"></path>
                        <path d="M116.276397,275.659285 C116.68826,275.625723 117.077144,275.85315 117.248606,276.228957 C118.04847,274.462534 119.934998,273.411512 121.844506,273.164212 C123.753572,272.916913 125.679873,273.376183 127.500556,273.998406 C129.829882,274.793738 132.105294,275.892895 133.860133,277.615599 C135.4139,279.088796 136.379481,281.075139 136.577458,283.206329 C136.723732,280.817242 135.570338,278.463482 133.860133,276.780964 C132.149928,275.098004 129.829882,273.958661 127.500556,273.164212 C125.679873,272.541107 123.749153,272.081836 121.844506,272.329577 C119.939859,272.576877 118.04847,273.654395 117.248606,275.39388 C117.077144,275.018957 116.68826,274.790647 116.276397,274.824209 L116.276397,275.86684 C116.271536,275.796183 116.271536,275.725085 116.276397,275.659285" id="Fill-57" fill="#FFFFFF"></path>
                        <polygon id="Fill-58" fill="#1DBE71" points="99.0151253 251.613759 125.353608 251.613759 125.353608 242.423942 99.0151253 242.423942"></polygon>
                        <path d="M5.36045421,119.176212 C5.36045421,54.3573069 63.6488369,1.63398577 121.37599,0.141358029 C120.540773,0.141358029 119.705557,0.106029562 118.87034,0.106029562 C60.3389052,0.106029562 0.344736674,53.4343507 0.344736674,119.176212 C0.344736674,184.918073 60.3389052,238.246395 118.87034,238.246395 C119.705557,238.246395 120.540773,238.246395 121.37599,238.211066 C63.653256,236.700774 5.36045421,183.999533 5.36045421,119.176212" id="Fill-59" fill="#FFFFFF"></path>
                        <polygon id="Fill-60" fill="#1DBE71" points="75.6025513 246.186423 151.275367 246.186423 151.275367 221.535985 75.6025513 221.535985"></polygon>
                        <path d="M75.5983531,8.77907993 C75.5983531,8.77907993 -14.2868405,111.448022 75.5983531,229.582 L105.281679,229.48043 C105.281679,229.48043 23.3376697,131.88554 101.520554,1.36893394 L86.8892415,4.70305803 L75.5983531,8.77907993 Z" id="Fill-61" fill="#FFFFFF"></path>
                        <path d="M153.781635,7.21146752 C153.781635,7.21146752 243.666386,111.430446 153.781635,229.577672 L124.098309,229.476103 C124.098309,229.476103 206.042318,131.050993 127.858992,0.529971168 L142.481908,3.44898577 L153.781635,7.21146752 Z" id="Fill-62" fill="#FFFFFF"></path>
                    </g>
                </g>
            </g>
        </g>
    </g>
</svg>