<?xml version="1.0" encoding="UTF-8"?>
<svg width="275px" height="56px" viewBox="0 0 275 56" version="1.1" xmlns="http://www.w3.org/2000/svg" xmlns:xlink="http://www.w3.org/1999/xlink">
    <!-- Generator: Sketch 51 (57462) - http://www.bohemiancoding.com/sketch -->
    <title>hill image</title>
    <desc>Created with Sketch.</desc>
    <defs>
        <polygon id="path-1" points="0.0124575311 53.7880952 274.996886 53.7880952 274.996886 0.290875093 0.0124575311 0.290875093 0.0124575311 53.7880952"></polygon>
        <polygon id="path-3" points="0.0124575311 53.7880952 274.996886 53.7880952 274.996886 0.290875093 0.0124575311 0.290875093 0.0124575311 53.7880952"></polygon>
        <polygon id="path-5" points="0 55.5213702 275 55.5213702 275 0 0 0"></polygon>
    </defs>
    <g id="Page-1" stroke="none" stroke-width="1" fill="none" fill-rule="evenodd">
        <g id="Mobile-home" transform="translate(-23.000000, -369.000000)">
            <g id="slider" transform="translate(18.000000, 54.000000)">
                <g id="hill-image" transform="translate(5.000000, 315.000000)">
                    <path d="M49.110671,17.4587192 L60.0577265,6.59290575 C60.390654,6.26152163 60.9309994,6.26059425 61.2645498,6.59136012 C61.2651727,6.59166925 61.2654841,6.5922875 61.266107,6.59290575 L72.1259598,17.3721637 C72.4598216,17.7023113 72.4604445,18.2386466 72.127517,18.5700308 C71.9680606,18.7286129 71.7509881,18.8182597 71.5248839,18.8185688 L49.7242044,18.9054335 C49.2529983,18.9113069 48.866192,18.5369542 48.8599632,18.069245 C48.8571602,17.8401819 48.9474773,17.6200835 49.110671,17.4587192 Z" id="Fill-1" fill="#EDEDED"></path>
                    <path d="M265.51359,47.5737155 C264.012458,47.5737155 229.480181,62.4767274 189.44479,23.2330567 C167.703284,1.92493373 146.407135,-0.344058333 131.483012,2.03312817 C122.311155,3.49220754 113.93658,7.93745357 107.302945,14.3765687 C101.968007,19.5760845 89.0557758,26.661275 58.8026614,24.7261401 C12.261325,21.746156 0,54.7794655 0,54.7794655 L275,54.7794655 C275,54.7794655 267.005379,47.5737155 265.51359,47.5737155" id="Fill-3"></path>
                    <g id="Group-7" transform="translate(0.000000, 1.733275)">
                        <mask id="mask-2" fill="white">
                            <use xlink:href="#path-1"></use>
                        </mask>
                        <g id="Clip-6"></g>
                        <path d="M0.0124575311,53.7882189 C0.0124575311,53.7882189 12.2737826,20.7549094 58.8151189,23.7345844 C89.0682333,25.6789931 101.983579,18.5848379 107.302945,13.3884133 C113.924122,6.93662405 122.295583,2.50405222 131.458097,1.04497286 C146.38222,-1.33252278 167.681484,0.936469286 189.419875,22.2449014 C229.455266,61.4885721 263.987542,46.585251 265.488675,46.585251 C266.989807,46.585251 274.996886,53.7882189 274.996886,53.7882189 L0.0124575311,53.7882189 Z" id="Fill-5" fill="#F2F2F2" mask="url(#mask-2)"></path>
                    </g>
                    <g id="Group-10" transform="translate(0.000000, 1.733275)">
                        <mask id="mask-4" fill="white">
                            <use xlink:href="#path-3"></use>
                        </mask>
                        <g id="Clip-9"></g>
                        <path d="M0.0124575311,53.7882189 C0.0124575311,53.7882189 12.2737826,20.7549094 58.8151189,23.7345844 C89.0682333,25.6789931 101.983579,18.5848379 107.302945,13.3884133 C113.924122,6.93662405 122.295583,2.50405222 131.458097,1.04497286 C146.38222,-1.33252278 167.681484,0.936469286 189.419875,22.2449014 C229.455266,61.4885721 263.987542,46.585251 265.488675,46.585251 C266.989807,46.585251 274.996886,53.7882189 274.996886,53.7882189 L0.0124575311,53.7882189 Z" id="Fill-8" fill="#EDEDED" mask="url(#mask-4)"></path>
                    </g>
                    <mask id="mask-6" fill="white">
                        <use xlink:href="#path-5"></use>
                    </mask>
                    <g id="Clip-12"></g>
                    <polygon id="Fill-11" fill="#1DBE71" mask="url(#mask-6)" points="50.1477916 32.4914099 69.7372593 32.4914099 69.7372593 18.045906 50.1477916 18.045906"></polygon>
                    <path d="M48.4411099,17.4587192 L59.3881653,6.59290575 C59.7210929,6.26152163 60.2614383,6.26059425 60.5949887,6.59136012 C60.5953001,6.59166925 60.595923,6.5922875 60.5965459,6.59290575 L71.4563986,17.3721637 C71.7902605,17.7023113 71.7908834,18.2386466 71.4579558,18.5700308 C71.298188,18.7286129 71.081427,18.8182597 70.8553228,18.8185688 L49.0546433,18.9054335 C48.5834371,18.9113069 48.1963194,18.5369542 48.190402,18.069245 C48.1875991,17.8401819 48.2779162,17.6200835 48.4411099,17.4587192" id="Fill-13" fill="#1DBE71" mask="url(#mask-6)"></path>
                    <path d="M59.6902916,25.9751058 L60.0827039,25.9751058 C61.3038533,25.9751058 62.2939156,26.9578205 62.2939156,28.1699074 L62.2939156,32.4976852 L57.4790798,32.4976852 L57.4790798,28.1699074 C57.4790798,26.9578205 58.4691421,25.9751058 59.6902916,25.9751058" id="Fill-14" fill="#FFFFFF" mask="url(#mask-6)"></path>
                    <path d="M59.9955011,8.05176873 C60.6610447,8.05176873 61.2007673,8.58717667 61.2007673,9.24809016 C61.2007673,9.90900365 60.6610447,10.4444116 59.9955011,10.4444116 C59.3299575,10.4444116 58.790235,9.90900365 58.790235,9.24809016 C58.790235,8.58717667 59.3299575,8.05176873 59.9955011,8.05176873" id="Fill-15" fill="#FFFFFF" mask="url(#mask-6)"></path>
                    <polygon id="Fill-16" fill="#FFFFFF" mask="url(#mask-6)" points="51.680068 23.3659813 56.2768969 23.3659813 56.2768969 19.891394 51.680068 19.891394"></polygon>
                    <polygon id="Fill-17" fill="#1DBE71" mask="url(#mask-6)" points="53.7573613 23.3659813 54.4414409 23.3659813 54.4414409 19.891394 53.7573613 19.891394"></polygon>
                    <polygon id="Fill-18" fill="#FFFFFF" mask="url(#mask-6)" points="63.9351642 23.3659813 68.5319932 23.3659813 68.5319932 19.891394 63.9351642 19.891394"></polygon>
                    <polygon id="Fill-19" fill="#1DBE71" mask="url(#mask-6)" points="66.0155719 23.3659813 66.6996515 23.3659813 66.6996515 19.891394 66.0155719 19.891394"></polygon>
                    <path d="M140.959809,2.7552287 L140.959809,2.7552287 C140.870879,2.73487156 140.959809,2.7552287 140.959809,2.7552287" id="Fill-20" mask="url(#mask-6)"></path>
                    <path d="M141.545583,5.03475119 C141.59479,5.07555595 141.649292,5.10955992 141.707531,5.1367631 C141.705974,5.15654722 141.705974,5.17602222 141.707531,5.19549722 L141.707531,5.4644377 L141.654587,5.48916786 C141.6141,5.35624325 141.579841,5.20167976 141.542469,5.03475119 L141.545583,5.03475119 Z M141.389864,11.7273504 L141.427237,11.7273504 C141.44312,11.721477 141.45402,11.706948 141.455266,11.6902552 C141.457758,11.6778901 141.457758,11.6652159 141.455266,11.6531599 L141.455266,11.6222472 C141.424434,11.5480567 141.352492,11.4491361 141.312005,11.3625806 L141.293318,11.3162115 C141.29145,11.2958091 141.29145,11.2750976 141.293318,11.2543861 L141.293318,11.2265647 L141.966025,9.03485437 L141.981597,8.98230278 C141.981597,8.98230278 142.838052,9.34707262 143.059173,10.0766123 C143.186552,10.4305627 143.193092,10.816044 143.07786,11.1740131 L143.062288,11.2111083 L143.07786,11.2111083 L143.07786,11.6129734 L144.012174,11.6129734 C144.077576,11.5820607 143.990374,11.5016877 143.903171,11.4213147 L143.88137,11.3996758 L143.825311,11.3406325 C143.809428,11.3230123 143.796036,11.3032282 143.784824,11.2822075 L143.769253,11.2451123 L143.769253,11.2234734 L143.741223,11.2234734 L143.741223,11.1894694 C143.978851,10.0967056 143.616336,8.96097302 142.788222,8.20330278 C143.013392,7.53620675 143.013392,6.81470437 142.788222,6.14760833 C142.875425,6.08547381 144.572763,4.86782262 144.560306,3.291275 C144.565289,3.20688333 144.565289,3.12218254 144.560306,3.03779087 C144.560306,3.03779087 144.706682,2.91692222 144.560306,2.69775119 L144.560306,2.67920357 L144.544734,2.67920357 L144.441959,2.67920357 C144.374689,2.68569524 144.309909,2.707025 144.251982,2.74102897 C144.251982,2.74102897 144.155436,3.05015595 144.251982,3.13052897 L144.227067,3.13052897 C144.227067,3.13052897 143.221121,5.29441786 142.548414,5.60354484 L142.501699,5.57572341 L142.501699,5.29441786 C142.502322,5.28205278 142.502322,5.2696877 142.501699,5.25732262 C142.50201,5.24619405 142.50201,5.23475635 142.501699,5.22331865 C142.577378,5.18436865 142.645583,5.13305357 142.704134,5.07184643 C142.726557,5.04835278 142.747424,5.02362262 142.766421,4.99765595 L142.791336,4.96056071 L142.816251,4.91728294 L142.834938,4.87709643 C142.84833,4.84803849 142.859853,4.81805317 142.869196,4.7874496 L142.869196,4.75035437 L142.869196,4.70398532 L142.869196,4.66689008 L142.869196,4.61742976 C142.869196,4.52871032 142.853313,4.44091825 142.82248,4.3577631 C142.82248,4.3348877 142.813137,4.31232143 142.794451,4.28975516 L142.778879,4.25606032 L142.757078,4.21865595 C142.773896,4.19825357 142.793828,4.18032421 142.816251,4.16610437 C142.85923,4.14199246 142.907191,4.12746349 142.956399,4.12282659 L143.07786,4.12282659 L143.102775,4.12282659 C143.120527,4.11571667 143.137344,4.10644286 143.152605,4.09500516 C143.176586,4.07553016 143.203681,4.06069206 143.233579,4.05172738 L143.04983,4.05172738 L143.021489,4.05172738 L142.996886,4.05172738 L142.968856,4.05172738 L142.94363,4.05172738 L142.918715,4.05172738 L142.894111,4.05172738 L142.869196,4.05172738 L142.844281,4.05172738 L142.794451,4.03008849 C142.8203,4.04028968 142.847707,4.04678135 142.875425,4.04863611 L142.981314,4.04863611 L143,4.04863611 L143.018686,4.03317976 L143.018686,4.0084496 L142.984428,4.0084496 L142.962627,4.0084496 C142.920272,4.01401389 142.877293,4.01401389 142.834938,4.0084496 L142.744621,4.0084496 L142.704134,4.0084496 L142.666761,3.99299325 C142.773584,4.031325 142.890997,3.97660952 142.929926,3.8708881 C142.968856,3.76516667 142.913732,3.64831667 142.806908,3.60967579 L142.841166,3.5880369 C142.876982,3.55743333 142.899405,3.51415556 142.903454,3.46747738 C142.907814,3.44800238 142.907814,3.42821825 142.903454,3.40874325 L142.881653,3.42729087 L142.862967,3.42729087 C142.803794,3.46871389 142.732475,3.48818889 142.660532,3.48293373 L142.635617,3.48293373 C142.572084,3.46685913 142.51073,3.44398373 142.451869,3.41492579 L142.398613,3.39637817 L142.383352,3.39637817 L142.339751,3.39637817 L142.314836,3.39637817 L142.280578,3.39637817 L142.115515,3.39637817 C141.882871,3.40441548 141.661127,3.49653532 141.492639,3.65604484 C141.453709,3.69406746 141.418205,3.73549048 141.386438,3.77969563 C141.364015,3.55310556 141.40637,3.32527897 141.508211,3.12125516 L141.489524,3.12125516 L141.433465,3.12125516 L141.405436,3.17411587 C141.420074,3.09899802 141.448726,3.02789881 141.489524,2.9636004 L141.470838,2.9636004 C141.556484,2.86838929 141.556484,2.72464524 141.470838,2.62974325 C141.324462,2.4102631 141.053511,2.58028294 141.053511,2.58028294 C141.03171,2.65169127 141.017072,2.72526349 141.009598,2.80007222 L140.966308,2.78121548 C140.916478,2.94814405 140.361806,4.86473135 141.277746,6.08887421 C141.276501,6.11453175 141.276501,6.14049841 141.277746,6.16615595 L141.277746,8.23112421 L140.65487,11.0627274 L140.533409,11.5978262 L141.40855,11.7397155 L141.389864,11.7273504 Z" id="Fill-21" mask="url(#mask-6)"></path>
                    <path d="M144.659689,3.41233384 C144.659689,3.41233384 144.850255,3.24005802 144.659689,2.93426844 C144.468758,2.62926194 144.117312,2.86770733 144.117312,2.86770733 C144.117312,2.86770733 143.989047,3.31014295 144.117312,3.41233384 C144.245577,3.51413318 144.659689,3.41233384 144.659689,3.41233384" id="Fill-23" fill="#CA7070" mask="url(#mask-6)"></path>
                    <path d="M142.894204,12.2932073 L143.641345,12.2932073 C143.63605,12.3891881 143.662211,12.4843306 143.713287,12.5526488 C143.812947,12.7077269 144.024725,12.8963354 143.921951,12.9717788 L142.894204,12.9717788 L142.894204,12.2932073 Z" id="Fill-24" fill="#00695C" mask="url(#mask-6)"></path>
                    <path d="M143.72188,12.5527106 C143.625202,12.4843924 143.575684,12.3892499 143.586295,12.2932692 L143.68592,12.2932692 C143.675899,12.3892499 143.725417,12.4843924 143.822094,12.5527106 C144.010144,12.7077887 144.411592,12.8963972 144.217058,12.9718406 L144.116843,12.9718406 C144.293692,12.8963972 143.909929,12.7077887 143.72188,12.5527106" id="Fill-25" fill="#FFFFFF" mask="url(#mask-6)"></path>
                    <path d="M140.228106,12.1416733 L140.938185,12.265015 C140.919187,12.347861 140.930088,12.4341074 140.969329,12.5092253 C141.047189,12.6671892 141.218791,12.8709038 141.116016,12.9144908 L140.103842,12.7506535 L140.228106,12.1416733 Z" id="Fill-26" fill="#00695C" mask="url(#mask-6)"></path>
                    <path d="M140.570875,2.95117349 C140.570875,2.95117349 139.770478,5.45819333 141.112466,6.84648262 L141.501764,6.53735563 C141.501764,6.53735563 140.707596,3.8012727 141.153264,3.15828857 C140.36844,2.91407825 140.570875,2.95117349 140.570875,2.95117349" id="Fill-27" fill="#00695C" mask="url(#mask-6)"></path>
                    <path d="M141.215032,3.3039513 C141.215032,3.3039513 141.405974,3.13205509 141.215032,2.82624431 C141.024455,2.52082508 140.672988,2.75967858 140.672988,2.75967858 C140.672988,2.75967858 140.544349,3.20214489 140.672988,3.3039513 C140.800894,3.40614927 141.215032,3.3039513 141.215032,3.3039513" id="Fill-28" fill="#CA7070" mask="url(#mask-6)"></path>
                    <path d="M140.907259,12.4969838 C140.867707,12.421866 140.856806,12.3356196 140.875804,12.2527735 L140.228012,12.1476704 L140.938403,12.2651386 C140.919094,12.3479846 140.929994,12.4342311 140.969236,12.5093489 C141.047095,12.6673128 141.218698,12.8710275 141.115923,12.9146144 L141.07201,12.9146144 C141.140838,12.8401148 140.981693,12.6484561 140.907259,12.4969838" id="Fill-29" fill="#FFFFFF" mask="url(#mask-6)"></path>
                    <path d="M141.822701,6.40409099 L141.760413,6.40409099 C141.567945,6.40409099 141.411602,6.24921837 141.411602,6.05786877 L141.411602,5.63127353 C141.411602,5.44023306 141.567945,5.28505131 141.760413,5.28505131 L141.822701,5.28505131 C142.015481,5.28505131 142.171512,5.44023306 142.171512,5.63127353 L142.171512,6.05786877 C142.171512,6.24921837 142.015481,6.40409099 141.822701,6.40409099" id="Fill-30" fill="#CA7070" mask="url(#mask-6)"></path>
                    <path d="M141.556902,6.7008529 C141.556902,6.7008529 140.592458,3.99939218 141.117161,3.33446004 L141.193322,3.33446004 L141.216285,3.33446004 C140.669001,3.97744417 141.644926,6.71321798 141.644926,6.71321798 L141.166532,7.02234496 L141.124433,6.98524972 L141.556902,6.7008529 Z" id="Fill-31" fill="#FFFFFF" mask="url(#mask-6)"></path>
                    <path d="M141.776172,4.00835687 C142.240527,4.00835687 142.616744,4.38209139 142.616744,4.84299972 C142.616744,5.30390806 142.240527,5.67764258 141.776172,5.67764258 C141.311818,5.67764258 140.935289,5.30390806 140.935289,4.84299972 C140.935289,4.38209139 141.311818,4.00835687 141.776172,4.00835687" id="Fill-32" fill="#CA7070" mask="url(#mask-6)"></path>
                    <path d="M142.075153,6.02704881 L142.075153,5.66227897 C142.077956,5.63538492 142.077956,5.60849087 142.075153,5.58190595 C142.488431,5.37200873 142.652559,4.86936825 142.441093,4.45884762 C142.304683,4.19423492 142.037469,4.02174206 141.7388,4.00535833 L141.785204,4.00535833 C142.24987,4.00474008 142.62671,4.37816548 142.627022,4.83907381 C142.627333,5.15191032 142.451682,5.43878016 142.171699,5.58190595 C142.174502,5.60849087 142.174502,5.63538492 142.171699,5.66227897 L142.171699,6.02704881 C142.171699,6.2354004 142.001653,6.40418373 141.791744,6.40418373 L141.744717,6.40418373 C141.935317,6.37945357 142.07671,6.21747103 142.075153,6.02704881" id="Fill-33" fill="#FFFFFF" mask="url(#mask-6)"></path>
                    <path d="M140.922769,9.00391075 C140.922769,9.00391075 142.545362,9.18629567 142.604224,9.00391075 C142.858669,8.26138774 142.858669,7.45611194 142.604224,6.7132798 C142.604224,6.25237147 142.228007,5.87894607 141.763652,5.87894607 C141.299298,5.87894607 140.922769,6.25237147 140.922769,6.7132798 L140.922769,9.00391075 Z" id="Fill-34" fill="#00695C" mask="url(#mask-6)"></path>
                    <path d="M140.922769,9.00391075 L140.190578,12.3424822 L140.922769,12.3424822 L141.682367,9.86946631 C141.682367,9.86946631 142.616682,10.2744227 142.875487,11.0812441 C143.031829,11.4883643 143.031829,11.9384532 142.875487,12.3458826 L143.663426,12.3458826 L143.663426,12.3084782 C143.928148,11.0970096 143.522344,9.83762623 142.598307,9.00391075" id="Fill-35" fill="#263238" mask="url(#mask-6)"></path>
                    <path d="M142.49547,9.00391075 C142.749604,8.26138774 142.749604,7.45611194 142.49547,6.7132798 C142.494847,6.2733921 142.150085,5.90954964 141.707531,5.88172821 L141.760476,5.88172821 C142.22483,5.88172821 142.601359,6.25546274 142.601359,6.7166802 C142.855493,7.45920321 142.855493,8.26416988 142.601359,9.00700202 C142.579558,9.07191869 142.358437,9.09046631 142.081257,9.08768417 C142.321065,9.0811925 142.49547,9.05955361 142.49547,9.00391075" id="Fill-36" fill="#FFFFFF" mask="url(#mask-6)"></path>
                    <path d="M142.616806,6.7008529 C142.616806,6.7008529 144.796874,5.19231321 144.569836,3.28190845 L144.083681,3.28190845 C144.083681,3.28190845 142.915787,5.78583702 142.17145,6.03004734 C141.427424,6.27425766 142.616806,6.7008529 142.616806,6.7008529" id="Fill-37" fill="#00695C" mask="url(#mask-6)"></path>
                    <g id="Group-40" mask="url(#mask-6)" fill="#FFFFFF">
                        <g transform="translate(140.770102, 8.843196)">
                            <polygon id="Fill-38" points="0.896879955 1.07872952 0.152542469 3.51155889 0.0435390713 3.51155889 0.803448471 1.03854302"></polygon>
                            <path d="M1.72536806,0.173080198 L1.83437146,0.173080198 C2.7580974,1.00679567 3.16421291,2.26617901 2.89949037,3.47764766 L2.89949037,3.51505202 L2.79048698,3.51505202 L2.79048698,3.47764766 C3.05552095,2.26617901 2.64940544,1.00679567 1.72536806,0.173080198" id="Fill-39"></path>
                        </g>
                    </g>
                    <path d="M144.4888,3.30045607 L144.569773,3.30045607 C144.78778,5.2139521 142.616744,6.71970964 142.616744,6.71970964 L142.5638,6.69776163 C142.807033,6.52155925 144.690923,5.09030131 144.4888,3.30045607" id="Fill-41" fill="#FFFFFF" mask="url(#mask-6)"></path>
                    <path d="M142.445578,4.46904881 C142.399173,4.57693413 142.366784,4.6900746 142.349032,4.80599722 C142.30543,5.04526151 142.166217,5.25732262 141.962848,5.39333849 C141.846993,5.45578214 141.718058,5.49102262 141.586008,5.4953504 C141.384819,5.52008056 141.182384,5.45949167 141.028533,5.32842183 C140.940396,5.23351984 140.881223,5.11574246 140.857242,4.98869127 C140.77222,4.60444643 140.889632,4.20412698 141.168681,3.92498532 C141.453647,3.65140794 141.870974,3.563925 142.243454,3.69932262 C142.308856,3.7311627 142.377684,3.75620198 142.448692,3.7735131 C142.562678,3.79546111 142.680402,3.75836587 142.76013,3.67490159 C142.790963,3.77227659 142.736461,3.87645238 142.638046,3.90736508 C142.61936,3.91323849 142.599428,3.91602063 142.579496,3.91571151 C142.705317,3.97568214 142.849824,3.98371944 142.981251,3.9373504 C142.90526,4.09716905 142.717463,4.17135952 142.551467,4.10737024 C142.704383,4.17506905 142.870068,4.20876389 143.03731,4.20629087 C143.003052,4.20629087 142.934536,4.27120754 142.890934,4.28357262 C142.837055,4.28820952 142.782865,4.28820952 142.728986,4.28357262 C142.605968,4.28419087 142.494785,4.35714484 142.445578,4.46904881" id="Fill-42" fill="#263238" mask="url(#mask-6)"></path>
                    <g id="Group-48" mask="url(#mask-6)" fill="#FFFFFF">
                        <g transform="translate(141.392978, 3.588037)">
                            <path d="M1.23936971,0.618470357 C1.37618563,0.683613214 1.52531499,0.720256071 1.67718066,0.727041786 C1.47948165,0.741291786 1.28178265,0.703291786 1.10255379,0.618470357 C1.33308862,0.619148929 1.52052643,0.4345775 1.52121051,0.2065775 C1.52121051,0.194363214 1.52052643,0.182148929 1.51984235,0.171291786 L1.6156135,0.0898632143 C1.68333738,0.303613214 1.56362345,0.532291786 1.34745429,0.600148929 C1.31188215,0.611006071 1.27631001,0.617113214 1.23936971,0.618470357" id="Fill-43"></path>
                            <path d="M1.05901963,0.352365732 C0.979094006,0.313687161 0.902309561,0.259401447 0.828666298,0.18950859 C0.717328853,0.10400859 0.599360023,0.0558300181 0.479646093,0.0470085896 C0.623791438,0.0375085896 0.767587762,0.085687161 0.901960541,0.18950859 C0.975603804,0.259401447 1.05273727,0.313687161 1.13231388,0.352365732 L1.16372569,0.352365732 C1.12882367,0.363222875 1.09392165,0.363222875 1.05901963,0.352365732" id="Fill-44"></path>
                            <path d="M1.50299469,0.906242698 C1.55803557,0.906242698 1.6445284,0.736599841 1.68777481,0.736599841 C1.47665369,0.742028413 1.26710517,0.667385556 1.07446206,0.519456984 C1.11810162,0.549314127 1.16488638,0.56492127 1.21206428,0.566956984 C1.38622937,0.680956984 1.57218894,0.736599841 1.75854166,0.729135556 C1.71529525,0.729135556 1.62880243,0.871635556 1.57376154,0.898778413 C1.52697679,0.912349841 1.47901258,0.912349841 1.43222783,0.898778413 L1.50299469,0.906242698 Z" id="Fill-45"></path>
                            <path d="M0.137157418,1.90740623 C0.26889581,1.9024602 0.397831257,1.86783798 0.513997735,1.80539433 C0.717055493,1.66906933 0.856579841,1.45731734 0.899869762,1.21805306 C0.917621744,1.10213044 0.950011325,0.988680833 0.996727067,0.881104643 C1.04655719,0.779710992 1.14777463,0.713557817 1.26113817,0.707993532 L1.31408267,0.707993532 C1.20071914,0.713557817 1.0995017,0.779710992 1.04967157,0.881104643 C1.00295583,0.988680833 0.970566251,1.10213044 0.95281427,1.21805306 C0.909212911,1.45731734 0.77,1.66906933 0.566942242,1.80539433 C0.450775764,1.86783798 0.321840317,1.9024602 0.190101925,1.90740623 L0.137157418,1.90740623 Z" id="Fill-46"></path>
                            <path d="M1.23021234,0.776844405 C1.46493324,0.759880119 1.67580548,0.613987262 1.78877275,0.39005869 L1.91429195,0.349344405 C1.79191073,0.632987262 1.51827889,0.80330869 1.23021234,0.776844405" id="Fill-47"></path>
                        </g>
                    </g>
                    <path d="M144.719638,3.4125022 C144.719638,3.4125022 145.008685,3.24035621 144.719638,2.93479707 C144.642373,2.84481166 144.507299,2.78612552 144.358328,2.77869195 C144.54065,2.76421603 144.71797,2.82485837 144.814134,2.93479707 C145.102626,3.24035621 144.814134,3.4125022 144.814134,3.4125022 C144.631256,3.44067155 144.445042,3.45475622 144.258273,3.45514746 C144.413358,3.45006133 144.567888,3.43558542 144.719638,3.4125022" id="Fill-49" fill="#FFFFFF" mask="url(#mask-6)"></path>
                    <path d="M148.22908,0.277410556 C148.22908,0.277410556 147.428683,2.78412127 148.770982,4.17241056 L149.16028,3.86328357 C149.16028,3.86328357 148.365801,1.12750976 148.811469,0.484525635 C148.026645,0.240315317 148.22908,0.277410556 148.22908,0.277410556" id="Fill-50" fill="#FF5252" mask="url(#mask-6)"></path>
                    <path d="M148.873543,0.633349315 C148.873543,0.633349315 149.064108,0.46101735 148.873543,0.155519776 C148.682611,-0.149977798 148.331165,0.0889369718 148.331165,0.0889369718 C148.331165,0.0889369718 148.202901,0.53151679 148.331165,0.633349315 C148.459064,0.735181839 148.873543,0.633349315 148.873543,0.633349315" id="Fill-51" fill="#F6B9AD" mask="url(#mask-6)"></path>
                    <path d="M149.480937,3.7333575 L149.418961,3.7333575 C149.226181,3.7333575 149.07015,3.57817575 149.07015,3.38713528 L149.07015,2.96054004 C149.07015,2.76919044 149.226181,2.61431782 149.418961,2.61431782 L149.480937,2.61431782 C149.673717,2.61431782 149.829748,2.76919044 149.829748,2.96054004 L149.829748,3.38713528 C149.829748,3.57817575 149.673717,3.7333575 149.480937,3.7333575" id="Fill-52" fill="#F6B9AD" mask="url(#mask-6)"></path>
                    <path d="M149.215107,4.03945504 C149.215107,4.03945504 148.250663,1.3376852 148.775366,0.672753056 L148.851527,0.672753056 L148.87449,0.672753056 C148.327589,1.31573718 149.303131,4.05182012 149.303131,4.05182012 L148.824737,4.3609471 L148.782638,4.32385187 L149.215107,4.03945504 Z" id="Fill-53" fill="#FFFFFF" mask="url(#mask-6)"></path>
                    <path d="M149.434408,1.33459393 C149.898763,1.33459393 150.275292,1.70832845 150.275292,2.16892766 C150.275292,2.62983599 149.898763,3.00357052 149.434408,3.00357052 C148.970054,3.00357052 148.593525,2.62983599 148.593525,2.16892766 C148.593525,1.70832845 148.970054,1.33459393 149.434408,1.33459393" id="Fill-54" fill="#F6B9AD" mask="url(#mask-6)"></path>
                    <path d="M149.733358,3.35297675 L149.733358,2.99129817 C149.736161,2.96471325 149.736161,2.93781921 149.733358,2.91092516 C150.146636,2.70133706 150.310764,2.19838746 150.099298,1.78817595 C149.962888,1.52356325 149.695674,1.35076127 149.397005,1.33468667 L149.443409,1.33468667 C149.908075,1.33406841 150.284915,1.70718468 150.285227,2.16809302 C150.285538,2.48123865 150.109887,2.76749024 149.829904,2.91092516 C149.832707,2.93781921 149.832707,2.96471325 149.829904,2.99129817 L149.829904,3.35637714 C149.829904,3.56472873 149.659858,3.73320294 149.449949,3.73320294 L149.402922,3.73320294 C149.594768,3.70816365 149.736472,3.54463548 149.733358,3.35297675" id="Fill-55" fill="#FFFFFF" mask="url(#mask-6)"></path>
                    <path d="M148.580974,6.33014782 C148.580974,6.33014782 150.203567,6.51253274 150.262741,6.33014782 C150.455832,5.74280655 149.951302,5.09363988 150.197339,4.7845129 C150.352123,4.56194147 150.377039,4.27538075 150.262741,4.03024306 C150.262741,3.5690256 149.886212,3.19529107 149.421857,3.19529107 C148.957503,3.19529107 148.580974,3.5690256 148.580974,4.03024306 L148.580974,6.33014782 Z" id="Fill-56" fill="#FF5252" mask="url(#mask-6)"></path>
                    <path d="M150.200515,4.79687798 C150.354989,4.57430655 150.379904,4.28774583 150.265917,4.04260813 C150.265917,3.58139067 149.889388,3.20765615 149.425034,3.20765615 L149.372089,3.20765615 C149.814643,3.23547758 150.159094,3.59932004 150.160028,4.03951687 C150.274015,4.28465456 150.2491,4.5715244 150.094626,4.79347758 C149.832707,5.10260456 150.35312,5.73971528 150.160028,6.3391125 C150.141342,6.39506448 149.973165,6.41639425 149.752044,6.41979464 C150.025798,6.41979464 150.24692,6.40402917 150.269032,6.3391125 C150.459009,5.74280655 149.938907,5.10600496 150.200515,4.79687798" id="Fill-57" fill="#FFFFFF" mask="url(#mask-6)"></path>
                    <path d="M149.917075,6.27731802 L149.917075,6.27731802 C150.542755,7.25972357 150.7863,8.43471524 150.60224,9.58188548 L150.60224,9.61928984 L150.09771,9.61928984 C150.198927,9.20382317 150.198927,8.77011802 150.09771,8.35496048 C150.001787,7.87086762 149.728967,7.43932635 149.331571,7.1431827 L148.842613,9.61619857 L148.372341,9.61619857 L148.842613,6.27731802 L149.917075,6.27731802 Z" id="Fill-58" fill="#F6B9AD" mask="url(#mask-6)"></path>
                    <path d="M152.845156,1.58922476 C152.845156,1.58922476 153.072316,1.49199928 152.974962,1.1530139 C152.877608,0.814401022 152.484585,0.929507049 152.484585,0.929507049 C152.484585,0.929507049 152.243002,1.30201846 152.33675,1.42531974 C152.430499,1.54824851 152.845156,1.58922476 152.845156,1.58922476" id="Fill-59" fill="#F6B9AD" mask="url(#mask-6)"></path>
                    <path d="M149.892129,4.17531635 C149.892129,4.17531635 152.411665,3.36540365 152.769819,1.47385563 L152.302661,1.3313481 C152.302661,1.3313481 150.434032,3.38704254 149.661665,3.40249889 C148.889298,3.41795524 149.892129,4.17531635 149.892129,4.17531635" id="Fill-60" fill="#FF5252" mask="url(#mask-6)"></path>
                    <path d="M152.682585,1.47679234 L152.760445,1.5015225 C152.40229,3.39337964 149.882755,4.20298321 149.882755,4.20298321 L149.839153,4.16928837 C150.13502,4.0641852 152.349346,3.24190742 152.682585,1.47679234" id="Fill-61" fill="#FFFFFF" mask="url(#mask-6)"></path>
                    <g id="Group-64" mask="url(#mask-6)" fill="#FFFFFF">
                        <g transform="translate(148.556059, 6.061053)">
                            <path d="M0.745656408,1.07872952 L0.171322197,3.5517454 L0.299358486,3.5517454 L0.855401799,1.14704659 C0.819917456,1.12293468 0.783701477,1.09975016 0.745656408,1.07872952" id="Fill-62"></path>
                            <path d="M1.36101642,0.216265238 L1.25201302,0.216265238 C1.87738109,1.19867079 2.12092582,2.37366246 1.93717724,3.5208327 L1.93717724,3.55823706 L2.03683749,3.55823706 L2.03683749,3.5208327 C2.22370045,2.37428071 1.9832701,1.1999073 1.36101642,0.216265238" id="Fill-63"></path>
                        </g>
                    </g>
                    <path d="M152.856443,1.56736017 C152.856443,1.56736017 153.158516,1.46879672 153.028577,1.12382466 C152.99789,1.0256403 152.908227,0.944894089 152.788836,0.908122341 C152.945147,0.930109572 153.069812,1.02222849 153.110089,1.14277916 C153.240028,1.48396033 152.937955,1.58669377 152.937955,1.58669377 C152.774931,1.57607924 152.614305,1.55219656 152.458474,1.51428754 C152.588893,1.54082386 152.722189,1.5586411 152.856443,1.56736017" id="Fill-65" fill="#FFFFFF" mask="url(#mask-6)"></path>
                    <path d="M148.580974,6.24047008 L147.559456,8.37962881 C148.156484,8.40899587 148.750708,8.48009508 149.337769,8.5926173 C150.46829,8.80622405 151.007078,8.28349032 151.007078,8.28349032 L150.281427,6.24047008 L148.580974,6.24047008 Z" id="Fill-66" fill="#263238" mask="url(#mask-6)"></path>
                    <path d="M148.851956,9.6067702 C148.851956,9.6067702 149.390433,9.8442702 149.281741,10.2853416 L148.313168,10.2853416 L148.365801,9.6067702 L148.851956,9.6067702 Z" id="Fill-67" fill="#FF5252" mask="url(#mask-6)"></path>
                    <path d="M150.574304,9.6067702 C150.574304,9.6067702 151.11278,9.8442702 151.004088,10.2853416 L150.035515,10.2853416 L150.088148,9.6067702 L150.574304,9.6067702 Z" id="Fill-68" fill="#FF5252" mask="url(#mask-6)"></path>
                    <path d="M150.197463,1.48282032 C150.197463,1.48282032 148.904994,3.30048698 149.496727,4.04857429 L147.182429,3.9960227 C147.182429,3.9960227 147.827418,-0.121239603 150.197463,1.48282032" id="Fill-69" fill="#FCCC63" mask="url(#mask-6)"></path>
                    <path d="M150.197463,1.48282032 C149.931806,1.28776119 149.621302,1.16256476 149.294292,1.11805048 C149.516348,1.18884056 149.726569,1.29332548 149.917169,1.42717746 C149.917169,1.42717746 148.624388,3.24484413 149.216433,3.99293143 L147.179626,3.94656238 L147.179626,3.99293143 L149.493301,4.04548302 C148.904994,3.30048698 150.197463,1.48282032 150.197463,1.48282032" id="Fill-70" fill="#FFFFFF" mask="url(#mask-6)"></path>
                    <path d="M150.281427,6.24047008 L150.119479,6.24047008 L150.848245,8.27112524 C150.546772,8.51719032 150.167129,8.64856929 149.776897,8.64238675 C150.225057,8.68597365 150.672593,8.55243079 151.02265,8.27112524 L150.281427,6.24047008 Z" id="Fill-71" fill="#FFFFFF" mask="url(#mask-6)"></path>
                    <path d="M148.877724,9.6067702 L148.742642,9.6067702 C148.742642,9.6067702 149.408816,9.8442702 149.274119,10.2853416 L149.408816,10.2853416 C149.543129,9.83748448 148.877724,9.6067702 148.877724,9.6067702" id="Fill-72" fill="#FFFFFF" mask="url(#mask-6)"></path>
                    <path d="M150.600071,9.6067702 L150.464989,9.6067702 C150.464989,9.6067702 151.131163,9.8442702 150.996081,10.2853416 L151.131163,10.2853416 C151.265476,9.83748448 150.600071,9.6067702 150.600071,9.6067702" id="Fill-73" fill="#FFFFFF" mask="url(#mask-6)"></path>
                </g>
            </g>
        </g>
    </g>
</svg>