<?xml version="1.0" encoding="UTF-8"?>
<svg width="883px" height="180px" viewBox="0 0 883 180" version="1.1" xmlns="http://www.w3.org/2000/svg" xmlns:xlink="http://www.w3.org/1999/xlink">
    <!-- Generator: Sketch 51 (57462) - http://www.bohemiancoding.com/sketch -->
    <title>hill image</title>
    <desc>Created with Sketch.</desc>
    <defs>
        <polygon id="path-1" points="0.04 174 882.99 174 882.99 0.940956655 0.04 0.940956655 0.04 174"></polygon>
        <polygon id="path-3" points="0.04 174 882.99 174 882.99 0.940956655 0.04 0.940956655 0.04 174"></polygon>
        <polygon id="path-5" points="0 179.607 883 179.607 883 0 0 0"></polygon>
    </defs>
    <g id="Page-1" stroke="none" stroke-width="1" fill="none" fill-rule="evenodd">
        <g id="Desktop-home" transform="translate(-279.000000, -622.000000)">
            <g id="slider" transform="translate(0.000000, 111.000000)">
                <g id="hill-image" transform="translate(279.000000, 511.000000)">
                    <path d="M157.6899,56.4775 L192.8399,21.3275 C193.9089,20.2555 195.6439,20.2525 196.7149,21.3225 C196.7169,21.3235 196.7179,21.3255 196.7199,21.3275 L231.5899,56.1975 C232.6619,57.2655 232.6639,59.0005 231.5949,60.0725 C231.0829,60.5855 230.3859,60.8755 229.6599,60.8765 L159.6599,61.1575 C158.1469,61.1765 156.9049,59.9655 156.8849,58.4525 C156.8759,57.7115 157.1659,56.9995 157.6899,56.4775 Z" id="Fill-1" fill="#EDEDED"></path>
                    <path d="M852.54,153.897 C847.72,153.897 736.84,202.107 608.29,75.157 C538.48,6.227 470.1,-1.113 422.18,6.577 C392.73,11.297 365.84,25.677 344.54,46.507 C327.41,63.327 285.95,86.247 188.81,79.987 C39.37,70.347 0,177.207 0,177.207 L883,177.207 C883,177.207 857.33,153.897 852.54,153.897" id="Fill-3"></path>
                    <g id="Group-7" transform="translate(0.000000, 5.607000)">
                        <mask id="mask-2" fill="white">
                            <use xlink:href="#path-1"></use>
                        </mask>
                        <g id="Clip-6"></g>
                        <path d="M0.04,174.0004 C0.04,174.0004 39.41,67.1404 188.85,76.7794 C285.99,83.0694 327.46,60.1204 344.54,43.3104 C365.8,22.4394 392.68,8.1004 422.1,3.3804 C470.02,-4.3106 538.41,3.0294 608.21,71.9604 C736.76,198.9104 847.64,150.6994 852.46,150.6994 C857.28,150.6994 882.99,174.0004 882.99,174.0004 L0.04,174.0004 Z" id="Fill-5" fill="#F2F2F2" mask="url(#mask-2)"></path>
                    </g>
                    <g id="Group-10" transform="translate(0.000000, 5.607000)">
                        <mask id="mask-4" fill="white">
                            <use xlink:href="#path-3"></use>
                        </mask>
                        <g id="Clip-9"></g>
                        <path d="M0.04,174.0004 C0.04,174.0004 39.41,67.1404 188.85,76.7794 C285.99,83.0694 327.46,60.1204 344.54,43.3104 C365.8,22.4394 392.68,8.1004 422.1,3.3804 C470.02,-4.3106 538.41,3.0294 608.21,71.9604 C736.76,198.9104 847.64,150.6994 852.46,150.6994 C857.28,150.6994 882.99,174.0004 882.99,174.0004 L0.04,174.0004 Z" id="Fill-8" fill="#EDEDED" mask="url(#mask-4)"></path>
                    </g>
                    <mask id="mask-6" fill="white">
                        <use xlink:href="#path-5"></use>
                    </mask>
                    <g id="Clip-12"></g>
                    <polygon id="Fill-11" fill="#1DBE71" mask="url(#mask-6)" points="161.02 105.107 223.92 105.107 223.92 58.377 161.02 58.377"></polygon>
                    <path d="M155.54,56.4775 L190.69,21.3275 C191.759,20.2555 193.494,20.2525 194.565,21.3225 C194.566,21.3235 194.568,21.3255 194.57,21.3275 L229.44,56.1975 C230.512,57.2655 230.514,59.0005 229.445,60.0725 C228.932,60.5855 228.236,60.8755 227.51,60.8765 L157.51,61.1575 C155.997,61.1765 154.754,59.9655 154.735,58.4525 C154.726,57.7115 155.016,56.9995 155.54,56.4775" id="Fill-13" fill="#1DBE71" mask="url(#mask-6)"></path>
                    <path d="M191.6601,84.0273 L192.9201,84.0273 C196.8411,84.0273 200.0201,87.2063 200.0201,91.1273 L200.0201,105.1273 L184.5601,105.1273 L184.5601,91.1273 C184.5601,87.2063 187.7391,84.0273 191.6601,84.0273" id="Fill-14" fill="#FFFFFF" mask="url(#mask-6)"></path>
                    <path d="M192.6401,26.0468 C194.7771,26.0468 196.5101,27.7788 196.5101,29.9168 C196.5101,32.0548 194.7771,33.7868 192.6401,33.7868 C190.5031,33.7868 188.7701,32.0548 188.7701,29.9168 C188.7701,27.7788 190.5031,26.0468 192.6401,26.0468" id="Fill-15" fill="#FFFFFF" mask="url(#mask-6)"></path>
                    <polygon id="Fill-16" fill="#FFFFFF" mask="url(#mask-6)" points="165.94 75.587 180.7 75.587 180.7 64.347 165.94 64.347"></polygon>
                    <polygon id="Fill-17" fill="#1DBE71" mask="url(#mask-6)" points="172.61 75.587 174.02 75.587 174.02 64.347 172.61 64.347"></polygon>
                    <polygon id="Fill-18" fill="#FFFFFF" mask="url(#mask-6)" points="205.29 75.587 220.05 75.587 220.05 64.347 205.29 64.347"></polygon>
                    <polygon id="Fill-19" fill="#1DBE71" mask="url(#mask-6)" points="211.97 75.587 213.38 75.587 213.38 64.347 211.97 64.347"></polygon>
                    <path d="M452.54,8.897 L452.54,8.897 C452.41,8.867 452.54,8.897 452.54,8.897" id="Fill-20" mask="url(#mask-6)"></path>
                    <path d="M454.49,16.287 C454.648,16.419 454.823,16.529 455.01,16.617 C455.005,16.681 455.005,16.744 455.01,16.807 L455.01,17.677 L454.84,17.757 C454.71,17.327 454.6,16.827 454.48,16.287 L454.49,16.287 Z M453.99,37.937 L454.11,37.937 C454.161,37.918 454.196,37.871 454.2,37.817 C454.208,37.777 454.208,37.736 454.2,37.697 L454.2,37.597 C454.101,37.357 453.87,37.037 453.74,36.757 L453.68,36.607 C453.674,36.541 453.674,36.474 453.68,36.407 L453.68,36.317 L455.84,29.227 L455.89,29.057 C455.89,29.057 458.64,30.237 459.35,32.597 C459.759,33.742 459.78,34.989 459.41,36.147 L459.36,36.267 L459.41,36.267 L459.41,37.567 L462.41,37.567 C462.62,37.467 462.34,37.207 462.06,36.947 L461.99,36.877 L461.81,36.686 C461.759,36.629 461.716,36.565 461.68,36.497 L461.63,36.377 L461.63,36.307 L461.54,36.307 L461.54,36.197 C462.303,32.662 461.139,28.988 458.48,26.537 C459.203,24.379 459.203,22.045 458.48,19.887 C458.76,19.686 464.21,15.747 464.17,10.647 C464.186,10.374 464.186,10.1 464.17,9.827 C464.17,9.827 464.64,9.436 464.17,8.727 L464.17,8.667 L464.12,8.667 L463.79,8.667 C463.574,8.688 463.366,8.757 463.18,8.867 C463.18,8.867 462.87,9.867 463.18,10.127 L463.1,10.127 C463.1,10.127 459.87,17.127 457.71,18.127 L457.56,18.037 L457.56,17.127 C457.562,17.087 457.562,17.047 457.56,17.007 C457.561,16.971 457.561,16.934 457.56,16.897 C457.803,16.771 458.022,16.605 458.21,16.407 C458.282,16.331 458.349,16.251 458.41,16.167 L458.49,16.047 L458.57,15.907 L458.63,15.777 C458.673,15.683 458.71,15.586 458.74,15.487 L458.74,15.367 L458.74,15.217 L458.74,15.097 L458.74,14.937 C458.74,14.65 458.689,14.366 458.59,14.097 C458.59,14.023 458.56,13.95 458.5,13.877 L458.45,13.768 L458.38,13.647 C458.434,13.581 458.498,13.523 458.57,13.477 C458.708,13.399 458.862,13.352 459.02,13.337 L459.41,13.337 L459.49,13.337 C459.547,13.314 459.601,13.284 459.65,13.247 C459.727,13.184 459.814,13.136 459.91,13.107 L459.32,13.107 L459.229,13.107 L459.15,13.107 L459.06,13.107 L458.979,13.107 L458.899,13.107 L458.82,13.107 L458.74,13.107 L458.66,13.107 L458.5,13.037 C458.583,13.07 458.671,13.091 458.76,13.097 L459.1,13.097 L459.16,13.097 L459.22,13.047 L459.22,12.967 L459.11,12.967 L459.04,12.967 C458.904,12.985 458.766,12.985 458.63,12.967 L458.34,12.967 L458.21,12.967 L458.09,12.917 C458.433,13.041 458.81,12.864 458.935,12.522 C459.06,12.18 458.883,11.802 458.54,11.677 L458.65,11.607 C458.765,11.508 458.837,11.368 458.85,11.217 C458.864,11.154 458.864,11.09 458.85,11.027 L458.78,11.087 L458.72,11.087 C458.53,11.221 458.301,11.284 458.07,11.267 L457.99,11.267 C457.786,11.215 457.589,11.141 457.4,11.047 L457.229,10.987 L457.18,10.987 L457.04,10.987 L456.96,10.987 L456.85,10.987 L456.32,10.987 C455.573,11.013 454.861,11.311 454.32,11.827 C454.195,11.95 454.081,12.084 453.979,12.227 C453.907,11.494 454.043,10.757 454.37,10.097 L454.31,10.097 L454.13,10.097 L454.04,10.268 C454.087,10.025 454.179,9.795 454.31,9.587 L454.25,9.587 C454.525,9.279 454.525,8.814 454.25,8.507 C453.78,7.797 452.91,8.347 452.91,8.347 C452.84,8.578 452.793,8.816 452.769,9.058 L452.63,8.997 C452.47,9.537 450.689,15.737 453.63,19.697 C453.626,19.78 453.626,19.864 453.63,19.947 L453.63,26.627 L451.63,35.787 L451.24,37.518 L454.05,37.977 L453.99,37.937 Z" id="Fill-21" mask="url(#mask-6)"></path>
                    <path d="M464.2001,10.6074 C464.2001,10.6074 464.7201,10.1674 464.2001,9.3864 C463.6791,8.6074 462.7201,9.2164 462.7201,9.2164 C462.7201,9.2164 462.3701,10.3464 462.7201,10.6074 C463.0701,10.8674 464.2001,10.6074 464.2001,10.6074" id="Fill-23" fill="#CA7070" mask="url(#mask-6)"></path>
                    <path d="M458.8203,39.7675 L461.2193,39.7675 C461.2023,39.9965 461.2863,40.2235 461.4503,40.3865 C461.7703,40.7565 462.4503,41.2065 462.1203,41.3865 L458.8203,41.3865 L458.8203,39.7675 Z" id="Fill-24" fill="#00695C" mask="url(#mask-6)"></path>
                    <path d="M461.2704,40.3867 C461.1064,40.2237 461.0224,39.9967 461.0404,39.7677 L461.2094,39.7677 C461.1924,39.9967 461.2764,40.2237 461.4404,40.3867 C461.7594,40.7567 462.4404,41.2067 462.1104,41.3867 L461.9404,41.3867 C462.2404,41.2067 461.5894,40.7567 461.2704,40.3867" id="Fill-25" fill="#FFFFFF" mask="url(#mask-6)"></path>
                    <path d="M450.2597,39.2773 L452.5397,39.6763 C452.4787,39.9443 452.5137,40.2233 452.6397,40.4663 C452.8897,40.9773 453.4407,41.6363 453.1107,41.7773 L449.8607,41.2473 L450.2597,39.2773 Z" id="Fill-26" fill="#00695C" mask="url(#mask-6)"></path>
                    <path d="M451.3603,9.5468 C451.3603,9.5468 448.7903,17.6568 453.0993,22.1478 L454.3493,21.1478 C454.3493,21.1478 451.7993,12.2968 453.2303,10.2168 C450.7103,9.4268 451.3603,9.5468 451.3603,9.5468" id="Fill-27" fill="#00695C" mask="url(#mask-6)"></path>
                    <path d="M453.1396,10.2568 C453.1396,10.2568 453.6606,9.8178 453.1396,9.0368 C452.6196,8.2568 451.6606,8.8668 451.6606,8.8668 C451.6606,8.8668 451.3096,9.9968 451.6606,10.2568 C452.0096,10.5178 453.1396,10.2568 453.1396,10.2568" id="Fill-28" fill="#CA7070" mask="url(#mask-6)"></path>
                    <path d="M452.4404,40.4267 C452.3134,40.1837 452.2784,39.9047 452.3394,39.6367 L450.2594,39.2967 L452.5404,39.6767 C452.4784,39.9447 452.5134,40.2237 452.6394,40.4667 C452.8894,40.9777 453.4404,41.6367 453.1104,41.7777 L452.9694,41.7777 C453.1904,41.5367 452.6794,40.9167 452.4404,40.4267" id="Fill-29" fill="#FFFFFF" mask="url(#mask-6)"></path>
                    <path d="M455.3798,20.7167 L455.1798,20.7167 C454.5618,20.7167 454.0598,20.2157 454.0598,19.5967 L454.0598,18.2167 C454.0598,17.5987 454.5618,17.0967 455.1798,17.0967 L455.3798,17.0967 C455.9988,17.0967 456.4998,17.5987 456.4998,18.2167 L456.4998,19.5967 C456.4998,20.2157 455.9988,20.7167 455.3798,20.7167" id="Fill-30" fill="#CA7070" mask="url(#mask-6)"></path>
                    <path d="M454.1699,21.6767 C454.1699,21.6767 451.6499,12.9377 453.0209,10.7867 L453.2199,10.7867 L453.2799,10.7867 C451.8499,12.8667 454.3999,21.7167 454.3999,21.7167 L453.1499,22.7167 L453.0399,22.5967 L454.1699,21.6767 Z" id="Fill-31" fill="#FFFFFF" mask="url(#mask-6)"></path>
                    <path d="M455.2304,12.9667 C456.7214,12.9667 457.9294,14.1757 457.9294,15.6667 C457.9294,17.1577 456.7214,18.3667 455.2304,18.3667 C453.7394,18.3667 452.5304,17.1577 452.5304,15.6667 C452.5304,14.1757 453.7394,12.9667 455.2304,12.9667" id="Fill-32" fill="#CA7070" mask="url(#mask-6)"></path>
                    <path d="M456.1904,19.497 L456.1904,18.317 C456.1994,18.23 456.1994,18.143 456.1904,18.057 C457.5174,17.378 458.0444,15.752 457.3654,14.424 C456.9274,13.568 456.0694,13.01 455.1104,12.957 L455.2594,12.957 C456.7514,12.955 457.9614,14.163 457.9624,15.654 C457.9634,16.666 457.3994,17.594 456.5004,18.057 C456.5094,18.143 456.5094,18.23 456.5004,18.317 L456.5004,19.497 C456.5004,20.171 455.9544,20.717 455.2804,20.717 L455.1294,20.717 C455.7414,20.637 456.1954,20.113 456.1904,19.497" id="Fill-33" fill="#FFFFFF" mask="url(#mask-6)"></path>
                    <path d="M452.4902,29.1269 C452.4902,29.1269 457.7002,29.7169 457.8892,29.1269 C458.7062,26.7249 458.7062,24.1199 457.8892,21.7169 C457.8892,20.2259 456.6812,19.0179 455.1902,19.0179 C453.6992,19.0179 452.4902,20.2259 452.4902,21.7169 L452.4902,29.1269 Z" id="Fill-34" fill="#00695C" mask="url(#mask-6)"></path>
                    <path d="M452.4902,29.1269 L450.1392,39.9269 L452.4902,39.9269 L454.9292,31.9269 C454.9292,31.9269 457.9292,33.2369 458.7602,35.8469 C459.2622,37.1639 459.2622,38.6199 458.7602,39.9379 L461.2902,39.9379 L461.2902,39.8169 C462.1402,35.8979 460.8372,31.8239 457.8702,29.1269" id="Fill-35" fill="#263238" mask="url(#mask-6)"></path>
                    <path d="M457.54,29.1269 C458.356,26.7249 458.356,24.1199 457.54,21.7169 C457.538,20.2939 456.431,19.1169 455.01,19.0269 L455.18,19.0269 C456.671,19.0269 457.88,20.2359 457.88,21.7279 C458.696,24.1299 458.696,26.7339 457.88,29.1369 C457.81,29.3469 457.1,29.4069 456.21,29.3979 C456.98,29.3769 457.54,29.3069 457.54,29.1269" id="Fill-36" fill="#FFFFFF" mask="url(#mask-6)"></path>
                    <path d="M457.9296,21.6767 C457.9296,21.6767 464.9296,16.7967 464.2006,10.6167 L462.6396,10.6167 C462.6396,10.6167 458.8896,18.7167 456.4996,19.5067 C454.1106,20.2967 457.9296,21.6767 457.9296,21.6767" id="Fill-37" fill="#00695C" mask="url(#mask-6)"></path>
                    <g id="Group-40" mask="url(#mask-6)" fill="#FFFFFF">
                        <g transform="translate(452.000000, 28.607000)">
                            <polygon id="Fill-38" points="2.8798 3.4896 0.4898 11.3596 0.1398 11.3596 2.5798 3.3596"></polygon>
                            <path d="M5.54,0.5599 L5.89,0.5599 C8.856,3.2569 10.16,7.3309 9.31,11.2499 L9.31,11.3709 L8.96,11.3709 L8.96,11.2499 C9.811,7.3309 8.507,3.2569 5.54,0.5599" id="Fill-39"></path>
                        </g>
                    </g>
                    <path d="M463.9404,10.6767 L464.2004,10.6767 C464.9004,16.8667 457.9294,21.7377 457.9294,21.7377 L457.7594,21.6667 C458.5404,21.0967 464.5894,16.4667 463.9404,10.6767" id="Fill-41" fill="#FFFFFF" mask="url(#mask-6)"></path>
                    <path d="M457.3798,14.457 C457.2308,14.806 457.1268,15.172 457.0698,15.547 C456.9298,16.321 456.4828,17.007 455.8298,17.447 C455.4578,17.649 455.0438,17.763 454.6198,17.777 C453.9738,17.857 453.3238,17.661 452.8298,17.237 C452.5468,16.93 452.3568,16.549 452.2798,16.138 C452.0068,14.895 452.3838,13.6 453.2798,12.697 C454.1948,11.812 455.5348,11.529 456.7308,11.967 C456.9408,12.07 457.1618,12.151 457.3898,12.207 C457.7558,12.278 458.1338,12.158 458.3898,11.888 C458.4888,12.203 458.3138,12.54 457.9978,12.64 C457.9378,12.659 457.8738,12.668 457.8098,12.667 C458.2138,12.861 458.6778,12.887 459.0998,12.737 C458.8558,13.254 458.2528,13.494 457.7198,13.287 C458.2108,13.506 458.7428,13.615 459.2798,13.607 C459.1698,13.607 458.9498,13.817 458.8098,13.857 C458.6368,13.872 458.4628,13.872 458.2898,13.857 C457.8948,13.859 457.5378,14.095 457.3798,14.457" id="Fill-42" fill="#263238" mask="url(#mask-6)"></path>
                    <g id="Group-48" mask="url(#mask-6)" fill="#FFFFFF">
                        <g transform="translate(454.000000, 11.607000)">
                            <path d="M3.7402,1.0697 C3.9402,1.1657 4.1582,1.2197 4.3802,1.2297 C4.0912,1.2507 3.8022,1.1947 3.5402,1.0697 C3.8772,1.0707 4.1512,0.7987 4.1522,0.4627 C4.1522,0.4447 4.1512,0.4267 4.1502,0.4107 L4.2902,0.2907 C4.3892,0.6057 4.2142,0.9427 3.8982,1.0427 C3.8462,1.0587 3.7942,1.0677 3.7402,1.0697" id="Fill-43"></path>
                            <path d="M3.2001,0.6 C2.9711,0.543 2.7511,0.463 2.5401,0.36 C2.2211,0.234 1.8831,0.163 1.5401,0.15 C1.9531,0.136 2.3651,0.207 2.7501,0.36 C2.9611,0.463 3.1821,0.543 3.4101,0.6 L3.5001,0.6 C3.4001,0.616 3.3001,0.616 3.2001,0.6" id="Fill-44"></path>
                            <path d="M4.54,2.2504 C4.68,2.2504 4.9,2.0004 5.01,2.0004 C4.473,2.0084 3.94,1.8984 3.45,1.6804 C3.561,1.7244 3.68,1.7474 3.8,1.7504 C4.243,1.9184 4.716,2.0004 5.19,1.9894 C5.08,1.9894 4.86,2.1994 4.72,2.2394 C4.601,2.2594 4.479,2.2594 4.36,2.2394 L4.54,2.2504 Z" id="Fill-45"></path>
                            <path d="M0.4404,6.1703 C0.8634,6.1543 1.2774,6.0423 1.6504,5.8403 C2.3024,5.3993 2.7504,4.7143 2.8894,3.9403 C2.9464,3.5653 3.0504,3.1983 3.2004,2.8503 C3.3604,2.5223 3.6854,2.3083 4.0494,2.2903 L4.2194,2.2903 C3.8554,2.3083 3.5304,2.5223 3.3704,2.8503 C3.2204,3.1983 3.1164,3.5653 3.0594,3.9403 C2.9194,4.7143 2.4724,5.3993 1.8204,5.8403 C1.4474,6.0423 1.0334,6.1543 0.6104,6.1703 L0.4404,6.1703 Z" id="Fill-46"></path>
                            <path d="M3.9501,1.7601 C4.3241,1.7351 4.6601,1.5201 4.8401,1.1901 L5.0401,1.1301 C4.8451,1.5481 4.4091,1.7991 3.9501,1.7601" id="Fill-47"></path>
                        </g>
                    </g>
                    <path d="M464.0302,10.6074 C464.0302,10.6074 464.5502,10.1674 464.0302,9.3864 C463.8912,9.1564 463.6482,9.0064 463.3802,8.9874 C463.7082,8.9504 464.0272,9.1054 464.2002,9.3864 C464.7192,10.1674 464.2002,10.6074 464.2002,10.6074 C463.8712,10.6794 463.5362,10.7154 463.2002,10.7164 C463.4792,10.7034 463.7572,10.6664 464.0302,10.6074" id="Fill-49" fill="#FFFFFF" mask="url(#mask-6)"></path>
                    <path d="M475.9501,0.8974 C475.9501,0.8974 473.3801,9.0064 477.6901,13.4974 L478.9401,12.4974 C478.9401,12.4974 476.3891,3.6474 477.8201,1.5674 C475.3001,0.7774 475.9501,0.8974 475.9501,0.8974" id="Fill-50" fill="#FF5252" mask="url(#mask-6)"></path>
                    <path d="M477.7304,1.6171 C477.7304,1.6171 478.2504,1.1771 477.7304,0.3971 C477.2094,-0.3829 476.2504,0.2271 476.2504,0.2271 C476.2504,0.2271 475.9004,1.3571 476.2504,1.6171 C476.5994,1.8771 477.7304,1.6171 477.7304,1.6171" id="Fill-51" fill="#F6B9AD" mask="url(#mask-6)"></path>
                    <path d="M479.9697,12.0771 L479.7707,12.0771 C479.1517,12.0771 478.6507,11.5751 478.6507,10.9571 L478.6507,9.5771 C478.6507,8.9581 479.1517,8.4571 479.7707,8.4571 L479.9697,8.4571 C480.5887,8.4571 481.0897,8.9581 481.0897,9.5771 L481.0897,10.9571 C481.0897,11.5751 480.5887,12.0771 479.9697,12.0771" id="Fill-52" fill="#F6B9AD" mask="url(#mask-6)"></path>
                    <path d="M478.7597,13.0673 C478.7597,13.0673 476.2397,4.3273 477.6107,2.1763 L477.8097,2.1763 L477.8697,2.1763 C476.4407,4.2563 478.9897,13.1073 478.9897,13.1073 L477.7397,14.1073 L477.6297,13.9873 L478.7597,13.0673 Z" id="Fill-53" fill="#FFFFFF" mask="url(#mask-6)"></path>
                    <path d="M479.8203,4.3173 C481.3113,4.3173 482.5203,5.5263 482.5203,7.0163 C482.5203,8.5073 481.3113,9.7163 479.8203,9.7163 C478.3293,9.7163 477.1203,8.5073 477.1203,7.0163 C477.1203,5.5263 478.3293,4.3173 479.8203,4.3173" id="Fill-54" fill="#F6B9AD" mask="url(#mask-6)"></path>
                    <path d="M480.7802,10.8466 L480.7802,9.6766 C480.7892,9.5906 480.7892,9.5036 480.7802,9.4166 C482.1072,8.7386 482.6342,7.1116 481.9552,5.7846 C481.5172,4.9286 480.6592,4.3696 479.7002,4.3176 L479.8492,4.3176 C481.3412,4.3156 482.5512,5.5226 482.5522,7.0136 C482.5532,8.0266 481.9892,8.9526 481.0902,9.4166 C481.0992,9.5036 481.0992,9.5906 481.0902,9.6766 L481.0902,10.8576 C481.0902,11.5316 480.5442,12.0766 479.8702,12.0766 L479.7192,12.0766 C480.3352,11.9956 480.7902,11.4666 480.7802,10.8466" id="Fill-55" fill="#FFFFFF" mask="url(#mask-6)"></path>
                    <path d="M477.08,20.4775 C477.08,20.4775 482.29,21.0675 482.48,20.4775 C483.1,18.5775 481.48,16.4775 482.27,15.4775 C482.767,14.7575 482.847,13.8305 482.48,13.0375 C482.48,11.5455 481.271,10.3365 479.78,10.3365 C478.289,10.3365 477.08,11.5455 477.08,13.0375 L477.08,20.4775 Z" id="Fill-56" fill="#FF5252" mask="url(#mask-6)"></path>
                    <path d="M482.2802,15.5175 C482.7762,14.7975 482.8562,13.8705 482.4902,13.0775 C482.4902,11.5855 481.2812,10.3765 479.7902,10.3765 L479.6202,10.3765 C481.0412,10.4665 482.1472,11.6435 482.1502,13.0675 C482.5162,13.8605 482.4362,14.7885 481.9402,15.5065 C481.0992,16.5065 482.7702,18.5675 482.1502,20.5065 C482.0902,20.6875 481.5502,20.7565 480.8402,20.7675 C481.7192,20.7675 482.4292,20.7165 482.5002,20.5065 C483.1102,18.5775 481.4402,16.5175 482.2802,15.5175" id="Fill-57" fill="#FFFFFF" mask="url(#mask-6)"></path>
                    <path d="M481.3701,20.3066 L481.3701,20.3066 C483.3791,23.4846 484.1611,27.2856 483.5701,30.9966 L483.5701,31.1176 L481.9501,31.1176 C482.2751,29.7736 482.2751,28.3706 481.9501,27.0276 C481.6421,25.4616 480.7661,24.0656 479.4901,23.1076 L477.9201,31.1076 L476.4101,31.1076 L477.9201,20.3066 L481.3701,20.3066 Z" id="Fill-58" fill="#F6B9AD" mask="url(#mask-6)"></path>
                    <path d="M490.54,4.7675 C490.54,4.7675 491.17,4.5065 490.9,3.5965 C490.63,2.6875 489.54,2.9965 489.54,2.9965 C489.54,2.9965 488.87,3.9965 489.13,4.3275 C489.39,4.6575 490.54,4.7675 490.54,4.7675" id="Fill-59" fill="#F6B9AD" mask="url(#mask-6)"></path>
                    <path d="M481.29,13.5068 C481.29,13.5068 489.38,10.8868 490.53,4.7678 L489.03,4.3068 C489.03,4.3068 483.03,10.9568 480.55,11.0068 C478.07,11.0568 481.29,13.5068 481.29,13.5068" id="Fill-60" fill="#FF5252" mask="url(#mask-6)"></path>
                    <path d="M490.2499,4.7773 L490.4999,4.8573 C489.3499,10.9773 481.2599,13.5963 481.2599,13.5963 L481.1199,13.4873 C482.0699,13.1473 489.1799,10.4873 490.2499,4.7773" id="Fill-61" fill="#FFFFFF" mask="url(#mask-6)"></path>
                    <g id="Group-64" mask="url(#mask-6)" fill="#FFFFFF">
                        <g transform="translate(477.000000, 19.607000)">
                            <path d="M2.1201,3.4896 L0.5501,11.4896 L0.9001,11.4896 L2.4201,3.7106 C2.3231,3.6326 2.2241,3.5576 2.1201,3.4896" id="Fill-62"></path>
                            <path d="M4.3701,0.6996 L4.0201,0.6996 C6.0281,3.8776 6.8101,7.6786 6.2201,11.3896 L6.2201,11.5106 L6.5401,11.5106 L6.5401,11.3896 C7.1401,7.6806 6.3681,3.8816 4.3701,0.6996" id="Fill-63"></path>
                        </g>
                    </g>
                    <path d="M490.3603,4.6767 C490.3603,4.6767 490.9903,4.4167 490.7193,3.5067 C490.6553,3.2477 490.4683,3.0347 490.2193,2.9377 C490.5453,2.9957 490.8053,3.2387 490.8893,3.5567 C491.1603,4.4567 490.5303,4.7277 490.5303,4.7277 C490.1903,4.6997 489.8553,4.6367 489.5303,4.5367 C489.8023,4.6067 490.0803,4.6537 490.3603,4.6767" id="Fill-65" fill="#FFFFFF" mask="url(#mask-6)"></path>
                    <path d="M477.08,20.1874 L473.8,27.1074 C475.717,27.2024 477.625,27.4324 479.51,27.7964 C483.14,28.4874 484.87,26.7964 484.87,26.7964 L482.54,20.1874 L477.08,20.1874 Z" id="Fill-66" fill="#263238" mask="url(#mask-6)"></path>
                    <path d="M477.9501,31.0771 C477.9501,31.0771 479.6791,31.4271 479.3301,32.0771 L476.2201,32.0771 L476.3891,31.0771 L477.9501,31.0771 Z" id="Fill-67" fill="#FF5252" mask="url(#mask-6)"></path>
                    <path d="M483.4804,31.0771 C483.4804,31.0771 485.2094,31.4271 484.8604,32.0771 L481.7504,32.0771 L481.9194,31.0771 L483.4804,31.0771 Z" id="Fill-68" fill="#FF5252" mask="url(#mask-6)"></path>
                    <path d="M482.2704,4.7968 C482.2704,4.7968 478.1204,10.6768 480.0204,13.0968 L472.5894,12.9268 C472.5894,12.9268 474.6604,-0.3922 482.2704,4.7968" id="Fill-69" fill="#FCCC63" mask="url(#mask-6)"></path>
                    <path d="M482.2704,4.7968 C481.4174,4.1658 480.4204,3.7608 479.3704,3.6168 C480.0834,3.8458 480.7584,4.1838 481.3704,4.6168 C481.3704,4.6168 477.2194,10.4968 479.1204,12.9168 L472.5804,12.7668 L472.5804,12.9168 L480.0094,13.0868 C478.1204,10.6768 482.2704,4.7968 482.2704,4.7968" id="Fill-70" fill="#FFFFFF" mask="url(#mask-6)"></path>
                    <path d="M482.54,20.1874 L482.02,20.1874 L484.36,26.7564 C483.392,27.5524 482.173,27.9774 480.92,27.9574 C482.359,28.0984 483.796,27.6664 484.92,26.7564 L482.54,20.1874 Z" id="Fill-71" fill="#FFFFFF" mask="url(#mask-6)"></path>
                    <path d="M477.9501,31.0771 L477.5991,31.0771 C477.5991,31.0771 479.3301,31.4271 478.9801,32.0771 L479.3301,32.0771 C479.6791,31.4171 477.9501,31.0771 477.9501,31.0771" id="Fill-72" fill="#FFFFFF" mask="url(#mask-6)"></path>
                    <path d="M483.4804,31.0771 L483.1294,31.0771 C483.1294,31.0771 484.8604,31.4271 484.5094,32.0771 L484.8604,32.0771 C485.2094,31.4171 483.4804,31.0771 483.4804,31.0771" id="Fill-73" fill="#FFFFFF" mask="url(#mask-6)"></path>
                </g>
            </g>
        </g>
    </g>
</svg>