<?xml version="1.0" encoding="UTF-8"?>
<svg width="293px" height="293px" viewBox="0 0 293 293" version="1.1" xmlns="http://www.w3.org/2000/svg" xmlns:xlink="http://www.w3.org/1999/xlink">
    <!-- Generator: Sketch 51 (57462) - http://www.bohemiancoding.com/sketch -->
    <title>illustration-2</title>
    <desc>Created with Sketch.</desc>
    <defs></defs>
    <g id="Page-1" stroke="none" stroke-width="1" fill="none" fill-rule="evenodd">
        <g id="Desktop-home" transform="translate(-264.000000, -1203.000000)">
            <g id="section-one" transform="translate(0.000000, 775.000000)">
                <g id="section-two" transform="translate(264.000000, 428.000000)">
                    <g id="illustration-2">
                        <circle id="Oval" stroke-opacity="0" stroke="#979797" fill="#FCCC63" cx="146.5" cy="146.5" r="146.5"></circle>
                        <g id="img-sec-2" transform="translate(41.000000, 73.000000)">
                            <polygon id="Fill-1" points="0 87.0795742 150.011596 87.0795742 150.011596 0 0 0"></polygon>
                            <polygon id="Fill-3" fill="#F5F5F5" points="2.02031431 5.89086167 148.282381 5.89086167 148.282381 1.43700667 2.02031431 1.43700667"></polygon>
                            <polygon id="Fill-4" fill="#FFFFFF" points="2.02031431 84.7812292 148.282381 84.7812292 148.282381 5.89086167 2.02031431 5.89086167"></polygon>
                            <path d="M4.09689329,3.59251667 C4.09689329,4.29046042 4.66518816,4.85617358 5.36599826,4.85617358 L5.36599826,4.85617358 C6.06637389,4.85617358 6.63445152,4.29046042 6.63445152,3.59251667 L6.63445152,3.59251667 C6.63445152,2.89457292 6.06637389,2.32842692 5.36599826,2.32842692 L5.36599826,2.32842692 C4.66518816,2.32842692 4.09689329,2.89457292 4.09689329,3.59251667" id="Fill-5"></path>
                            <path d="M6.98203248,3.59251667 C6.98203248,4.29046042 7.5501101,4.85617358 8.25070297,4.85617358 L8.25070297,4.85617358 C8.95151308,4.85617358 9.51937346,4.29046042 9.51937346,3.59251667 L9.51937346,3.59251667 C9.51937346,2.89457292 8.95151308,2.32842692 8.25070297,2.32842692 L8.25070297,2.32842692 C7.5501101,2.32842692 6.98203248,2.89457292 6.98203248,3.59251667" id="Fill-7"></path>
                            <path d="M9.86695442,3.59251667 C9.86695442,4.29046042 10.435032,4.85617358 11.1356249,4.85617358 L11.1356249,4.85617358 C11.8362178,4.85617358 12.4042954,4.29046042 12.4042954,3.59251667 L12.4042954,3.59251667 C12.4042954,2.89457292 11.8362178,2.32842692 11.1356249,2.32842692 L11.1356249,2.32842692 C10.435032,2.32842692 9.86695442,2.89457292 9.86695442,3.59251667" id="Fill-9"></path>
                            <g id="Group-17" transform="translate(4.127524, 2.423001)">
                                <path d="M1.23830061,0.134935792 C1.81180919,0.134935792 2.27669872,0.598067458 2.27669872,1.16940746 C2.27669872,1.74074746 1.81180919,2.20387912 1.23830061,2.20387912 C0.664792028,2.20387912 0.199902498,1.74074746 0.199902498,1.16940746 C0.199902498,0.598067458 0.664792028,0.134935792 1.23830061,0.134935792" id="Fill-11" fill="#FF5252"></path>
                                <path d="M4.09495988,0.134935792 C4.66846845,0.134935792 5.13335798,0.598067458 5.13335798,1.16940746 C5.13335798,1.74074746 4.66846845,2.20387912 4.09495988,2.20387912 C3.5214513,2.20387912 3.05656177,1.74074746 3.05656177,1.16940746 C3.05656177,0.598067458 3.5214513,0.134935792 4.09495988,0.134935792" id="Fill-13" fill="#FFFF00"></path>
                                <path d="M6.94949021,0.134935792 C7.52299879,0.134935792 7.98788832,0.598067458 7.98788832,1.16940746 C7.98788832,1.74074746 7.52299879,2.20387912 6.94949021,2.20387912 C6.37598163,2.20387912 5.9110921,1.74074746 5.9110921,1.16940746 C5.9110921,0.598067458 6.37598163,0.134935792 6.94949021,0.134935792" id="Fill-15" fill="#69F0AE"></path>
                            </g>
                            <polygon id="Fill-18" points="33.5545967 54.5237986 119.613469 54.5237986 119.613469 12.1041842 33.5545967 12.1041842"></polygon>
                            <g id="Group-31" transform="translate(34.323620, 12.811001)">
                                <polygon id="Fill-20" fill="#1DBE71" points="0.128170478 40.375559 84.3948288 40.375559 84.3948288 0.186984 0.128170478 0.186984"></polygon>
                                <path d="M4.60983589,5.54535246 L4.60983589,34.5689916" id="Stroke-22" stroke="#FFFFFF" stroke-linecap="round" stroke-linejoin="round" stroke-dasharray="0,4"></path>
                                <path d="M4.38601548,36.579589 L78.7922365,36.579589" id="Stroke-23" stroke="#FFFFFF" stroke-linecap="round" stroke-linejoin="round"></path>
                                <path d="M12.9017924,7.10794572 L70.7238397,7.10794572" id="Stroke-24" stroke="#FFFFFF" stroke-linecap="round" stroke-linejoin="round"></path>
                                <path d="M12.9017924,13.8060632 L70.7238397,13.8060632" id="Stroke-25" stroke="#FFFFFF" stroke-linecap="round" stroke-linejoin="round"></path>
                                <path d="M12.9017924,20.5041157 L70.7238397,20.5041157" id="Stroke-26" stroke="#FFFFFF" stroke-linecap="round" stroke-linejoin="round"></path>
                                <path d="M12.9017924,27.2022332 L70.7238397,27.2022332" id="Stroke-27" stroke="#FFFFFF" stroke-linecap="round" stroke-linejoin="round"></path>
                                <path d="M16.7121703,36.579589 L16.7121703,20.504159 C16.7121703,20.504159 15.3674665,13.5788257 29.03826,13.8060632 C41.4707964,12.0487599 41.4707964,6.93699819 41.4707964,6.93699819 C41.4707964,6.93699819 52.9062099,5.69693069 53.4862356,17.8184282 C53.5692206,19.8425733 54.5806812,21.7167416 56.2299528,22.9020557 C60.9418471,26.2110665 65.0324405,19.6168507 66.9135052,13.8125557 L66.9135052,36.579589 L16.7121703,36.579589 Z" id="Fill-28" fill="#FFFFFF"></path>
                                <path d="M27.9172246,11.7976732 C28.9071786,11.7976732 29.7094389,12.5971164 29.7094389,13.5831107 C29.7094389,14.5691051 28.9071786,15.3685482 27.9172246,15.3685482 C26.9274878,15.3685482 26.1250102,14.5691051 26.1250102,13.5831107 C26.1250102,12.5971164 26.9274878,11.7976732 27.9172246,11.7976732" id="Fill-29" fill="#1DBE71"></path>
                                <path d="M27.9172246,11.7976732 C28.9071786,11.7976732 29.7094389,12.5971164 29.7094389,13.5831107 C29.7094389,14.5691051 28.9071786,15.3685482 27.9172246,15.3685482 C26.9274878,15.3685482 26.1250102,14.5691051 26.1250102,13.5831107 C26.1250102,12.5971164 26.9274878,11.7976732 27.9172246,11.7976732" id="Fill-30" fill="#FFFFFF"></path>
                            </g>
                            <path d="M48.7938492,33.5380908 C48.7938492,34.7716658 49.7977065,35.7715108 51.0359637,35.7715108 L51.0359637,35.7715108 C52.2737863,35.7715108 53.2776436,34.7716658 53.2776436,33.5380908 L53.2776436,33.5380908 C53.2776436,32.3045158 52.2737863,31.3044544 51.0359637,31.3044544 L51.0359637,31.3044544 C49.7977065,31.3044544 48.7938492,32.3045158 48.7938492,33.5380908" id="Fill-32"></path>
                            <path d="M59.9989903,26.3941767 C59.9989903,27.6275352 61.0028476,28.6275967 62.2408875,28.6275967 L62.2408875,28.6275967 C63.4789274,28.6275967 64.4827847,27.6275352 64.4827847,26.3941767 L64.4827847,26.3941767 C64.4827847,25.1606017 63.4789274,24.1607567 62.2408875,24.1607567 L62.2408875,24.1607567 C61.0028476,24.1607567 59.9989903,25.1606017 59.9989903,26.3941767" id="Fill-34"></path>
                            <path d="M73.6285086,20.0899592 C73.6285086,21.3235342 74.6323659,22.3233792 75.8704058,22.3233792 L75.8704058,22.3233792 C77.108663,22.3233792 78.112303,21.3235342 78.112303,20.0899592 L78.112303,20.0899592 C78.112303,18.8566006 77.108663,17.8565392 75.8704058,17.8565392 L75.8704058,17.8565392 C74.6323659,17.8565392 73.6285086,18.8566006 73.6285086,20.0899592" id="Fill-36"></path>
                            <path d="M85.9980459,33.5380908 C85.9980459,34.7716658 87.001686,35.7715108 88.2399431,35.7715108 L88.2399431,35.7715108 C89.477983,35.7715108 90.4818403,34.7716658 90.4818403,33.5380908 L90.4818403,33.5380908 C90.4818403,32.3045158 89.477983,31.3044544 88.2399431,31.3044544 L88.2399431,31.3044544 C87.001686,31.3044544 85.9980459,32.3045158 85.9980459,33.5380908" id="Fill-38"></path>
                            <path d="M98.9956186,27.2858133 C98.9956186,28.5191719 99.9990414,29.5190169 101.237081,29.5190169 L101.237081,29.5190169 C102.475556,29.5190169 103.478978,28.5191719 103.478978,27.2858133 L103.478978,27.2858133 C103.478978,26.0522383 102.475556,25.0523933 101.237081,25.0523933 L101.237081,25.0523933 C99.9990414,25.0523933 98.9956186,26.0522383 98.9956186,27.2858133" id="Fill-40"></path>
                            <g id="Group-58" transform="translate(49.095810, 18.221418)">
                                <path d="M1.93997966,13.531214 C2.92971644,13.531214 3.73219398,14.3304408 3.73219398,15.3166515 C3.73219398,16.3026459 2.92971644,17.102089 1.93997966,17.102089 C0.950025651,17.102089 0.147765354,16.3026459 0.147765354,15.3166515 C0.147765354,14.3304408 0.950025651,13.531214 1.93997966,13.531214" id="Fill-42" fill="#1DBE71"></path>
                                <path d="M1.93997966,13.531214 C2.92971644,13.531214 3.73219398,14.3304408 3.73219398,15.3166515 C3.73219398,16.3026459 2.92971644,17.102089 1.93997966,17.102089 C0.950025651,17.102089 0.147765354,16.3026459 0.147765354,15.3166515 C0.147765354,14.3304408 0.950025651,13.531214 1.93997966,13.531214" id="Fill-44" fill="#000000"></path>
                                <path d="M26.7745956,0.0830607167 C27.7643324,0.0830607167 28.5668099,0.882287467 28.5668099,1.86849822 C28.5668099,2.85449255 27.7643324,3.65393572 26.7745956,3.65393572 C25.7848588,3.65393572 24.9823813,2.85449255 24.9823813,1.86849822 C24.9823813,0.882287467 25.7848588,0.0830607167 26.7745956,0.0830607167" id="Fill-46" fill="#1DBE71"></path>
                                <path d="M26.7745956,0.0830607167 C27.7643324,0.0830607167 28.5668099,0.882287467 28.5668099,1.86849822 C28.5668099,2.85449255 27.7643324,3.65393572 26.7745956,3.65393572 C25.7848588,3.65393572 24.9823813,2.85449255 24.9823813,1.86849822 C24.9823813,0.882287467 25.7848588,0.0830607167 26.7745956,0.0830607167" id="Fill-48" fill="#000000"></path>
                                <path d="M39.1441112,13.531214 C40.133848,13.531214 40.9363255,14.3304408 40.9363255,15.3166515 C40.9363255,16.3026459 40.133848,17.102089 39.1441112,17.102089 C38.1543744,17.102089 37.3518969,16.3026459 37.3518969,15.3166515 C37.3518969,14.3304408 38.1543744,13.531214 39.1441112,13.531214" id="Fill-50" fill="#1DBE71"></path>
                                <path d="M39.1441112,13.531214 C40.133848,13.531214 40.9363255,14.3304408 40.9363255,15.3166515 C40.9363255,16.3026459 40.133848,17.102089 39.1441112,17.102089 C38.1543744,17.102089 37.3518969,16.3026459 37.3518969,15.3166515 C37.3518969,14.3304408 38.1543744,13.531214 39.1441112,13.531214" id="Fill-52" fill="#FFFFFF"></path>
                                <path d="M52.1413797,7.27891488 C53.1313337,7.27891488 53.933594,8.07814163 53.933594,9.06435238 C53.933594,10.0503467 53.1313337,10.8497899 52.1413797,10.8497899 C51.1516429,10.8497899 50.3491654,10.0503467 50.3491654,9.06435238 C50.3491654,8.07814163 51.1516429,7.27891488 52.1413797,7.27891488" id="Fill-54" fill="#1DBE71"></path>
                                <path d="M52.1413797,7.27891488 C53.1313337,7.27891488 53.933594,8.07814163 53.933594,9.06435238 C53.933594,10.0503467 53.1313337,10.8497899 52.1413797,10.8497899 C51.1516429,10.8497899 50.3491654,10.0503467 50.3491654,9.06435238 C50.3491654,8.07814163 51.1516429,7.27891488 52.1413797,7.27891488" id="Fill-56" fill="#000000"></path>
                            </g>
                            <polygon id="Fill-59" points="33.94997 62.2195753 119.220486 62.2195753 119.220486 59.4667553 33.94997 59.4667553"></polygon>
                            <polygon id="Fill-61" points="33.94997 66.1542467 119.220486 66.1542467 119.220486 63.4012103 33.94997 63.4012103"></polygon>
                            <polygon id="Fill-63" points="33.94997 70.0863211 119.220486 70.0863211 119.220486 67.3335011 33.94997 67.3335011"></polygon>
                            <polygon id="Fill-65" points="33.94997 74.0188283 119.220486 74.0188283 119.220486 71.2660083 33.94997 71.2660083"></polygon>
                            <g id="Group-107" transform="translate(34.323620, 32.504918)">
                                <polygon id="Fill-67" fill="#E0E0E0" points="0.0217238098 29.3231598 84.5012754 29.3231598 84.5012754 27.3559323 0.0217238098 27.3559323"></polygon>
                                <polygon id="Fill-69" fill="#E0E0E0" points="0.0217238098 33.2554507 84.5012754 33.2554507 84.5012754 31.2882232 0.0217238098 31.2882232"></polygon>
                                <polygon id="Fill-70" fill="#E0E0E0" points="0.0217238098 37.1899057 84.5012754 37.1899057 84.5012754 35.2226782 0.0217238098 35.2226782"></polygon>
                                <polygon id="Fill-71" fill="#E0E0E0" points="0.0217238098 41.1221965 84.5012754 41.1221965 84.5012754 39.154969 0.0217238098 39.154969"></polygon>
                                <path d="M119.572172,49.6056866 L118.236158,72.2168999 L126.73234,73.1842824 L129.15889,54.3214057 L130.857692,73.1842824 L139.59718,73.1842824 L139.249599,50.6444866 C139.238737,49.9372369 138.656105,49.372173 137.946171,49.3806132 L119.572172,49.6056866 Z" id="Fill-72" fill="#263238"></path>
                                <g id="Group-75" transform="translate(118.177525, 49.343000)" fill="#FFFFFF">
                                    <path d="M2.36563599,0.747524808 L20.7441963,0.531108142 L20.7939439,0.531108142 C20.5480303,0.219468142 20.170905,0.0396258917 19.7729248,0.0441706417 L1.3945817,0.260587308 L0.0585673913,22.8718006 L1.0513455,22.9843373 L2.36563599,0.747524808 Z" id="Fill-73"></path>
                                    <polygon id="Fill-74" points="11.1052333 5.09951248 11.4071943 9.70053082 12.6823819 23.8390316 13.6099886 23.8390316"></polygon>
                                </g>
                                <path d="M130.616535,75.1189825 C130.616535,75.1189825 127.460283,79.9561114 145.910098,104.620902 C145.910098,104.620902 147.36581,106.071111 145.182567,108.973042 C145.182567,108.973042 142.7558,108.973042 143.240241,110.907807 L147.609117,110.907807 C147.609117,110.907807 151.736641,106.071111 151.493334,104.863289 C151.24981,103.655684 138.871583,78.2635166 138.871583,78.2635166 L138.871583,75.1189825 L130.616535,75.1189825 Z" id="Fill-76" fill="#263238"></path>
                                <path d="M146.029622,108.85187 C148.215037,105.949722 146.75737,104.499731 146.75737,104.499731 C128.30951,79.8282308 131.463808,74.9978108 131.463808,74.9978108 L130.494926,74.9978108 C130.494926,74.9978108 127.338456,79.8347233 145.788488,104.499731 C145.788488,104.499731 147.243983,105.949722 145.06074,108.85187 C145.06074,108.85187 142.634191,108.85187 143.118849,110.786635 L144.089686,110.786635 C143.594383,108.85187 146.029622,108.85187 146.029622,108.85187" id="Fill-77" fill="#FFFFFF"></path>
                                <path d="M118.236071,75.1189825 L116.052828,107.763272 C116.052828,107.763272 114.597333,109.213264 109.985585,107.763272 C105.870879,106.464772 112.957185,114.216817 119.187791,113.331673 C120.467541,113.140577 121.472267,112.13965 121.664088,110.864523 L126.856296,74.7534547 L118.236071,75.1189825 Z" id="Fill-78" fill="#263238"></path>
                                <path d="M110.954359,108.611583 C115.566323,110.061574 117.021819,108.611583 117.021819,108.611583 L119.328887,74.9893056 L118.242697,74.9893056 L116.052937,107.6442 C116.052937,107.6442 114.597442,109.094192 109.985477,107.6442 C108.030334,107.031741 108.60167,108.444942 110.393884,110.00747 C109.444554,108.897253 109.427175,108.12919 110.954359,108.611583" id="Fill-79" fill="#FFFFFF"></path>
                                <path d="M127.155998,20.9499341 L133.592763,20.9499341 C135.032617,20.9499341 136.19962,22.1127408 136.19962,23.5469341 L136.19962,28.0267591 C136.19962,29.4611687 135.032617,30.6237591 133.592763,30.6237591 L127.155998,30.6237591 C125.716144,30.6237591 124.549141,29.4611687 124.549141,28.0267591 L124.549141,23.5469341 C124.549141,22.1127408 125.716144,20.9499341 127.155998,20.9499341" id="Fill-80" fill="#FFFFFF"></path>
                                <path d="M130.373185,8.13369579 C133.591133,8.13369579 136.199511,10.7324271 136.199511,13.9379908 C136.199511,17.1435545 133.591133,19.7422858 130.373185,19.7422858 C127.155455,19.7422858 124.547077,17.1435545 124.547077,13.9379908 C124.547077,10.7324271 127.155455,8.13369579 130.373185,8.13369579" id="Fill-81" fill="#FFBEC5"></path>
                                <path d="M129.473907,17.2016407 L131.266121,17.2016407 C132.246299,17.2016407 133.040956,17.9932929 133.040956,18.9697649 L133.040956,21.4715415 C133.040956,22.7862728 131.971058,23.8521249 130.651337,23.8521249 L130.090863,23.8521249 C128.771141,23.8521249 127.701244,22.7862728 127.701244,21.4715415 L127.701244,18.9697649 C127.701244,17.9941585 128.494597,17.2027228 129.473907,17.2016407" id="Fill-82" fill="#FFBEC5"></path>
                                <polygon id="Fill-83" fill="#FFFFFF" points="91.535532 24.8194424 106.950747 25.1808583 107.191664 30.7427666 91.535532 28.4465858"></polygon>
                                <path d="M77.9428573,24.8194424 L91.5354451,24.8194424 L91.5354451,28.4465858 L85.2246783,27.7215899 C85.2246783,27.7215899 84.0103173,31.8335066 80.6127135,27.7215899 L81.3404611,26.5118208 L77.9428573,25.7868249 C77.9428573,25.7868249 77.2151096,25.3042158 77.9428573,24.8194424" id="Fill-84" fill="#FFBEC5"></path>
                                <polygon id="Fill-85" fill="#FFFFFF" points="144.695845 46.0996933 151.493225 62.3006449 156.10519 60.3658799 151.493225 43.1975458"></polygon>
                                <path d="M151.493247,62.3028524 L154.163103,67.3821515 L154.890851,73.4264526 L157.560707,76.0862135 C157.560707,76.0862135 158.288238,76.0862135 158.288238,75.6038207 C158.288238,75.6038207 159.016202,75.361434 159.016202,74.8788249 C159.016202,74.8788249 159.987257,74.6364382 159.987257,74.153829 C160.380458,74.1622693 160.706315,73.8512785 160.714787,73.4595644 C160.715004,73.4491764 160.715004,73.4390048 160.714787,73.4288332 L158.529589,70.284299 L157.801624,64.9647774 L156.10304,60.3702515 L151.493247,62.3028524 Z" id="Fill-86" fill="#FFBEC5"></path>
                                <path d="M118.236071,72.2167917 C118.236071,72.2167917 116.050656,73.90917 117.992982,75.1189392 L126.732253,75.1189392 C126.732253,75.1189392 127.703307,74.3941598 126.732253,73.1843906 L118.236071,72.2167917 Z" id="Fill-87" fill="#1DBE71"></path>
                                <path d="M130.859864,73.1843257 C130.859864,73.1843257 129.161062,73.6667184 130.616557,75.1188742 L139.59718,75.1188742 C139.59718,75.1188742 140.568234,74.6364815 139.59718,73.1843257 L130.859864,73.1843257 Z" id="Fill-88" fill="#1DBE71"></path>
                                <path d="M118.236071,72.2167917 C118.236071,72.2167917 116.050656,73.90917 117.992982,75.1189392 L126.732253,75.1189392 C126.732253,75.1189392 127.703307,74.3941598 126.732253,73.1843906 L118.236071,72.2167917 Z" id="Fill-89" fill="#263238"></path>
                                <path d="M130.859864,73.1843257 C130.859864,73.1843257 129.161062,73.6667184 130.616557,75.1188742 L139.59718,75.1188742 C139.59718,75.1188742 140.568234,74.6364815 139.59718,73.1843257 L130.859864,73.1843257 Z" id="Fill-90" fill="#263238"></path>
                                <polygon id="Fill-91" fill="#000000" points="92.1350439 28.4466291 92.1350439 24.8303066 91.6571201 24.8194857 91.6571201 28.4466291 107.072336 30.7428099 107.067991 30.6713924"></polygon>
                                <polygon id="Fill-92" fill="#000000" points="151.493247 43.1975241 151.449799 43.2148375 155.861688 59.6408625 151.24994 61.5756275 144.747787 46.0758658 144.695867 46.0996716 151.493247 62.3008397 156.104995 60.3658583"></polygon>
                                <path d="M125.639567,13.8168407 C125.639784,10.8476041 127.889285,8.35708107 130.853282,8.04500824 C130.651902,8.02444866 130.44987,8.01427707 130.247187,8.01470991 C127.029891,7.95281474 124.371766,10.5009046 124.309636,13.705819 C124.247505,16.9109498 126.80505,19.5592406 130.022346,19.6211357 C130.09751,19.6226507 130.17224,19.6226507 130.247187,19.6211357 C130.44987,19.6213522 130.651902,19.6111806 130.853282,19.5908374 C127.888633,19.2785482 125.638698,16.7869431 125.639567,13.8168407" id="Fill-93" fill="#FFFFFF"></path>
                                <g id="Group-96" transform="translate(77.336763, 24.671500)" fill="#FFFFFF">
                                    <path d="M1.21221031,0.758302358 L14.0770505,0.758302358 L14.0770505,0.033306525 L0.484462683,0.033306525 C-0.243284946,0.515915692 0.484462683,1.00068902 0.484462683,1.00068902 L0.918938879,1.09158402 C0.978462118,0.951995275 1.0809985,0.835130275 1.21221031,0.758302358" id="Fill-94"></path>
                                    <path d="M3.88206654,3.65393572 L4.60981417,2.44416655 L3.5779332,2.22774988 L3.14345701,2.93110405 C3.44129044,3.29771388 3.76975444,3.63878655 4.12537321,3.95042655 C4.05368464,3.85520322 3.96874454,3.75997988 3.88206654,3.65393572" id="Fill-95"></path>
                                </g>
                                <path d="M127.134361,26.5594324 C128.893989,27.5614416 131.016188,27.6956199 133.040847,27.5960683 C133.519206,27.6049413 133.993219,27.5049568 134.426827,27.3039058 C135.63706,26.6373424 134.880854,22.6660966 134.622558,21.3134924 C138.815253,21.7679674 143.44677,26.2456283 145.990628,29.5957583 C147.320125,31.3465691 148.260766,33.3592441 149.116467,35.3827399 C150.081221,37.6594433 150.956473,39.9902508 151.43027,42.416498 C151.511082,42.6898323 151.505217,42.9817783 151.412891,43.2516499 C151.269514,43.5654541 150.921933,43.7277666 150.604765,43.8662733 L145.301983,46.1408124 C145.084745,46.2360358 144.813197,46.3312591 144.600087,46.2122299 C144.466485,46.1176558 144.365035,45.9849924 144.309205,45.8313366 L138.539361,33.8331966 C137.59872,34.3764024 137.27699,35.6164699 137.453171,36.6877324 C137.629133,37.7589949 138.161367,38.7263774 138.587153,39.7175658 C139.967919,42.9850246 140.112165,46.6405185 138.993389,50.0060141 C132.603547,49.9858873 126.215444,49.8538732 119.828426,49.6099716 C119.417846,49.5948224 118.959474,49.5601958 118.675109,49.2680333 C118.498495,49.0585419 118.382924,48.8046852 118.340563,48.5343808 C117.777481,46.0579248 118.325573,43.4598428 119.841678,41.4186008 C120.21511,40.9230066 120.649586,40.4555466 120.871386,39.8755499 C121.153796,39.1375691 121.056039,38.3151858 120.951765,37.5295933 L120.428221,33.5302133 C120.404976,33.1871928 120.317429,32.851747 120.16949,32.5411891 C119.689394,31.6755224 118.505446,31.5954483 117.515058,31.5846274 C114.284727,31.5456724 111.058742,31.6235824 107.919651,30.8617958 C107.513416,30.7644083 107.07025,30.8747808 106.85084,30.5198574 C106.709418,30.2328889 106.654239,29.9110773 106.692039,29.5935941 C106.722669,28.3470341 106.692039,26.4209258 106.72028,25.1743658 C109.792243,25.1613808 112.924817,25.1007841 115.996346,25.0877991 C117.710572,25.0877991 119.948125,25.6461541 121.038443,24.3281766 C122.739634,22.2743824 126.623634,21.0646133 126.623634,21.0646133 C126.623634,21.0646133 125.637373,25.7089149 127.134361,26.5594324" id="Fill-97" fill="#FFFFFF"></path>
                                <path d="M130.527777,27.5398649 L130.027777,49.3633215" id="Stroke-98" stroke="#FFFFFF" stroke-width="2"></path>
                                <g id="Group-103" transform="translate(106.663906, 20.992417)" fill="#FFFFFF">
                                    <path d="M27.8346958,6.60155236 C28.3130541,6.61020902 28.7870676,6.51044094 29.2206749,6.30938986 C30.3437958,5.69043819 29.7724596,2.22127902 29.4772331,0.645765692 C28.9821474,0.486266608 28.4729413,0.376110525 27.9565664,0.316812358 C28.2148625,1.66941652 28.9708511,5.64066236 27.7608348,6.30722569 C27.3270104,6.50806036 26.8529968,6.60804486 26.3748558,6.59938819 L26.0859291,6.61020902 C26.672472,6.64050736 27.2568425,6.63401486 27.8346958,6.60155236" id="Fill-99"></path>
                                    <path d="M15.8193435,3.34229572 C16.8164664,2.13685488 18.565233,1.22357655 19.8404207,0.673878217 C19.8988577,0.30813405 19.9468674,0.0787323833 19.9468674,0.0787323833 C19.9468674,0.0787323833 16.0626502,1.28850155 14.3616758,3.34229572 C13.8989587,3.90065072 13.2298654,4.11923155 12.4825663,4.18848488 C13.7773054,4.26423072 15.069872,4.24908155 15.8193435,3.34229572" id="Fill-100"></path>
                                    <path d="M39.1028577,24.8367558 L33.3330138,12.8386158 C32.9065754,13.096368 32.5811527,13.4921941 32.4119243,13.9596541 L37.6430177,24.8413005 C37.6988479,24.9945235 37.8005153,25.1276198 37.9341167,25.2219774 C38.1513548,25.3410066 38.4100854,25.2457833 38.6357958,25.1505599 L39.1463053,24.9341433 L39.1028577,24.8367558 Z" id="Fill-101"></path>
                                    <path d="M14.6092621,28.6219482 C14.1986821,28.606799 13.7403097,28.5721724 13.4557278,28.2800099 C13.2791132,28.0703021 13.1635426,27.8166618 13.1211811,27.5463574 C12.5583172,25.0699014 13.1061917,22.4718194 14.6222964,20.4305774 C14.9959459,19.9349832 15.4304221,19.4675232 15.652005,18.8875265 C15.9344145,18.1495457 15.8366574,17.3271624 15.7323831,16.5415699 L15.2066669,12.544354 C15.1836396,12.2013336 15.0958754,11.8658878 14.9481535,11.5553299 C14.4680573,10.6896632 13.2841097,10.609589 12.293504,10.5987682 C9.06317346,10.5598132 5.8371877,10.6377232 2.69809718,9.87593653 C2.29186194,9.77854903 1.84869622,9.88892153 1.62928574,9.53399819 C1.48786373,9.24702969 1.43268526,8.92521811 1.47091916,8.60773486 C1.50111526,7.36117486 1.47091916,5.43506653 1.49894288,4.18850653 C4.22093625,4.17768569 6.98637724,4.13007403 9.71923251,4.10843236 L9.31951441,4.10843236 C6.2477677,4.12141736 3.11519433,4.18201403 0.0434476196,4.19499903 C0.013251524,5.44155903 0.0434476196,7.36766736 0.0152066669,8.61422736 C-0.0228100003,8.93171061 0.0321512385,9.25330578 0.173790479,9.54049069 C0.391028577,9.89324986 0.838539059,9.78287736 1.24260192,9.88242903 C4.38169244,10.6420515 7.6076782,10.5641415 10.8380087,10.6052607 C11.8264421,10.6182457 13.0103897,10.7026482 13.4926583,11.5618224 C13.6403802,11.8723803 13.7281444,12.2078261 13.7511716,12.5508465 L14.2747154,16.5502265 C14.3768173,17.3336549 14.4767469,18.1560382 14.1943373,18.8961832 C13.9770992,19.4761799 13.542623,19.9436399 13.1646288,20.439234 C11.6485241,22.480476 11.1006496,25.0785581 11.6635135,27.5547976 C11.7058749,27.8253184 11.8214456,28.0789588 11.9980602,28.2886665 C12.2869868,28.580829 12.7410145,28.6154557 13.1515945,28.6306049 C19.5370911,28.87429 25.9251946,29.0063042 32.3163395,29.0266474 L32.3163395,29.0156101 C26.4133286,28.9753566 20.5109695,28.8439917 14.6092621,28.6219482" id="Fill-102"></path>
                                </g>
                                <path d="M131.789708,13.1438282 C132.076462,13.232559 132.389285,13.206589 132.67604,13.2953199 C133.814367,13.6545715 133.651439,15.2603832 133.675335,16.4485107 C133.710093,18.244769 134.702871,19.8765507 135.802096,21.2984082 C138.667032,24.9896109 142.421992,27.8995494 146.71831,29.7581357 C147.587263,30.1368649 148.584385,30.5567132 148.934139,31.4440215 C149.041454,31.8112806 149.125743,32.1850322 149.186135,32.5628957 C149.685783,34.5106457 152.729288,35.1598957 153.980363,33.5713974 C154.780016,32.5564032 154.771327,31.1107399 155.451282,30.0156715 C155.803207,29.450824 156.320234,28.9985132 156.637402,28.412024 C157.599767,26.6092732 156.294166,24.503539 155.80538,22.5189982 C155.297043,20.4543832 155.71414,18.2880524 155.651141,16.1628407 C155.518408,11.7565974 153.233281,7.53863653 149.850884,4.69275736 C146.468486,1.84687819 142.07376,0.338454025 137.655137,0.072261525 C134.348773,-0.126841808 130.744576,0.474796525 128.439897,2.84455903 C126.979839,4.34649069 126.219506,6.36998653 125.137878,8.15975236 C124.055815,9.94951819 122.385471,11.6548815 120.289123,11.739284 C120.328226,12.5227124 121.520646,12.453459 122.244266,12.1245057 C123.764933,11.427644 127.338499,8.89124069 129.039474,9.39549153 C130.740448,9.89974236 130.147171,12.531369 131.789708,13.1438282" id="Fill-104" fill="#5D4037"></path>
                                <path d="M155.134092,73.4267556 L154.406128,67.3820217 L151.736489,62.3029389 L156.137732,60.4566884 L156.105147,60.3679575 L151.493182,62.3029389 L154.163038,67.3820217 L154.890786,73.4267556 L157.560642,76.0863 C157.633634,76.0843523 157.706192,76.0765613 157.77788,76.0627106 L155.134092,73.4267556 Z" id="Fill-105" fill="#FFFFFF"></path>
                                <polygon id="Fill-106" fill="#FFFFFF" points="152.220908 61.8180141 145.484354 45.762278 144.69578 46.0996716 151.49316 62.3006233 156.105125 60.3658583 156.061677 60.20571"></polygon>
                            </g>
                        </g>
                    </g>
                </g>
            </g>
        </g>
    </g>
</svg>