<?xml version="1.0" encoding="UTF-8"?>
<svg width="293px" height="293px" viewBox="0 0 293 293" version="1.1" xmlns="http://www.w3.org/2000/svg" xmlns:xlink="http://www.w3.org/1999/xlink">
    <!-- Generator: Sketch 51 (57462) - http://www.bohemiancoding.com/sketch -->
    <title>illustration-1</title>
    <desc>Created with Sketch.</desc>
    <defs>
        <polygon id="path-1" points="0.0207929204 17.9184149 0.0207929204 56.048951 107.445664 54.3030303 107.445664 0.123543124"></polygon>
        <path d="M24.1127788,0.0561771562 C24.216977,0.0319347319 24.3204743,0.0205128205 24.4221027,0.0205128205 C25.104531,0.0205128205 25.6900035,0.537762238 25.6453805,1.19137529 C25.5332389,2.83449883 24.8837522,5.41491841 22.0288142,6.27738928 L21.3113416,18.009324 L16.3726726,23.6037296 L17.7181381,24.5200466 L14.8447434,30.3846154 C15.0339823,30.5871795 15.2185487,30.8041958 15.4007788,31.0375291 L19.1551858,31.0375291 L18.7626903,32.993007 L20.592,32.993007 C20.592,32.993007 22.7483894,28.4337995 23.4656283,27.1282051 C24.1828673,25.8228438 23.4656283,23.2167832 23.4656283,23.2167832 C26.3392566,19.3053613 29.212885,23.2167832 29.212885,23.2167832 L27.0588319,24.5200466 L27.0588319,27.1305361 L22.0311504,38.2097902 L18.5757876,37.3543124 C20.4004248,42.4662005 21.3139115,47.986014 21.3139115,47.986014 C21.3139115,47.986014 21.3139115,55.1538462 23.4679646,57.1095571 C23.4679646,57.1095571 23.0775717,57.3776224 22.4540177,57.7715618 C23.4609558,60.6177156 23.4609558,64.9298368 23.4609558,64.9298368 L22.7460531,65.7018648 L26.2831858,79.0699301 L28.4909735,80.5713287 C28.4909735,80.5713287 37.8290973,79.9184149 34.2382301,84.5032634 L22.0311504,84.5032634 L22.0311504,79.2892774 L22.687646,79.1701632 C21.2321416,77.2937063 19.4705841,72.9347319 18.4823363,70.3123543 L12.6579823,76.5874126 L12.6860177,79.9370629 C12.6860177,79.9370629 18.4332743,80.5850816 16.9964602,83.8484848 L11.2492035,83.8484848 L5.50171327,77.3216783 L9.81238938,74.0582751 L10.2957664,74.4848485 L10.5296283,74.0582751 C10.5296283,67.5407925 16.9941239,62.9787879 16.9941239,62.9787879 L16.6460177,60.4449883 C15.6928142,60.6599068 14.8050265,60.6829837 14.1228319,60.3729604 L11.9713487,51.2470862 C11.9713487,51.2470862 9.09748673,51.2470862 7.66067257,47.9834499 L7.66067257,44.0722611 L8.3779115,36.9018648 C6.22385841,35.5988345 6.22385841,28.4289044 7.66067257,28.4289044 C7.71440708,27.7529138 7.81720354,27.0675991 7.92700885,26.4613054 C7.83823009,26.4731935 7.7492177,26.4731935 7.65856991,26.4731935 L7.65856991,27.1258741 C6.69391858,27.1818182 5.72856637,27.0389277 4.8220885,26.7062937 C1.61437168,25.5920746 0.00537345133,22.9132867 0,20.2340326 L0,20.2095571 C0.00443893805,17.5328671 1.61016637,14.8601399 4.8220885,13.7529138 C8.30548673,12.5501166 11.9713487,13.4384615 11.9713487,13.4384615 L10.3497345,15.2773893 C12.2631504,16.0745921 13.6695929,17.6876457 14.0293805,19.6293706 L16.9987965,15.3846154 L19.1575221,4.32167832 C19.1575221,4.32167832 17.9122832,1.4988345 24.1127788,0.0561771562 Z" id="path-3"></path>
    </defs>
    <g id="Page-1" stroke="none" stroke-width="1" fill="none" fill-rule="evenodd">
        <g id="Desktop-home" transform="translate(-822.000000, -830.000000)">
            <g id="section-one" transform="translate(0.000000, 775.000000)">
                <g transform="translate(261.000000, 55.000000)" id="illustration-1">
                    <g transform="translate(561.000000, 0.000000)">
                        <circle id="Oval" stroke-opacity="0" stroke="#979797" fill="#FCCC63" cx="146.5" cy="146.5" r="146.5"></circle>
                        <g id="img-sec-1" transform="translate(66.000000, 39.000000)">
                            <g id="Group-3" transform="translate(24.530973, 98.135198)">
                                <mask id="mask-2" fill="white">
                                    <use xlink:href="#path-1"></use>
                                </mask>
                                <g id="Clip-2"></g>
                                <polygon id="Fill-1" mask="url(#mask-2)" points="0.0207929204 17.9184149 0.0207929204 56.048951 107.445664 54.3030303 107.445664 0.123543124"></polygon>
                            </g>
                            <polygon id="Fill-4" fill="#1DBE71" points="25.7878704 116.354359 129.630985 99.0862937 129.630985 150.067646 25.7878704 153.35669"></polygon>
                            <polygon id="Fill-5" points="130.836531 48.9254079 56.2833982 70.1002331 56.2833982 92.0955711 130.836531 76.1445221"></polygon>
                            <polygon id="Fill-7" fill="#FFFFFF" points="128.806324 49.7482284 57.9305012 70.305338 57.9305012 90.8624476 128.806324 74.4172261"></polygon>
                            <g id="Group-16" transform="translate(35.044248, 60.839161)">
                                <path d="M34.4227497,16.8298834 C34.4227497,19.8858275 32.9392099,22.7249883 31.1264878,23.1678788 C29.3132984,23.6107692 27.8928382,21.5361772 27.8928382,18.5315152 C27.8928382,15.5268531 29.3319887,12.7040093 31.1264878,12.2098368 C32.9205196,11.7156643 34.4227497,13.7739394 34.4227497,16.8298834 Z" id="Stroke-8" stroke="#DBDBDB" stroke-width="2"></path>
                                <polygon id="Fill-10" fill="#DBDBDB" points="85.5218888 2.8881352 40.5019455 14.703986 40.5019455 12.1818415 85.5218888 0.0326573427"></polygon>
                                <polygon id="Fill-12" fill="#DBDBDB" points="85.5218888 8.64337995 40.5019455 20.4592308 40.5019455 17.9370862 85.5218888 5.7902331"></polygon>
                                <path d="M11.3472807,72.1864103 C11.3472807,66.3938695 8.73765239,62.0535431 5.57899752,62.4847786 C2.4834223,62.909021 0.0186435398,67.7717249 0.0186435398,73.3544755 C0.0186435398,78.936993 2.4834223,83.2915385 5.57899752,83.0770862 C8.74933381,82.8577389 11.3472807,77.9812821 11.3472807,72.1864103" id="Fill-14" fill="#FFFFFF"></path>
                            </g>
                            <polygon id="Fill-17" points="54.3466195 125.95338 54.3466195 129.801632 116.445027 122.932401 116.445027 118.340326"></polygon>
                            <polygon id="Fill-19" points="54.3466195 135.820513 54.3466195 139.668998 116.445027 132.799534 116.445027 128.207459"></polygon>
                            <polygon id="Fill-21" points="55.8698761 193.153846 130.058549 200 129.233841 171.710723 55.8698761 170.850816"></polygon>
                            <g id="Group-31" transform="translate(57.706195, 172.261072)">
                                <polygon id="Fill-23" fill="#FFFFFF" points="71.1001296 0.82974359 0.224306549 0.00713286713 0.224306549 19.7437296 71.1001296 25.4987413"></polygon>
                                <path d="M12.5855809,10.8717016 C12.5855809,13.9206527 11.1018074,16.288951 9.28908531,16.1630769 C7.47612956,16.0372028 6.05800566,13.5197203 6.05800566,10.5269464 C6.05800566,7.53393939 7.49715611,5.16564103 9.29118796,5.23324009 C11.0856871,5.30083916 12.5855809,7.82275058 12.5855809,10.8717016 Z" id="Stroke-25" stroke="#DBDBDB" stroke-width="2"></path>
                                <polygon id="Fill-27" fill="#DBDBDB" points="62.8599419 11.5197902 19.3046145 9.43820513 19.3046145 6.86477855 62.8599419 8.62025641"></polygon>
                                <polygon id="Fill-29" fill="#DBDBDB" points="62.8599419 17.2751515 19.3046145 15.1933333 19.3046145 12.6199068 62.8599419 14.3753846"></polygon>
                            </g>
                            <polygon id="Fill-32" points="130.836531 0 56.6945841 29.6433566 56.6945841 51.8041958 130.836531 27.1351981"></polygon>
                            <g id="Group-42" transform="translate(57.706195, 1.165501)">
                                <polygon id="Fill-34" fill="#FFFFFF" points="71.9249076 0.0675990676 0.224376637 29.6689977 0.224376637 48.5827506 71.9249076 24.7365967"></polygon>
                                <path d="M15.0573919,33.3333333 C15.0573919,36.3636364 13.5736184,39.3613054 11.7608963,40.030303 C9.94794053,40.6993007 8.52748035,38.8181818 8.52748035,35.8508159 C8.52748035,32.8834499 9.9666308,29.8997669 11.7608963,29.1771562 C13.5551618,28.4545455 15.0573919,30.3030303 15.0573919,33.3333333 Z" id="Stroke-36" stroke="#DBDBDB" stroke-width="2"></path>
                                <polygon id="Fill-38" fill="#DBDBDB" points="64.5072085 13.2237762 20.9423023 30.1421911 20.9423023 27.1958042 64.5072085 9.90675991"></polygon>
                                <polygon id="Fill-40" fill="#DBDBDB" points="64.5072085 20.6247086 20.9423023 37.5407925 20.9423023 34.5967366 64.5072085 17.3076923"></polygon>
                            </g>
                            <g id="Group-45" transform="translate(0.000000, 111.188811)">
                                <mask id="mask-4" fill="white">
                                    <use xlink:href="#path-3"></use>
                                </mask>
                                <g id="Clip-44"></g>
                                <path d="M24.1127788,0.0561771562 C17.9122832,1.4988345 19.1575221,4.32167832 19.1575221,4.32167832 L19.1575221,4.32167832 L16.9987965,15.3846154 L14.0293805,19.6293706 C13.6695929,17.6876457 12.2631504,16.0745921 10.3497345,15.2773893 L10.3497345,15.2773893 L11.9713487,13.4384615 C11.9713487,13.4384615 8.30548673,12.5501166 4.8220885,13.7529138 L4.8220885,13.7529138 C1.61016637,14.8601399 0.00443893805,17.5328671 0,20.2095571 L0,20.2095571 L0,20.2340326 C0.00537345133,22.9132867 1.61437168,25.5920746 4.8220885,26.7062937 L4.8220885,26.7062937 C5.72856637,27.0389277 6.69391858,27.1818182 7.65856991,27.1258741 L7.65856991,27.1258741 L7.65856991,26.4731935 C7.7492177,26.4731935 7.83823009,26.4731935 7.92700885,26.4613054 L7.92700885,26.4613054 C7.81720354,27.0675991 7.71440708,27.7529138 7.66067257,28.4289044 L7.66067257,28.4289044 C6.22385841,28.4289044 6.22385841,35.5988345 8.3779115,36.9018648 L8.3779115,36.9018648 L7.66067257,44.0722611 L7.66067257,47.9834499 C9.09748673,51.2470862 11.9713487,51.2470862 11.9713487,51.2470862 L11.9713487,51.2470862 L14.1228319,60.3729604 C14.8050265,60.6829837 15.6928142,60.6599068 16.6460177,60.4449883 L16.6460177,60.4449883 L16.9941239,62.9787879 C16.9941239,62.9787879 10.5296283,67.5407925 10.5296283,74.0582751 L10.5296283,74.0582751 L10.2957664,74.4848485 L9.81238938,74.0582751 L5.50171327,77.3216783 L11.2492035,83.8484848 L16.9964602,83.8484848 C18.4332743,80.5850816 12.6860177,79.9370629 12.6860177,79.9370629 L12.6860177,79.9370629 L12.6579823,76.5874126 L18.4823363,70.3123543 C19.4705841,72.9347319 21.2321416,77.2937063 22.687646,79.1701632 L22.687646,79.1701632 L22.0311504,79.2892774 L22.0311504,84.5032634 L34.2382301,84.5032634 C37.8290973,79.9184149 28.4909735,80.5713287 28.4909735,80.5713287 L28.4909735,80.5713287 L26.2831858,79.0699301 L22.7460531,65.7018648 L23.4609558,64.9298368 C23.4609558,64.9298368 23.4609558,60.6177156 22.4540177,57.7715618 L22.4540177,57.7715618 C23.0775717,57.3776224 23.4679646,57.1095571 23.4679646,57.1095571 L23.4679646,57.1095571 C21.3139115,55.1538462 21.3139115,47.986014 21.3139115,47.986014 L21.3139115,47.986014 C21.3139115,47.986014 20.4004248,42.4662005 18.5757876,37.3543124 L18.5757876,37.3543124 L22.0311504,38.2097902 L27.0588319,27.1305361 L27.0588319,24.5200466 L29.212885,23.2167832 C29.212885,23.2167832 26.3392566,19.3053613 23.4656283,23.2167832 L23.4656283,23.2167832 C23.4656283,23.2167832 24.1828673,25.8228438 23.4656283,27.1282051 L23.4656283,27.1282051 C22.7483894,28.4337995 20.592,32.993007 20.592,32.993007 L20.592,32.993007 L18.7626903,32.993007 L19.1551858,31.0375291 L15.4007788,31.0375291 C15.2185487,30.8041958 15.0339823,30.5871795 14.8447434,30.3846154 L14.8447434,30.3846154 L17.7181381,24.5200466 L16.3726726,23.6037296 L21.3113416,18.009324 L22.0288142,6.27738928 C24.8837522,5.41491841 25.5332389,2.83449883 25.6453805,1.19137529 L25.6453805,1.19137529 C25.6900035,0.537762238 25.104531,0.0205128205 24.4221027,0.0205128205 L24.4221027,0.0205128205 C24.3204743,0.0205128205 24.216977,0.0319347319 24.1127788,0.0561771562" id="Fill-43" mask="url(#mask-4)"></path>
                            </g>
                            <g id="Group-76" transform="translate(1.869027, 32.867133)">
                                <path d="M7.53680283,103.363566 C7.53680283,103.363566 6.11167009,109.335594 7.53680283,110.188741 L11.8122011,107.624639 L8.96193558,102.221608 L7.53680283,103.363566 Z" id="Fill-46" fill="#F6B9AD"></path>
                                <path d="M23.3021352,156.074499 L19.5267016,140.377529 L15.7582768,145.398508 C15.7582768,145.398508 18.9052503,155.445361 20.7929671,156.699441 L23.3021352,156.074499 Z" id="Fill-48" fill="#B98B82"></path>
                                <path d="M25.8206018,102.07697 C25.8206018,102.07697 23.3044248,98.3100699 20.7859115,102.07697 C20.7859115,102.07697 21.4143717,104.587459 20.7859115,105.843869 C20.1574513,107.10028 18.2697345,111.493986 18.2697345,111.493986 L12.6042478,111.493986 L12.6042478,114.634079 L19.5266549,116.517529 L23.9352212,105.843869 L23.9352212,103.331049 L25.8206018,102.07697 Z" id="Fill-50" fill="#F6B9AD"></path>
                                <polygon id="Fill-52" fill="#5989A1" points="17.0104779 109.610839 15.7512212 116.517599 10.716531 115.260956 10.716531 109.610839"></polygon>
                                <path d="M6.94107398,93.9136597 C10.0686563,93.9136597 12.6042244,96.4434965 12.6042244,99.5640093 C12.6042244,102.684755 10.0686563,105.214359 6.94107398,105.214359 C3.81349168,105.214359 1.27792354,102.684755 1.27792354,99.5640093 C1.27792354,96.4434965 3.81349168,93.9136597 6.94107398,93.9136597" id="Fill-54" fill="#F6B9AD"></path>
                                <path d="M5.68179398,98.9371562 L10.7164842,92.6574359 C10.7164842,92.6574359 7.50409487,91.801958 4.45290903,92.9602331 C-1.1845423,95.0977622 -1.17519717,103.279814 4.45290903,105.438322 C5.23953558,105.758368 6.08854088,105.89683 6.93637805,105.843916 L6.93637805,102.077016 L5.04866124,102.077016 L5.68179398,98.9371562 Z" id="Fill-56" fill="#000000"></path>
                                <path d="M19.5266782,85.7506061 L18.8982181,97.0510723 L13.8635278,103.331026 L10.7165543,101.447576 L15.1227844,94.5408159 L17.0105012,83.8671562 C17.0105012,83.8671562 15.919457,81.1468765 21.3536517,79.7575991 C21.9262747,79.6074825 22.5129154,79.9487413 22.663372,80.5205361 C22.6916411,80.6279953 22.7030888,80.7396503 22.6970145,80.8506061 C22.5965543,82.4335897 22.0288375,84.9184382 19.5266782,85.7506061" id="Fill-58" fill="#F6B9AD"></path>
                                <path d="M14.4919179,135.354289 L15.1203781,140.377599 C15.1203781,140.377599 9.45021876,144.771538 9.45021876,151.048928 L8.82175858,152.305338 L10.7094754,154.188788 L20.7788559,142.258718 C20.7788559,142.258718 20.7788559,135.351958 18.8911391,133.468508 L14.4919179,135.354289 Z" id="Fill-60" fill="#F6B9AD"></path>
                                <path d="M11.3193388,153.475571 L11.3450379,156.701678 C11.3450379,156.701678 16.3797281,157.328718 15.1204715,160.468578 L10.0881175,160.468578 L5.05342726,154.188858 L8.82886088,151.048998 L11.3193388,153.475571 Z" id="Fill-62" fill="#000000"></path>
                                <path d="M22.6735816,155.445315 L25.1897586,157.328765 C25.1897586,157.328765 33.3667497,156.701725 30.2244488,161.095431 L19.5266081,161.095431 L19.5266081,156.074452 L22.6735816,155.445315 Z" id="Fill-64" fill="#000000"></path>
                                <path d="M20.7859582,134.731935 C20.7859582,134.731935 15.1228078,139.128205 12.6089671,137.871795 L10.7212503,129.081585 C10.7212503,129.081585 8.20507327,129.081585 6.94581664,125.941725 L6.94581664,122.167832 L18.902914,125.934732 C18.902914,125.934732 18.8982414,132.841492 20.7859582,134.731935" id="Fill-66" fill="#000000"></path>
                                <path d="M15.7582768,103.331002 L10.7235865,99.5641026 C10.7235865,99.5641026 8.20740956,107.097902 6.94815292,107.097902 C5.68889628,107.097902 5.68889628,114.004662 7.5766131,115.25641 L6.94815292,122.16317 L18.9052503,125.93007 C18.9052503,125.93007 17.0175335,113.37296 13.2420998,108.97669 L15.7582768,103.331002 Z" id="Fill-68" fill="#FFFFFF"></path>
                                <polygon id="Fill-70" fill="#47E6B1" points="64.5865954 2.06055944 66.0257458 1.84144522 67.4646627 3.27501166 69.1236573 0.184102564 70.89456 0.184102564 67.4646627 4.48946387"></polygon>
                                <polygon id="Fill-72" fill="#1DBE71" points="33.7476573 100.547692 36.0395512 100.195711 38.331445 102.482657 40.9737812 97.5595804 43.793675 97.5595804 38.331445 104.417389"></polygon>
                                <polygon id="Fill-74" fill="#000000" points="33.7476573 100.547692 36.0395512 100.195711 38.331445 102.482657 40.9737812 97.5595804 43.793675 97.5595804 38.331445 104.417389"></polygon>
                            </g>
                        </g>
                    </g>
                </g>
            </g>
        </g>
    </g>
</svg>