<?xml version="1.0" encoding="UTF-8"?>
<svg width="448px" height="617px" viewBox="0 0 448 617" version="1.1" xmlns="http://www.w3.org/2000/svg" xmlns:xlink="http://www.w3.org/1999/xlink">
    <!-- Generator: Sketch 51 (57462) - http://www.bohemiancoding.com/sketch -->
    <title>pattern</title>
    <desc>Created with Sketch.</desc>
    <defs>
        <polygon id="path-1" points="304.12827 308.280265 304.12827 0.33998596 0.348902735 0.33998596 0.348902735 308.280265 304.12827 308.280265"></polygon>
    </defs>
    <g id="Page-1" stroke="none" stroke-width="1" fill="none" fill-rule="evenodd" opacity="0.103883605">
        <g id="Desktop-home" transform="translate(-992.000000, -1561.000000)">
            <g id="section-two" transform="translate(0.000000, 1561.000000)">
                <g id="pattern" transform="translate(992.000000, 0.000000)">
                    <path d="M241.3041,157.57601 C235.752896,163.177808 226.937104,163.431721 221.612413,158.150829 C216.286894,152.86663 216.472072,144.043364 222.024103,138.444048 L315.142966,44.5177906 C320.69417,38.9209555 329.512442,38.6629072 334.836307,43.9487611 C340.156865,49.2313067 339.974994,58.052918 334.42131,63.6497531 L241.3041,157.57601 Z" id="Fill-1" fill="#616A7F"></path>
                    <path d="M230.752183,216.599835 C227.779416,219.596338 222.643209,219.319267 219.276939,215.977045 C215.909842,212.636478 215.589914,207.50198 218.561028,204.503823 L268.387114,154.247271 C271.356574,151.251595 276.494434,151.531147 279.859878,154.870887 C283.226148,158.210627 283.546075,163.34678 280.578269,166.343283 L230.752183,216.599835 Z" id="Fill-3" fill="#616A7F"></path>
                    <path d="M308.933471,141.960534 C301.919858,149.03453 292.565067,151.122075 288.033168,146.626907 C283.502096,142.130912 285.514252,132.752678 292.527039,125.677855 L410.153869,7.03437895 C417.168309,-0.0363087131 426.5231,-2.1255071 431.052519,2.37131461 C435.584418,6.86565509 433.572261,16.2447168 426.559475,23.3187127 L308.933471,141.960534 Z" id="Fill-5" fill="#616A7F"></path>
                    <path d="M397.599633,89.6607693 C415.728055,71.2789664 432.826424,58.7561822 435.797538,61.6832103 C438.763691,64.6152009 426.478294,81.8862385 408.344912,100.268868 L104.24971,408.586084 C86.1212877,426.968714 69.020438,439.493153 66.0493245,436.566125 C63.0848245,433.634134 75.3718752,416.359788 93.5002969,397.979639 L397.599633,89.6607693 Z" id="Fill-7" fill="#616A7F"></path>
                    <path d="M451.289902,400.48891 C462.577488,389.042982 473.240925,381.265969 475.115025,383.11118 C476.986645,384.959699 469.356323,395.731559 458.06543,407.178315 L268.725973,599.145542 C257.438387,610.590644 246.771643,618.371791 244.89837,616.524099 C243.029231,614.675581 250.661206,603.901239 261.947965,592.457791 L451.289902,400.48891 Z" id="Fill-9" fill="#616A7F"></path>
                    <path d="M246.534301,71.9727192 C257.820234,60.5276173 268.485324,52.7497782 270.360251,54.5949886 C272.230217,56.4443345 264.599068,67.216195 253.310656,78.6612969 L63.9711985,270.630178 C52.6827859,282.074452 42.016042,289.8556 40.1419423,288.007908 C38.2736294,286.160216 45.9047782,275.385875 57.1923641,263.9416 L246.534301,71.9727192 Z" id="Fill-11" fill="#616A7F"></path>
                    <path d="M233.527289,58.7733854 C244.814875,47.3299377 254.367244,38.4529122 254.869043,38.9433693 C255.366709,39.4363076 246.623666,49.1106361 235.3336,60.556565 L45.9949698,252.525446 C34.7065572,263.970548 25.1517075,272.849227 24.6515618,272.357116 C24.1547229,271.863351 32.8994192,262.188195 44.1861784,250.743093 L233.527289,58.7733854 Z" id="Fill-13" fill="#616A7F"></path>
                    <path d="M506.121744,319.109009 C515.599712,309.498366 523.687192,302.108426 524.188164,302.598883 C524.686657,303.092648 517.407677,311.279891 507.928882,320.891362 L348.928015,482.100394 C339.448394,491.711037 331.360088,499.103458 330.859942,498.611347 C330.362276,498.118408 337.639603,489.929512 347.118397,480.319695 L506.121744,319.109009 Z" id="Fill-15" fill="#616A7F"></path>
                    <path d="M215.147223,322.196821 C224.625191,312.586178 232.712671,305.195411 233.213644,305.687522 C233.712136,306.179633 226.433156,314.367703 216.953535,323.980001 L57.9534949,485.189033 C48.4730471,494.798849 40.385567,502.19127 39.8845946,501.699159 C39.3877557,501.207048 46.665909,493.017324 56.1447035,483.407507 L215.147223,322.196821 Z" id="Fill-17" fill="#616A7F"></path>
                    <path d="M494.645756,118.162199 C504.123724,108.551556 512.209551,101.162443 512.712176,101.652073 C513.209842,102.145839 505.932515,110.333908 496.452067,119.945379 L337.452854,281.154411 C327.972406,290.765882 319.8841,298.156648 319.383954,297.665364 C318.887115,297.171599 326.164442,288.983529 335.643236,279.372059 L494.645756,118.162199 Z" id="Fill-19" fill="#616A7F"></path>
                    <path d="M287.737462,385.939951 C297.216256,376.329308 305.303736,368.937714 305.803882,369.428998 C306.303201,369.923591 299.024221,378.110833 289.545427,387.723958 L130.54456,548.931336 C121.064939,558.542806 112.976632,565.935227 112.476486,565.443116 C111.978821,564.949351 119.256974,556.760454 128.736595,547.14981 L287.737462,385.939951 Z" id="Fill-21" fill="#616A7F"></path>
                    <path d="M413.612728,219.648444 C422.87245,210.259457 431.894087,204.147352 433.769013,205.99339 C435.640633,207.841909 429.651284,216.948035 420.388255,226.337848 L265.055399,383.827512 C255.79485,393.21898 246.77156,399.331084 244.898287,397.48422 C243.029148,395.636528 249.017669,386.529575 258.277392,377.139761 L413.612728,219.648444 Z" id="Fill-23" fill="#616A7F"></path>
                    <path d="M446.590599,127.81858 C457.877359,116.374305 468.544102,108.595639 470.416549,110.442504 C472.287342,112.290195 464.656193,123.062883 453.366954,134.508812 L264.028323,326.476866 C252.739084,337.921968 242.07234,345.702288 240.199894,343.855423 C238.330754,342.006905 245.961903,331.232563 257.248662,319.787461 L446.590599,127.81858 Z" id="Fill-25" fill="#616A7F"></path>
                    <path d="M475.719168,431.75063 C479.84351,427.59291 485.344286,426.363872 488.006219,429.00804 C490.669804,431.65138 489.487642,437.164681 485.364953,441.322401 L416.215056,511.06904 C412.093194,515.225933 406.593245,516.454143 403.929659,513.810803 C401.265246,511.168289 402.449062,505.655816 406.570924,501.495615 L475.719168,431.75063 Z" id="Fill-31" fill="#616A7F"></path>
                    <path d="M187.762055,60.0616417 C191.025816,56.7682181 196.208318,56.618517 199.338155,59.724194 C202.468819,62.8298709 202.359696,68.0173025 199.095936,71.309072 L144.353542,126.524782 C141.090608,129.814898 135.907279,129.96708 132.777442,126.859749 C129.650085,123.754072 129.756727,118.567467 133.021315,115.278179 L187.762055,60.0616417 Z" id="Fill-33" fill="#616A7F"></path>
                    <path d="M193.965433,25.3631662 C195.713049,23.6023177 198.732111,23.765252 200.7112,25.7295617 C202.691115,27.6930442 202.878773,30.711878 201.131983,32.4752078 L171.839979,62.0184249 C170.094842,63.7792735 167.074954,63.6155121 165.095865,61.6520295 C163.117603,59.6885469 162.929118,56.6697131 164.673428,54.9072105 L193.965433,25.3631662 Z" id="Fill-35" fill="#616A7F"></path>
                    <path d="M148.004771,69.2410468 C152.127459,65.0824999 157.627409,63.8559436 160.290994,66.498457 C162.95458,69.1417975 161.771591,74.6550977 157.649729,78.8136446 L88.5006586,148.560284 C84.3779699,152.718004 78.8780206,153.945387 76.2152613,151.302047 C73.5508488,148.659533 74.733838,143.145406 78.8557,138.987686 L148.004771,69.2410468 Z" id="Fill-37" fill="#616A7F"></path>
                    <path d="M278.648781,444.175405 C281.911715,440.882809 287.096697,440.733108 290.225707,443.838785 C293.355545,446.944462 293.247249,452.131066 289.983488,455.422836 L235.241921,510.638546 C231.97816,513.928661 226.794832,514.080844 223.664994,510.973512 C220.537637,507.867836 220.644279,502.681231 223.908867,499.391943 L278.648781,444.175405 Z" id="Fill-39" fill="#616A7F"></path>
                    <path d="M284.852158,409.477757 C286.600602,407.715254 289.62049,407.879016 291.597925,409.843325 C293.579494,411.806808 293.764672,414.826469 292.019536,416.588144 L262.728358,446.131361 C260.982395,447.893864 257.962507,447.729276 255.983418,445.764966 C254.005155,443.80231 253.817497,440.784304 255.561807,439.022628 L284.852158,409.477757 Z" id="Fill-41" fill="#616A7F"></path>
                    <path d="M238.892323,453.355637 C243.015838,449.19709 248.515788,447.96888 251.179373,450.613048 C253.842133,453.255561 252.65997,458.769688 248.537281,462.927408 L179.388211,532.674048 C175.266349,536.831767 169.765573,538.059151 167.101987,535.416637 C164.438401,532.773297 165.622217,527.259997 169.744079,523.10145 L238.892323,453.355637 Z" id="Fill-43" fill="#616A7F"></path>
                    <path d="M216.432061,351.884363 C219.404001,348.888688 224.541035,349.165759 227.906478,352.50798 C231.274401,355.84772 231.593502,360.983046 228.623215,363.981202 L178.796303,414.237755 C175.826016,417.234257 170.688982,416.953878 167.322712,413.614138 C163.957269,410.274398 163.637341,405.139072 166.605148,402.141743 L216.432061,351.884363 Z" id="Fill-45" fill="#616A7F"></path>
                    <path d="M138.250441,426.52325 C145.262401,419.449254 154.618846,417.363364 159.150745,421.857705 C163.68099,426.354526 161.669661,435.733588 154.656874,442.80593 L37.030044,561.450233 C30.0172572,568.521748 20.6608124,570.610946 16.130567,566.113297 C11.5994949,561.61813 13.6116514,552.240722 20.6236115,545.165072 L138.250441,426.52325 Z" id="Fill-47" fill="#616A7F"></path>
                    <path d="M507.328625,224.329869 C512.879829,218.727244 521.696447,218.473332 527.020312,223.75505 C532.346657,229.038423 532.160652,237.862515 526.607795,243.461004 L433.489758,337.387262 C427.936901,342.982443 419.121109,343.242145 413.797244,337.955464 C408.475033,332.673746 408.65773,323.852134 414.209761,318.255299 L507.328625,224.329869 Z" id="Fill-49" fill="#616A7F"></path>
                    <path d="M439.700162,239.944518 C446.712122,232.871349 456.06774,230.783805 460.598813,235.278145 C465.129885,239.775794 463.118555,249.153202 456.106595,256.227198 L338.478938,374.870673 C331.466152,381.942188 322.109707,384.029732 317.580288,379.532911 C313.047563,375.03857 315.062199,365.660336 322.072506,358.58634 L439.700162,239.944518 Z" id="Fill-53" fill="#616A7F"></path>
                    <path d="M192.170364,221.9746 C197.721568,216.371975 206.538187,216.118889 211.861225,221.399781 C217.18757,226.68398 217.001565,235.508073 211.450361,241.106562 L118.330671,335.031992 C112.779467,340.629655 103.962849,340.886876 98.638984,335.601849 C93.3175991,330.318476 93.5002969,321.497692 99.0531543,315.900857 L192.170364,221.9746 Z" id="Fill-55" fill="#616A7F"></path>
                    <g id="Group-59" transform="translate(234.779141, 254.535658)">
                        <mask id="mask-2" fill="white">
                            <use xlink:href="#path-1"></use>
                        </mask>
                        <g id="Clip-58"></g>
                        <path d="M271.345,22.7986462 C286.185687,7.74996662 300.619644,-2.07158164 303.591585,0.856273592 C306.558565,3.78826421 296.9351,18.3580658 282.091106,33.4075725 L33.134281,285.820122 C18.2919405,300.868802 3.85633006,310.693658 0.885216564,307.763322 C-2.07928344,304.832158 7.54418129,290.26153 22.3848684,275.212023 L271.345,22.7986462 Z" id="Fill-57" fill="#616A7F" mask="url(#mask-2)"></path>
                    </g>
                    <path d="M202.722281,162.950444 C205.695048,159.954769 210.832082,160.23184 214.197525,163.574061 C217.564622,166.913801 217.88455,172.0483 214.914263,175.046456 L165.08735,225.303009 C162.117064,228.300338 156.979203,228.019959 153.61376,224.680219 C150.249143,221.340479 149.928389,216.204326 152.896196,213.207824 L202.722281,162.950444 Z" id="Fill-60" fill="#616A7F"></path>
                    <path d="M124.541075,237.590158 C131.554689,230.516162 140.90948,228.428618 145.441379,232.923786 C149.971625,237.41978 147.960295,246.798842 140.947508,253.872838 L23.3206782,372.51466 C16.3078914,379.587829 6.95144663,381.675373 2.42202791,377.178551 C-2.10987086,372.684211 -0.0968877301,363.305149 6.91424571,356.232807 L124.541075,237.590158 Z" id="Fill-62" fill="#616A7F"></path>
                    <path d="M205.879317,410.908932 C211.430521,405.30548 220.247139,405.052395 225.571004,410.334113 C230.896522,415.617486 230.711344,424.441578 225.159314,430.040895 L132.04045,523.965498 C126.48842,529.56316 117.670975,529.822035 112.347937,524.535354 C107.026552,519.252809 107.210076,510.430371 112.762107,504.836017 L205.879317,410.908932 Z" id="Fill-64" fill="#616A7F"></path>
                </g>
            </g>
        </g>
    </g>
</svg>