<?xml version="1.0" encoding="UTF-8"?>
<svg width="187px" height="187px" viewBox="0 0 187 187" version="1.1" xmlns="http://www.w3.org/2000/svg" xmlns:xlink="http://www.w3.org/1999/xlink">
    <!-- Generator: Sketch 51 (57462) - http://www.bohemiancoding.com/sketch -->
    <title>peer-assessment</title>
    <desc>Created with Sketch.</desc>
    <defs>
        <polygon id="path-1" points="0 0 86.7495455 0 86.7495455 106 0 106"></polygon>
        <polygon id="path-3" points="0.0443944828 0 37.7510345 0 37.7510345 37.9683069 0.0443944828 37.9683069"></polygon>
    </defs>
    <g id="Page-1" stroke="none" stroke-width="1" fill="none" fill-rule="evenodd">
        <g id="Individual-pack-page" transform="translate(-769.000000, -1119.000000)">
            <g id="row2" transform="translate(-1.000000, 916.000000)">
                <g id="peer-assessment" transform="translate(760.000000, 203.000000)">
                    <circle id="Oval" stroke-opacity="0" stroke="#979797" fill="#343436" cx="103.5" cy="93.5" r="93.5"></circle>
                    <g id="peer-assessment-icon" transform="translate(60.000000, 41.000000)">
                        <g id="Group-3">
                            <mask id="mask-2" fill="white">
                                <use xlink:href="#path-1"></use>
                            </mask>
                            <g id="Clip-2"></g>
                            <path d="M13.2108182,7.91044776 C10.2839273,7.91334826 7.91199091,10.2856915 7.90909091,13.2130846 L7.90909091,92.7869154 C7.91199091,95.7143085 10.2839273,98.0866517 13.2108182,98.0895522 L73.5387273,98.0895522 C76.4656182,98.0866517 78.8375545,95.7143085 78.8404545,92.7869154 L78.8404545,35.6207463 L51.1349091,7.91044776 L13.2108182,7.91044776 Z M73.5387273,106 L13.2108182,106 C5.91837273,105.991299 0.0087,100.080612 0,92.7869154 L0,13.2130846 C0.0087,5.91938806 5.91837273,0.00870149262 13.2108182,8.58206889e-11 L52.7826364,8.58206889e-11 C53.8316455,-0.000527363098 54.8379455,0.415825871 55.5798182,1.15756219 L85.5921818,31.1856219 C86.3335273,31.9276219 86.7498091,32.9340945 86.7495455,33.9832836 L86.7495455,92.7842786 C86.7421636,100.07903 80.8322273,105.991299 73.5387273,106 Z" id="Fill-1" fill="#FFFFFF" mask="url(#mask-2)"></path>
                        </g>
                        <g id="Group-6" transform="translate(49.000000, 0.000000)">
                            <mask id="mask-4" fill="white">
                                <use xlink:href="#path-3"></use>
                            </mask>
                            <g id="Clip-5"></g>
                            <path d="M33.8201048,37.9683069 L13.1769324,37.9683069 C5.92758069,37.9595986 0.0530427586,32.0442653 0.0443944828,24.7448347 L0.0443944828,3.95830694 C0.0443944828,1.77225139 1.80444966,-2.63888889e-05 3.97542897,-2.63888889e-05 C6.14667034,-2.63888889e-05 7.90646345,1.77225139 7.90646345,3.95830694 L7.90646345,24.7448347 C7.90960828,27.6745292 10.2674428,30.0487375 13.1769324,30.0516403 L33.8201048,30.0516403 C35.9910841,30.0516403 37.7511393,31.8239181 37.7511393,34.0099736 C37.7511393,36.1960292 35.9910841,37.9683069 33.8201048,37.9683069" id="Fill-4" fill="#FFFFFF" mask="url(#mask-4)"></path>
                        </g>
                        <path d="M40.4904156,49.0030328 C33.5797865,49.007825 27.9814235,54.6136737 27.9859495,61.5246073 C27.9907417,68.4352747 33.5965592,74.033935 40.5074545,74.0291428 C47.4180836,74.0243505 53.0167129,68.4182357 53.0119207,61.5075683 C53.0095246,58.1884139 51.6890052,55.0061044 49.340025,52.6611046 C46.9942395,50.31291 43.8095516,48.9966432 40.4904156,49.0030328 M40.4904156,81.9999588 C29.1685597,81.9949003 19.9946776,72.8124478 20.0000023,61.4905292 C20.0050608,50.1686106 29.1874623,40.9946776 40.5093182,41.0000023 C51.8314403,41.0050608 61.0053224,50.1877795 60.9999977,61.5096981 C60.9973353,66.9472861 58.8341862,72.1615027 54.9868425,76.004608 C51.1453559,79.853038 45.9279734,82.0108744 40.4904156,81.9999588" id="Fill-7" fill="#FFFFFF"></path>
                        <path d="M62.0342922,86.9999995 C60.9806717,87.0005289 59.969948,86.5825614 59.224814,85.8376845 L49.1149291,75.7289062 C47.5910321,74.1515355 47.6347233,71.637907 49.2126386,70.1145359 C50.7518937,68.628488 53.1919825,68.628488 54.7312376,70.1145359 L64.8384745,80.2233142 C66.3885863,81.7752734 66.3869975,84.2891666 64.8347674,85.8387434 C64.0912222,86.5815026 63.0828816,86.9989407 62.0316443,86.9999995 L62.0342922,86.9999995 Z" id="Fill-9" fill="#FFFFFF"></path>
                    </g>
                </g>
            </g>
        </g>
    </g>
</svg>