<?xml version="1.0" encoding="UTF-8"?>
<svg width="547px" height="356px" viewBox="0 0 547 356" version="1.1" xmlns="http://www.w3.org/2000/svg" xmlns:xlink="http://www.w3.org/1999/xlink">
    <!-- Generator: Sketch 51 (57462) - http://www.bohemiancoding.com/sketch -->
    <title>Group 168</title>
    <desc>Created with Sketch.</desc>
    <defs>
        <polygon id="path-1" points="0.0736005398 0 0.0736005398 19.8186117 0.0736005398 253.999449 406.963749 253.999449 406.963749 19.8186117 406.963749 0"></polygon>
        <path d="M49.8267,0.537804878 C46.13015,0.41652439 42.7537,2.87012195 40.1247,5.24634146 C38.8135,6.3477439 37.42585,7.35420732 35.9722,8.25914634 C36.19165,8.1054878 30.8407,11.7713415 32.8537,11.8097561 C34.2914,11.8520122 35.6818,12.334939 36.83515,13.1926829 C34.34035,17.0341463 34.56145,22.0313415 37.38515,25.6395732 C36.5112,24.7829268 35.54265,23.8445122 34.5532,22.8945732 C31.6052,20.0030488 27.48515,16.1231707 25.5497,15.0640244 C22.36465,13.3573171 17.8167,9.64810976 17.8167,9.64810976 C17.8167,9.64810976 11.9042,12.9402439 13.7247,17.5110366 C14.5926,17.7793902 15.44015,18.1119512 16.2602,18.504878 C16.26075,19.112378 16.37845,19.7143902 16.6067,20.2768902 C18.47615,20.8662805 20.24715,21.7322561 21.8592,22.8457317 C22.04125,23.0981707 22.21065,23.359939 22.36465,23.6304878 C23.1517,25.002439 25.59865,27.4993902 28.5912,30.2762195 C30.69165,32.3775 33.45815,34.8909146 36.2142,37.3115854 C35.38315,38.9579268 34.5092,40.6042683 34.35465,42.2506098 C34.1429,42.1666463 33.93555,42.0722561 33.7337,41.9652439 C29.6417,39.7706707 20.09315,40.0006098 20.09315,40.0006098 C20.09315,40.0006098 12.1352,35.8518293 10.54515,26.4621951 C10.54515,26.4621951 8.95565,20.7823171 9.4072,19.2567073 L9.37915,19.2567073 L9.5832,19.2128049 L11.4917,15.7609756 C11.88825,15.0168293 11.605,14.0932317 10.85975,13.697561 C10.66725,13.5954878 10.45495,13.535122 10.23715,13.5219512 C0.93115,12.6878049 0.4917,21.2054268 0.4917,21.2054268 L0.5742,21.2054268 L0.54615,21.2762195 C1.6852,26.7371341 2.5927,26.297561 2.36665,30.6658537 L6.0027,40.275 C6.0027,40.275 6.22765,43.5676829 12.8227,47.9195122 C19.41665,52.2713415 26.91865,59.0597561 26.91865,59.0597561 C26.91865,59.0597561 22.9427,61.1341463 24.4167,70.6335366 C26.22015,82.2457317 23.50865,98.8079268 23.50865,98.8079268 L23.50865,109.509695 L24.0152,109.371951 C23.94865,109.728659 23.88925,110.107866 23.8227,110.518902 C22.98285,115.896402 22.87725,121.362805 23.50865,126.767744 C24.87265,138.128049 30.3292,153.658537 30.3292,153.658537 C30.3292,153.658537 32.3752,159.118902 32.8317,163.487195 C32.9032,164.352073 33.1001,165.202134 33.41415,166.012134 C34.4399,168.408659 34.98165,170.984085 35.0097,173.590244 C34.9899,180.136646 36.17735,186.630915 38.5132,192.748171 C40.8177,198.587195 41.6757,202.011585 41.9287,204.008598 C40.2787,206.138415 38.15515,208.459756 36.46665,208.690244 C33.28215,209.129268 27.1447,209.562805 31.23615,214.804207 C31.3786,214.984207 31.53645,215.151037 31.7097,215.303049 C28.60165,215.796951 25.18615,216.883537 28.50815,221.136585 C32.6007,226.377439 56.6962,223.97378 56.6962,223.97378 C56.6962,223.97378 56.8502,221.059756 56.6962,217.860366 C58.3847,217.745122 59.44565,217.640854 59.44565,217.640854 C59.44565,217.640854 60.12765,204.975549 57.17415,203.444451 C56.62855,203.503171 56.0923,203.632134 55.57915,203.8275 C55.26015,202.077439 55.02915,199.89878 54.8647,198.290854 L56.03565,198.203049 L56.03565,198.115793 L56.10715,198.115793 L56.10715,179.028659 C56.10715,179.028659 54.74315,167.235366 49.7442,162.016463 C49.10125,161.359024 48.5463,160.621463 48.0942,159.821341 L48.0282,159.684146 C48.06065,158.191463 48.06065,156.177988 48.0282,153.867622 L48.09915,153.740854 C48.1877,153.598171 48.2757,153.471951 48.35765,153.356707 C48.4737,153.2025 48.59855,153.056524 48.7322,152.917683 L48.8037,152.82439 C48.8037,152.82439 51.5537,149.531707 60.8542,128.79878 C66.53515,116.143902 65.03365,109.042683 62.9992,105.382317 C62.56965,103.735976 61.67315,100.048171 60.55115,93.7317073 C60.09135,91.0514634 59.87245,88.335 59.8972,85.6152439 C61.3063,85.9664634 62.75665,86.1283537 64.2092,86.0987195 C66.4884,86.1492073 68.7489,85.6679268 70.8092,84.6938415 C69.3242,82.5310976 67.7732,79.9957317 68.5212,77.5097561 C69.3682,74.6785976 72.7232,73.377439 74.6592,71.0945122 C76.9912,68.3341463 77.0517,64.3939024 76.3642,60.8981707 C75.67615,57.4079268 74.3567,53.995061 74.3237,50.4384146 C74.2742,44.6657927 77.3542,37.9591463 73.30565,33.695122 C72.3822,32.7237805 71.1447,31.9993902 70.4572,30.8634146 C69.938,29.8816463 69.69105,28.7785976 69.74165,27.670061 C69.67565,20.9359756 73.39365,14.0981707 71.16615,7.71585366 C70.73165,6.28408537 69.8346,5.03560976 68.61415,4.1652439 C67.3277,3.33109756 65.8647,3.17195122 64.28565,3.19939024 C62.86115,3.19939024 61.3602,3.35853659 59.88565,3.38597561 C59.0524,3.38652439 58.2219,3.27731707 57.4167,3.06219512 C55.7117,2.57926829 54.2652,1.4652439 52.57615,0.916463415 C51.788,0.661280488 50.9641,0.531768293 50.1369,0.531768293 C50.0335,0.531768293 49.9301,0.533963415 49.8267,0.537804878" id="path-3"></path>
        <polygon id="path-5" points="0 358 548.746108 358 548.746108 0 0 0"></polygon>
        <polygon id="path-7" points="0.123586207 0.000550200803 111.554759 0.000550200803 111.554759 136.559839 0.123586207 136.559839"></polygon>
        <path d="M21.4734158,0.750732323 C19.6055941,0.97540404 17.4709406,1.61106061 16.7956931,3.34815657 C16.6165347,4.0062803 16.475495,4.6737197 16.3709406,5.34828283 C15.6744554,8.00050505 12.6521782,9.23893939 10.7838119,11.2664646 C9.15014851,13.0583586 8.40955446,15.4798813 7.87589109,17.8422222 C6.3429703,24.6097727 5.97485149,31.5915833 6.78732673,38.4846212 C6.97737624,40.0737626 7.22787129,41.6519444 7.49470297,43.2306742 C6.37346535,44.8187197 5.36059406,47.6145126 5.82346535,52.5463308 L2.13628713,70.1688131 L0.600643564,80.4982323 C0.17970297,83.4293763 1.21326733,86.3818914 3.3669802,88.400101 C5.71945545,90.7240833 8.57346535,94.6525505 10.3318317,97.2001086 C9.56509901,99.4534015 9.18608911,101.822318 9.21059406,104.20329 C9.24816832,105.299798 9.30806931,106.33548 9.38430693,107.332803 C9.54277228,109.434854 9.93757426,111.512245 10.5610891,113.524975 C10.9912871,117.76579 11.8456931,123.191338 13.5125743,126.677038 L14.1279208,145.209167 C14.1279208,145.209167 13.2070792,162.223939 11.3615842,165.566616 C9.515,168.909293 15.3586139,197.168611 15.3586139,197.168611 L15.3586139,201.119545 L14.3729703,204.012879 L14.1279208,203.826018 C9.51554455,209.601725 14.1279208,211.727886 14.1279208,211.727886 C14.1279208,211.727886 15.3798515,211.788712 17.3952475,211.864881 C17.0423762,213.527452 17.8510396,215.219066 19.3605446,215.980758 C19.3605446,215.980758 45.499703,217.197273 50.1066337,215.980758 C54.7135644,214.763694 53.4883168,210.50096 51.0269307,210.813308 C49.7815347,210.857146 48.5377723,210.692205 47.3457426,210.325606 C48.7833663,208.632348 47.6343564,206.335765 45.8041089,206.560985 C43.3432673,206.862374 37.8105941,204.659495 37.8105941,204.659495 L37.8105941,204.698402 C37.6330693,204.630452 37.4506436,204.575106 37.2665842,204.53346 C35.2103465,204.062745 33.1802475,203.486818 31.1828218,202.807323 C29.9962376,200.248258 27.2625743,193.365083 29.2229703,188.011869 C30.1105941,185.600758 30.3992079,182.390144 30.3992079,179.277071 C30.4460396,169.892917 31.8074257,160.561917 34.444703,151.560253 L38.1318812,138.809311 C38.1318812,138.809311 43.3590594,123.311894 43.6645545,119.082038 L43.6209901,112.877811 C47.9447525,115.679083 51.374901,114.829715 53.57,113.530455 C54.7059406,112.877811 55.1018317,111.422376 54.4538119,110.278194 C54.3214851,110.046399 54.1515842,109.837619 53.9511881,109.661717 C52.704703,108.489588 51.6221287,107.153066 50.7328713,105.688864 C48.8481683,102.707854 45.6957426,101.101725 43.5338614,100.301674 L43.5338614,99.332298 L43.6645545,99.332298 L43.6041089,98.4330631 L43.6645545,98.4330631 L43.5120792,96.0553788 L42.7442574,84.1751768 C42.7442574,84.1751768 39.9670297,76.2130303 44.8680198,68.924899 C49.7690099,61.6367677 45.1724257,54.6445455 40.565495,51.9101263 C40.565495,51.9101263 38.3878218,40.3641919 40.2610891,37.6297727 C37.7572277,36.1683106 35.175495,34.8454874 32.5284158,33.6678788 C32.4881188,33.525404 32.45,33.3796414 32.4140594,33.2294949 C32.364505,32.1340833 32.299703,31.0753864 32.2392574,30.0018939 C32.3018812,29.4473384 32.4042574,28.8982626 32.5442079,28.3574066 C32.6046535,28.1338308 32.6694554,27.9031313 32.7407921,27.6675 C37.2540594,25.9062929 40.2365842,21.5460177 40.2605446,16.6750253 C40.2616337,15.2831566 40.0149505,13.9016995 39.5308416,12.5980556 C39.769901,12.1936465 39.9528713,11.7590985 40.075396,11.3048232 C40.3177228,9.99350758 40.0568812,8.63835354 39.3456931,7.51280303 C38.1258911,4.77290404 35.049703,2.26863636 32.8110396,1.3535101 C31.0722772,0.637848485 28.8537624,0.404409091 26.6570297,0.404409091 C24.8158911,0.404409091 22.9905446,0.568255051 21.4734158,0.750732323 M12.9190099,77.4295455 C13.0219307,76.9856818 13.1090594,76.4979798 13.185297,75.9878106 L15.3640594,75.9878106 C16.2636634,77.8432702 16.6399505,79.911346 16.4526238,81.9668182 C14.7868317,81.4182904 12.2927723,80.1146465 12.9190099,77.4295455" id="path-9"></path>
    </defs>
    <g id="Page-1" stroke="none" stroke-width="1" fill="none" fill-rule="evenodd">
        <g id="Sign-up" transform="translate(-117.000000, -854.000000)">
            <g id="image" transform="translate(58.000000, 298.000000)">
                <g id="Group-168" transform="translate(59.000000, 554.000000)">
                    <g id="Group-17" transform="translate(474.000000, 33.000000)">
                        <path d="M13.0394769,122.500532 C13.0394769,122.500532 15.6979385,87.4834205 35.6585538,68.4574071 C44.0825538,60.5304964 49.6852615,50.1084429 51.6259385,38.7562018 C52.4971385,33.3595768 52.8676615,27.8948625 52.7336308,22.4312464" id="Stroke-1" stroke="#535461" stroke-width="2"></path>
                        <path d="M65.2616308,10.3670879 C63.7884,14.2108379 52.4677846,22.7824004 52.4677846,22.7824004 C52.4677846,22.7824004 49.6985538,8.93940937 51.1607077,5.07918616 C52.6333846,1.21731563 56.9855077,-0.729818304 60.8807077,0.730257589 C64.7759077,2.19033348 66.7398462,6.50521741 65.2671692,10.3670879 L65.2616308,10.3670879 Z" id="Fill-3" fill="#FCCC63"></path>
                        <path d="M68.7621046,36.1258138 C65.4113354,38.5748317 51.2157046,39.6510817 51.2157046,39.6510817 C51.2157046,39.6510817 56.4722585,26.5329121 59.8224738,24.0838942 C63.1754585,21.6365237 67.8942277,22.3470683 70.36272,25.6708138 C72.8312123,28.9945594 72.1145354,33.6729522 68.7621046,36.1203228 L68.7621046,36.1258138 Z" id="Fill-5" fill="#FCCC63"></path>
                        <path d="M54.3123692,72.4875241 C50.1696,72.9213187 37.3702154,66.7493545 37.3702154,66.7493545 C37.3702154,66.7493545 48.5856,58.0569884 52.7228308,57.6177027 C56.8639385,57.1822607 60.5780308,60.1584214 61.0161231,64.2646446 C61.4553231,68.3708679 58.4540308,72.0526312 54.3123692,72.4875241" id="Fill-7" fill="#FCCC63"></path>
                        <path d="M37.1317846,97.5598661 C33.1219385,98.6580804 19.4530154,94.7429464 19.4530154,94.7429464 C19.4530154,94.7429464 29.0234769,84.3099107 33.0338769,83.1732589 C37.0404,82.0508839 41.2058769,84.3620759 42.3379385,88.3348661 C43.4694462,92.3076563 41.1388615,96.4380402 37.1317846,97.5598661" id="Fill-9" fill="#FCCC63"></path>
                        <path d="M36.1235631,34.8517205 C37.8903323,38.5911402 49.8428862,46.2566759 49.8428862,46.2566759 C49.8428862,46.2566759 51.5431938,32.2434616 49.7758708,28.504042 C48.0079938,24.7662696 43.5190708,23.1573857 39.74904,24.9101357 C35.9784554,26.6628857 34.35624,31.1139482 36.1235631,34.8517205" id="Fill-11" fill="#FCCC63"></path>
                        <path d="M16.4014892,64.426796 C19.2150277,67.4688496 32.9337969,71.2412156 32.9337969,71.2412156 C32.9337969,71.2412156 30.3251815,57.3652781 27.5116431,54.3232246 C24.6975508,51.2800728 19.9278277,51.0747067 16.8584123,53.8647201 C13.7884431,56.6547335 13.5818585,61.3836442 16.3959508,64.426796 L16.4014892,64.426796 Z" id="Fill-13" fill="#FCCC63"></path>
                        <path d="M1.21502769,95.7752679 C3.46862769,99.245625 16.3516431,105.258348 16.3516431,105.258348 C16.3516431,105.258348 16.14672,91.1462946 13.8925662,87.6869196 C11.6361969,84.2160134 6.97004308,83.2155402 3.46862769,85.4520536 C-0.03168,87.688567 -1.04078769,92.3153437 1.21502769,95.78625 L1.21502769,95.7752679 Z" id="Fill-15" fill="#FCCC63"></path>
                    </g>
                    <g id="Group-20" transform="translate(90.000000, 0.000000)">
                        <mask id="mask-2" fill="white">
                            <use xlink:href="#path-1"></use>
                        </mask>
                        <g id="Clip-19"></g>
                        <polygon id="Fill-18" mask="url(#mask-2)" points="0.0736005398 0 0.0736005398 19.8186117 0.0736005398 253.999449 406.963749 253.999449 406.963749 19.8186117 406.963749 0"></polygon>
                    </g>
                    <polygon id="Fill-21" fill="#F6F7F9" points="94 21 492 21 492 2 94 2"></polygon>
                    <polygon id="Fill-22" fill="#1DBE71" points="94 21 492 21 492 2 94 2"></polygon>
                    <polygon id="Fill-24" fill="#F6F7F9" points="94 250 492 250 492 22 94 22"></polygon>
                    <g id="Group-44" transform="translate(100.000000, 8.000000)">
                        <path d="M4.58767841,0.236786187 C6.96293539,0.236786187 8.88785463,2.16876751 8.88785463,4.55150773 C8.88785463,6.934799 6.96293539,8.86622927 4.58767841,8.86622927 C2.21297063,8.86622927 0.287502203,6.934799 0.287502203,4.55150773 C0.287502203,2.16876751 2.21297063,0.236786187 4.58767841,0.236786187" id="Fill-25" fill="#F6F7F9"></path>
                        <path d="M16.0440508,0.236786187 C18.4187586,0.236786187 20.344227,2.16876751 20.344227,4.55150773 C20.344227,6.934799 18.4187586,8.86622927 16.0440508,8.86622927 C13.6687938,8.86622927 11.7438746,6.934799 11.7438746,4.55150773 C11.7438746,2.16876751 13.6687938,0.236786187 16.0440508,0.236786187" id="Fill-27" fill="#F6F7F9"></path>
                        <path d="M27.5054758,0.236786187 C29.8807327,0.236786187 31.805652,2.16876751 31.805652,4.55150773 C31.805652,6.934799 29.8807327,8.86622927 27.5054758,8.86622927 C25.130768,8.86622927 23.2052996,6.934799 23.2052996,4.55150773 C23.2052996,2.16876751 25.130768,0.236786187 27.5054758,0.236786187" id="Fill-29" fill="#F6F7F9"></path>
                        <polygon id="Fill-31" fill="#1DBE71" points="8.8826373 57.733509 213.736881 57.733509 213.736881 42.8827114 8.8826373 42.8827114"></polygon>
                        <polygon id="Fill-33" fill="#1DBE71" points="266.261639 57.733509 373.700141 57.733509 373.700141 42.8827114 266.261639 42.8827114"></polygon>
                        <g id="Group-41" transform="translate(48.328928, 115.169451)" fill="#1DBE71">
                            <polygon id="Fill-35" points="0.424525698 115.533144 14.7474626 115.533144 14.7474626 68.0987596 0.424525698 68.0987596"></polygon>
                            <polygon id="Fill-37" points="28.1208458 115.527634 42.4437827 115.527634 42.4437827 34.0769323 28.1208458 34.0769323"></polygon>
                            <polygon id="Fill-38" points="55.8166167 115.527634 70.1395536 115.527634 70.1395536 0.0606155006 55.8166167 0.0606155006"></polygon>
                            <polygon id="Fill-39" points="83.5123877 115.533144 97.8353245 115.533144 97.8353245 11.0816156 83.5123877 11.0816156"></polygon>
                            <polygon id="Fill-40" points="111.208159 115.527634 125.531095 115.527634 125.531095 43.6596919 111.208159 43.6596919"></polygon>
                        </g>
                        <polygon id="Fill-42" fill="#1DBE71" points="266.025486 222.795028 373.463988 222.795028 373.463988 90.3170958 266.025486 90.3170958"></polygon>
                    </g>
                    <g id="Group-47" transform="translate(472.000000, 131.000000)">
                        <mask id="mask-4" fill="white">
                            <use xlink:href="#path-3"></use>
                        </mask>
                        <g id="Clip-46"></g>
                        <path d="M49.8267,0.537804878 C46.13015,0.41652439 42.7537,2.87012195 40.1247,5.24634146 C38.8135,6.3477439 37.42585,7.35420732 35.9722,8.25914634 C36.19165,8.1054878 30.8407,11.7713415 32.8537,11.8097561 C34.2914,11.8520122 35.6818,12.334939 36.83515,13.1926829 C34.34035,17.0341463 34.56145,22.0313415 37.38515,25.6395732 C36.5112,24.7829268 35.54265,23.8445122 34.5532,22.8945732 C31.6052,20.0030488 27.48515,16.1231707 25.5497,15.0640244 C22.36465,13.3573171 17.8167,9.64810976 17.8167,9.64810976 C17.8167,9.64810976 11.9042,12.9402439 13.7247,17.5110366 C14.5926,17.7793902 15.44015,18.1119512 16.2602,18.504878 C16.26075,19.112378 16.37845,19.7143902 16.6067,20.2768902 C18.47615,20.8662805 20.24715,21.7322561 21.8592,22.8457317 C22.04125,23.0981707 22.21065,23.359939 22.36465,23.6304878 C23.1517,25.002439 25.59865,27.4993902 28.5912,30.2762195 C30.69165,32.3775 33.45815,34.8909146 36.2142,37.3115854 C35.38315,38.9579268 34.5092,40.6042683 34.35465,42.2506098 C34.1429,42.1666463 33.93555,42.0722561 33.7337,41.9652439 C29.6417,39.7706707 20.09315,40.0006098 20.09315,40.0006098 C20.09315,40.0006098 12.1352,35.8518293 10.54515,26.4621951 C10.54515,26.4621951 8.95565,20.7823171 9.4072,19.2567073 L9.37915,19.2567073 L9.5832,19.2128049 L11.4917,15.7609756 C11.88825,15.0168293 11.605,14.0932317 10.85975,13.697561 C10.66725,13.5954878 10.45495,13.535122 10.23715,13.5219512 C0.93115,12.6878049 0.4917,21.2054268 0.4917,21.2054268 L0.5742,21.2054268 L0.54615,21.2762195 C1.6852,26.7371341 2.5927,26.297561 2.36665,30.6658537 L6.0027,40.275 C6.0027,40.275 6.22765,43.5676829 12.8227,47.9195122 C19.41665,52.2713415 26.91865,59.0597561 26.91865,59.0597561 C26.91865,59.0597561 22.9427,61.1341463 24.4167,70.6335366 C26.22015,82.2457317 23.50865,98.8079268 23.50865,98.8079268 L23.50865,109.509695 L24.0152,109.371951 C23.94865,109.728659 23.88925,110.107866 23.8227,110.518902 C22.98285,115.896402 22.87725,121.362805 23.50865,126.767744 C24.87265,138.128049 30.3292,153.658537 30.3292,153.658537 C30.3292,153.658537 32.3752,159.118902 32.8317,163.487195 C32.9032,164.352073 33.1001,165.202134 33.41415,166.012134 C34.4399,168.408659 34.98165,170.984085 35.0097,173.590244 C34.9899,180.136646 36.17735,186.630915 38.5132,192.748171 C40.8177,198.587195 41.6757,202.011585 41.9287,204.008598 C40.2787,206.138415 38.15515,208.459756 36.46665,208.690244 C33.28215,209.129268 27.1447,209.562805 31.23615,214.804207 C31.3786,214.984207 31.53645,215.151037 31.7097,215.303049 C28.60165,215.796951 25.18615,216.883537 28.50815,221.136585 C32.6007,226.377439 56.6962,223.97378 56.6962,223.97378 C56.6962,223.97378 56.8502,221.059756 56.6962,217.860366 C58.3847,217.745122 59.44565,217.640854 59.44565,217.640854 C59.44565,217.640854 60.12765,204.975549 57.17415,203.444451 C56.62855,203.503171 56.0923,203.632134 55.57915,203.8275 C55.26015,202.077439 55.02915,199.89878 54.8647,198.290854 L56.03565,198.203049 L56.03565,198.115793 L56.10715,198.115793 L56.10715,179.028659 C56.10715,179.028659 54.74315,167.235366 49.7442,162.016463 C49.10125,161.359024 48.5463,160.621463 48.0942,159.821341 L48.0282,159.684146 C48.06065,158.191463 48.06065,156.177988 48.0282,153.867622 L48.09915,153.740854 C48.1877,153.598171 48.2757,153.471951 48.35765,153.356707 C48.4737,153.2025 48.59855,153.056524 48.7322,152.917683 L48.8037,152.82439 C48.8037,152.82439 51.5537,149.531707 60.8542,128.79878 C66.53515,116.143902 65.03365,109.042683 62.9992,105.382317 C62.56965,103.735976 61.67315,100.048171 60.55115,93.7317073 C60.09135,91.0514634 59.87245,88.335 59.8972,85.6152439 C61.3063,85.9664634 62.75665,86.1283537 64.2092,86.0987195 C66.4884,86.1492073 68.7489,85.6679268 70.8092,84.6938415 C69.3242,82.5310976 67.7732,79.9957317 68.5212,77.5097561 C69.3682,74.6785976 72.7232,73.377439 74.6592,71.0945122 C76.9912,68.3341463 77.0517,64.3939024 76.3642,60.8981707 C75.67615,57.4079268 74.3567,53.995061 74.3237,50.4384146 C74.2742,44.6657927 77.3542,37.9591463 73.30565,33.695122 C72.3822,32.7237805 71.1447,31.9993902 70.4572,30.8634146 C69.938,29.8816463 69.69105,28.7785976 69.74165,27.670061 C69.67565,20.9359756 73.39365,14.0981707 71.16615,7.71585366 C70.73165,6.28408537 69.8346,5.03560976 68.61415,4.1652439 C67.3277,3.33109756 65.8647,3.17195122 64.28565,3.19939024 C62.86115,3.19939024 61.3602,3.35853659 59.88565,3.38597561 C59.0524,3.38652439 58.2219,3.27731707 57.4167,3.06219512 C55.7117,2.57926829 54.2652,1.4652439 52.57615,0.916463415 C51.788,0.661280488 50.9641,0.531768293 50.1369,0.531768293 C50.0335,0.531768293 49.9301,0.533963415 49.8267,0.537804878" id="Fill-45" mask="url(#mask-4)"></path>
                    </g>
                    <g id="Group-86">
                        <path d="M490.804901,142.886599 C490.804901,142.886599 485.165973,146.142144 486.90255,150.701007 C486.90255,150.701007 492.761297,152.438765 495.145793,156.777659 C497.530838,161.116553 515.968775,176.74537 515.968775,176.74537 L529.432739,170.019809 C529.432739,170.019809 524.755523,163.772682 509.961649,159.406292 C509.961649,159.406292 501.240297,150.057597 498.201838,148.314341 C495.162829,146.571084 490.804901,142.886599 490.804901,142.886599" id="Fill-48" fill="#FFFFFF"></path>
                        <path d="M8.58055676,305.751687 C8.58055676,305.751687 -23.1064703,324.883515 35.3051514,354.337951 C35.3051514,354.337951 48.1756018,330.426741 33.947764,310.931964 C28.2297009,303.067512 17.5382144,300.723739 9.05866486,305.476726 L8.58055676,305.751687 Z" id="Fill-50" fill="#1DBE71"></path>
                        <path d="M8.94309459,305.344634 C8.94309459,305.344634 36.0633649,326.104235 35.321473,354.331792" id="Stroke-52" stroke="#535461"></path>
                        <path d="M36.8383396,354.684128 C36.8383396,354.684128 26.9079793,320.923793 38.6848261,296.117308 C43.6978171,285.733658 45.2096279,274.003246 42.9932946,262.687477 C41.8980423,257.324076 40.3142405,252.072309 38.261673,246.998168" id="Stroke-54" stroke="#535461" stroke-width="2"></path>
                        <path d="M45.6144811,231.286532 C45.6144811,235.422505 38.1351117,247.41028 38.1351117,247.41028 C38.1351117,247.41028 30.6557423,235.422505 30.6557423,231.286532 C30.6557423,227.15166 34.0057964,223.799878 38.1378595,223.799878 C42.2704721,223.799878 45.6199766,227.15166 45.6199766,231.286532 L45.6144811,231.286532 Z" id="Fill-56" fill="#F4BD51"></path>
                        <path d="M57.9793459,254.207661 C55.7316883,257.677676 42.9436703,263.671839 42.9436703,263.671839 C42.9436703,263.671839 43.1744811,249.538813 45.4221387,246.074297 C47.6681477,242.603732 52.3003009,241.61332 55.767409,243.860856 C59.2350667,246.107842 60.225355,250.743145 57.9793459,254.21316 L57.9793459,254.207661 Z" id="Fill-58" fill="#F4BD51"></path>
                        <path d="M57.4408423,293.340306 C53.7533649,295.204545 39.6848964,293.890229 39.6848964,293.890229 C39.6848964,293.890229 47.0158874,281.791919 50.7033649,279.944177 C54.392491,278.082137 58.8916532,279.56528 60.7518784,283.257464 C62.6126532,286.949098 61.1299685,291.45077 57.4408423,293.31226 L57.4408423,293.340306 Z" id="Fill-60" fill="#F4BD51"></path>
                        <path d="M50.3683045,322.860018 C47.0710072,325.318175 32.9640703,326.429019 32.9640703,326.429019 C32.9640703,326.429019 38.1463225,313.280356 41.4710973,310.821649 C44.7925748,308.363492 49.4774847,309.065194 51.9345207,312.38948 C54.3915568,315.713766 53.689782,320.401311 50.3683045,322.860018" id="Fill-62" fill="#F4BD51"></path>
                        <path d="M27.2375991,264.474672 C30.1996712,267.35572 44.0098514,270.342353 44.0098514,270.342353 C44.0098514,270.342353 40.6301216,256.594273 37.6625541,253.734672 C34.6988333,250.849225 29.9589685,250.914666 27.075482,253.879852 C24.1919955,256.846138 24.2573919,261.589225 27.2211126,264.474672 L27.2375991,264.474672 Z" id="Fill-64" fill="#F4BD51"></path>
                        <path d="M19.4011324,299.103226 C23.0886099,300.967465 37.1570784,299.653149 37.1570784,299.653149 C37.1570784,299.653149 29.8260874,287.554839 26.1386099,285.707097 C22.4494838,283.845607 17.9503216,285.32875 16.0900964,289.020384 C14.2293216,292.712018 15.7120063,297.21369 19.4011324,299.07573 L19.4011324,299.103226 Z" id="Fill-66" fill="#F4BD51"></path>
                        <path d="M59.8150613,355.327483 C59.8150613,355.327483 49.8847009,321.589145 61.6780342,296.760663 C66.6910252,286.377013 68.202836,274.647151 65.9865027,263.330832 C64.8912505,257.967431 63.3074486,252.715665 61.2548811,247.641523" id="Stroke-68" stroke="#535461" stroke-width="2"></path>
                        <path d="M68.5912027,231.946495 C68.5912027,236.082468 61.1118333,248.070243 61.1118333,248.070243 C61.1118333,248.070243 53.632464,236.082468 53.632464,231.946495 C53.632464,227.811073 56.982518,224.459291 61.1145811,224.459291 C65.2471937,224.459291 68.5966982,227.811073 68.5966982,231.946495 L68.5912027,231.946495 Z" id="Fill-70" fill="#FCCC63"></path>
                        <path d="M80.961673,254.845682 C78.7140153,258.315697 65.9259973,264.30986 65.9259973,264.30986 C65.9259973,264.30986 66.1568081,250.176834 68.4044658,246.712318 C70.6504748,243.241753 75.2820784,242.251341 78.749736,244.498877 C82.2173937,246.745863 83.207682,251.380616 80.961673,254.851181 L80.961673,254.845682 Z" id="Fill-72" fill="#FCCC63"></path>
                        <path d="M80.417509,293.977777 C76.7300315,295.842566 62.6615631,294.5277 62.6615631,294.5277 C62.6615631,294.5277 69.9925541,282.42939 73.6800315,280.582198 C77.3768514,278.720158 81.8820586,280.2099 83.7422838,283.908683 C85.6030586,287.608016 84.1143288,292.116287 80.417509,293.977777" id="Fill-74" fill="#FCCC63"></path>
                        <path d="M73.3450261,323.503373 C70.0477288,325.96153 55.9407919,327.072375 55.9407919,327.072375 C55.9407919,327.072375 61.1230441,313.923711 64.4478189,311.465554 C67.7698459,309.006848 72.4542063,309.70855 74.9112423,313.032835 C77.3677288,316.357121 76.6665036,321.044666 73.3450261,323.503373" id="Fill-76" fill="#FCCC63"></path>
                        <path d="M50.2253117,265.112693 C53.1873838,267.993741 66.997564,270.980374 66.997564,270.980374 C66.997564,270.980374 63.6178342,257.232294 60.6502667,254.372693 C57.6865459,251.487246 52.9466811,251.552687 50.0631946,254.517873 C47.1797081,257.484159 47.2451045,262.227246 50.2088252,265.112693 L50.2253117,265.112693 Z" id="Fill-78" fill="#FCCC63"></path>
                        <path d="M42.3778541,299.741192 C46.0653315,301.605431 60.1338,300.291115 60.1338,300.291115 C60.1338,300.291115 52.802809,288.192805 49.1153315,286.345063 C45.4262054,284.483023 40.9270432,285.966716 39.066818,289.65835 C37.2060432,293.349984 38.6887279,297.851656 42.3778541,299.713696 L42.3778541,299.741192 Z" id="Fill-80" fill="#FCCC63"></path>
                        <path d="M39.3826991,334.447065 C42.6799964,336.905221 56.7869333,338.015516 56.7869333,338.015516 C56.7869333,338.015516 51.6046811,324.866853 48.2799063,322.408696 C44.9584288,319.950539 40.2735189,320.652241 37.8164829,323.976527 C35.3594468,327.300263 36.0612216,331.987808 39.3826991,334.447065" id="Fill-82" fill="#FCCC63"></path>
                        <mask id="mask-6" fill="white">
                            <use xlink:href="#path-5"></use>
                        </mask>
                        <g id="Clip-85"></g>
                        <polygon id="Fill-84" fill="#1DBE71" mask="url(#mask-6)" points="13.4826486 358 537.203369 358 537.203369 354.150538 13.4826486 354.150538"></polygon>
                    </g>
                    <g id="Group-89" transform="translate(384.000000, 140.000000)">
                        <mask id="mask-8" fill="white">
                            <use xlink:href="#path-7"></use>
                        </mask>
                        <g id="Clip-88"></g>
                        <polygon id="Fill-87" mask="url(#mask-8)" points="0.123586207 136.559839 111.554759 136.559839 111.554759 0.000550200803 0.123586207 0.000550200803"></polygon>
                    </g>
                    <g id="Group-117" transform="translate(385.000000, 134.000000)">
                        <polygon id="Fill-90" fill="#1DBE71" points="0.216366102 140.027481 107.647078 140.027481 107.647078 7.65358025 0.216366102 7.65358025"></polygon>
                        <polygon id="Fill-92" fill="#E8EAF1" points="7.43223051 41.2962963 29.3983322 41.2962963 29.3983322 19.2716049 7.43223051 19.2716049"></polygon>
                        <polygon id="Fill-93" fill="#E8EAF1" points="18.4152814 58.9160494 96.3949424 58.9160494 96.3949424 54.5111111 18.4152814 54.5111111"></polygon>
                        <polygon id="Fill-94" fill="#E8EAF1" points="18.4152814 68.2765432 96.3949424 68.2765432 96.3949424 63.8716049 18.4152814 63.8716049"></polygon>
                        <polygon id="Fill-95" fill="#E8EAF1" points="18.4152814 77.637037 96.3949424 77.637037 96.3949424 73.2320988 18.4152814 73.2320988"></polygon>
                        <polygon id="Fill-96" fill="#E8EAF1" points="18.4152814 86.9975309 96.3949424 86.9975309 96.3949424 82.5925926 18.4152814 82.5925926"></polygon>
                        <polygon id="Fill-97" fill="#E8EAF1" points="18.4152814 96.3580247 96.3949424 96.3580247 96.3949424 91.9530864 18.4152814 91.9530864"></polygon>
                        <polygon id="Fill-98" fill="#E8EAF1" points="18.4152814 105.718519 96.3949424 105.718519 96.3949424 101.31358 18.4152814 101.31358"></polygon>
                        <polygon id="Fill-99" fill="#E8EAF1" points="18.4152814 115.079012 96.3949424 115.079012 96.3949424 110.674074 18.4152814 110.674074"></polygon>
                        <path d="M140.606939,194.626857 C140.606939,194.626857 141.255488,204.185022 142.342261,205.275795 C143.430132,206.365466 132.589312,207.015745 132.589312,207.015745 L134.104973,194.626857 L140.606939,194.626857 Z" id="Fill-100" fill="#FFB9B9"></path>
                        <path d="M140.606939,194.626857 C140.606939,194.626857 141.255488,204.185022 142.342261,205.275795 C143.430132,206.365466 132.589312,207.015745 132.589312,207.015745 L134.104973,194.626857 L140.606939,194.626857 Z" id="Fill-101" fill="#000000"></path>
                        <path d="M142.996027,202.016085 C142.996027,202.016085 141.479817,202.016085 136.059681,204.840752 C136.059681,204.840752 132.374868,204.191024 130.859207,198.971172 C130.859207,198.971172 126.306732,206.795443 123.275959,207.230431 C120.244088,207.665419 114.390122,208.100406 118.289654,213.314752 C122.188088,218.529098 145.164631,216.138868 145.164631,216.138868 C145.164631,216.138868 145.807139,203.535789 142.996027,202.016085" id="Fill-102" fill="#000000"></path>
                        <path d="M139.739223,209.405314 L138.223562,213.534944 L128.256443,210.710277 L128.805596,206.613685 L128.942884,205.622574 L129.321799,202.869487 C129.321799,202.869487 137.773257,200.694549 137.773257,201.768253 C137.885284,202.664658 138.068701,203.55005 138.322409,204.416171 C138.668376,205.754722 139.102206,207.274425 139.420715,208.270492 C139.607426,208.970327 139.739223,209.405314 139.739223,209.405314" id="Fill-103" fill="#FFB9B9"></path>
                        <path d="M134.297012,152.730442 C133.193764,154.597586 133.193764,156.919539 134.297012,158.787233 C134.723154,159.571862 135.247045,160.298677 135.857154,160.951159 C140.623798,166.164954 141.925289,177.899159 141.925289,177.899159 L141.925289,196.80185 L138.674306,197.049077 L133.473283,197.451578 L125.669825,165.290023 C125.669825,165.290023 121.1179,141.822163 123.286503,137.692534 C125.455656,133.562904 127.405147,107.705917 127.405147,107.705917 L129.206367,105.839875 L133.473832,101.407405 L145.829764,101.407405 C146.818239,102.117151 147.639222,103.036682 148.235052,104.099924 C150.3103,107.541282 152.172476,114.699307 146.482706,127.914121 C137.597967,148.556763 134.994984,151.816418 134.994984,151.816418 C134.728096,152.092828 134.493608,152.399521 134.297012,152.730442" id="Fill-104" fill="#000000"></path>
                        <path d="M138.344321,204.444418 L128.959304,205.622739 L129.338768,202.869652 C129.338768,202.869652 137.789677,200.694163 137.789677,201.768418 C137.902253,202.673633 138.087317,203.568386 138.344321,204.444418" id="Fill-105" fill="#000000"></path>
                        <path d="M133.660434,124.874274 C133.660434,124.874274 134.209586,141.981953 134.286468,152.730553 L134.286468,158.787343 C134.298549,159.585187 134.23979,160.383032 134.11019,161.171516 C133.462739,163.126207 134.758739,167.470027 134.758739,167.470027 C138.01082,176.058004 139.341966,185.257167 138.657722,194.417787 L138.657722,203.975953 L128.256773,205.280916 C128.256773,205.280916 129.991546,203.975953 125.219959,191.372874 C122.988203,185.267079 121.8564,178.812743 121.87562,172.309953 C121.850359,169.721501 121.334156,167.161681 120.354468,164.766496 C120.056278,163.959291 119.871763,163.114093 119.805315,162.256232 C119.370936,157.911311 117.421993,152.477269 117.421993,152.477269 C117.421993,152.477269 112.221519,137.059985 110.920027,125.750306 C110.318705,120.370775 110.420298,114.936182 111.222061,109.583632 C111.412617,108.224158 111.673464,106.875696 112.001858,105.542651 C112.001858,105.542651 133.188163,92.1731131 141.189315,101.413022 C141.959227,102.317135 142.570983,103.34679 142.996027,104.457935 C143.4348,105.554214 143.776922,106.687385 144.016902,107.843681 C146.505112,120.094916 133.660434,124.874274 133.660434,124.874274" id="Fill-106" fill="#000000"></path>
                        <path d="M133.01798,7.53255457 C139.122909,7.53255457 144.072421,12.4947175 144.072421,18.6164805 C144.072421,24.7376928 139.122909,29.7004064 133.01798,29.7004064 C126.912502,29.7004064 121.962991,24.7376928 121.962991,18.6164805 C121.962991,12.4947175 126.912502,7.53255457 133.01798,7.53255457" id="Fill-107" fill="#FFB9B9"></path>
                        <path d="M126.949405,25.5652706 C126.949405,25.5652706 131.50188,38.3830904 126.949405,45.1231965 C122.396931,51.8627521 141.468999,49.6878138 141.468999,49.6878138 L148.838626,40.7788262 C148.838626,40.7788262 140.167507,40.7788262 139.733677,25.5652706 C139.299846,10.3517151 126.949405,25.5652706 126.949405,25.5652706" id="Fill-108" fill="#FFB9B9"></path>
                        <path d="M148.838845,106.621641 C147.268269,107.165651 145.652662,107.571456 144.011795,107.832999 C141.315456,108.251468 138.130371,108.267987 136.268744,106.621641 C135.170439,105.646498 132.424676,105.520406 129.179184,105.839764 C122.298303,106.500505 112.990167,109.071888 111.210364,109.578456 C111.402018,108.218431 111.662317,106.869419 111.99071,105.536374 C111.99071,105.536374 133.176466,92.1679373 141.178167,101.406745 L145.802032,101.406745 C146.791056,102.117041 147.612039,103.036572 148.20732,104.099814 C148.608201,105.828752 148.838845,106.621641 148.838845,106.621641" id="Fill-109" fill="#000000"></path>
                        <path d="M139.739223,209.405314 L138.223562,213.534944 L128.256443,210.710277 L128.805596,206.613685 C130.518952,210.412944 133.440443,210.930524 133.440443,210.930524 C135.343806,209.874991 137.339976,208.997307 139.40424,208.309586 C139.607426,208.970327 139.739223,209.405314 139.739223,209.405314" id="Fill-110" fill="#000000"></path>
                        <path d="M140.387553,208.320763 C140.387553,208.320763 138.871342,208.320763 133.451207,211.14543 C133.451207,211.14543 129.766393,210.495151 128.250732,205.27585 C128.250732,205.27585 123.698258,213.100121 120.667485,213.535109 C117.635614,213.970097 111.781647,214.405084 115.68118,219.61943 C119.579614,224.833225 142.556156,222.443546 142.556156,222.443546 C142.556156,222.443546 143.204705,209.840467 140.387553,208.320763" id="Fill-111" fill="#000000"></path>
                        <path d="M88.9699607,20.7360817 C88.9699607,20.7360817 89.3933573,12.2730941 98.2621708,13.09902 C99.0946861,13.1838151 99.7014997,13.9293509 99.6169302,14.7646373 C99.598259,14.9518472 99.544442,15.1341015 99.4593234,15.3014891 L97.6410793,18.7318348 L88.9699607,20.7360817 Z" id="Fill-112" fill="#FFB9B9"></path>
                        <path d="M140.173054,43.3829156 C140.173054,43.3829156 129.552443,41.6435156 126.735291,39.4735328 C126.735291,39.4735328 124.566138,43.6031625 120.667155,41.4282242 C116.768172,39.2532859 107.663223,39.4735328 107.663223,39.4735328 C102.833976,36.5079081 99.5154468,31.5969526 98.5588231,26.0004785 C98.5588231,26.0004785 97.0426129,20.3505946 97.460518,18.8419032 C97.460518,18.8419032 91.8256637,12.9728736 89.0085112,20.7965946 C90.1068163,26.2317378 90.9580027,25.7967501 90.7438332,30.1570884 L94.2089858,39.7163551 C94.2089858,39.7163551 94.4231553,42.9760094 100.711501,47.3198291 C106.998748,51.6641995 114.148715,58.4037551 114.148715,58.4037551 C114.148715,58.4037551 110.354071,60.4685699 111.765942,69.9226686 C113.489732,81.4856316 110.897732,97.9545946 110.897732,97.9545946 L110.897732,108.603533 C110.897732,108.603533 132.572782,102.305022 136.252104,105.558619 C139.931976,108.812767 148.822206,105.558619 148.822206,105.558619 C148.822206,105.558619 147.723901,101.863977 146.219223,92.9549896 C144.715094,84.0465526 146.433393,75.3352365 146.433393,75.3352365 C146.433393,75.3352365 152.067698,60.3424785 154.670681,54.2576069 C157.274213,48.1732859 152.721738,39.9415575 148.169264,36.8751699 C143.616789,33.807681 141.92485,35.6583057 141.92485,35.6583057 C141.92485,35.6583057 149.926003,41.4282242 140.173054,43.3829156" id="Fill-113" fill="#FFFFFF"></path>
                        <path d="M112.325583,74.7740474 C112.325583,74.7740474 114.055414,74.3550277 122.72159,73.0500647 C131.386668,71.7456523 146.559753,74.7900153 146.559753,74.7900153" id="Fill-114" fill="#000000"></path>
                        <path d="M119.816353,11.436376 C124.758726,11.5409933 128.415533,17.6528452 126.224963,22.0632896 C125.263946,24.0014625 123.40177,25.708376 123.594523,27.8612896 C123.681838,28.8413884 124.203533,29.7278822 124.428685,30.6859563 C125.466584,35.0908946 120.211743,39.215018 121.413838,43.5648946 C121.824604,44.7316526 122.462719,45.8037044 123.29194,46.7199316 L132.418855,58.2498575 C132.973499,58.8841686 133.432041,59.5966674 133.781302,60.3642279 C134.128367,61.4572032 134.263458,62.6068921 134.176143,63.7505242 C134.132211,69.256697 134.489709,75.1648205 137.72916,79.6303267 C141.622652,84.993339 149.557906,86.9204995 155.461296,83.9306477 C154.044482,81.7777341 152.567811,79.2559069 153.264685,76.772623 C154.072489,73.9589686 157.268007,72.6595119 159.113709,70.3909686 C161.342719,67.6378822 161.398184,63.7284995 160.761167,60.2541044 C160.123601,56.7797094 158.844075,53.3824007 158.817167,49.8474378 C158.772685,44.1044995 161.70516,37.431018 157.844618,33.1912649 C156.961031,32.2221785 155.785296,31.506376 155.126862,30.3721044 C154.630428,29.3881514 154.395391,28.2913217 154.445913,27.1895365 C154.384957,20.4940304 157.926991,13.6828946 155.80177,7.33427728 C155.397045,5.92139333 154.542563,4.68030198 153.369574,3.79931432 C150.359668,1.76753654 146.186658,3.73874642 142.705031,2.69807975 C141.057574,2.21904272 139.700618,1.1067958 138.091601,0.561684691 C133.753296,-0.908463457 129.738991,2.04284519 126.740618,4.87301802 C125.494041,5.9648921 124.171133,6.96591432 122.781228,7.86837605 C122.995397,7.75274642 117.894319,11.3978328 119.816353,11.436376" id="Fill-115" fill="#000000"></path>
                        <path d="M120.365506,11.436376 C125.307879,11.5409933 128.964685,17.6528452 126.774116,22.0632896 C125.813099,24.0014625 123.950923,25.708376 124.143675,27.8612896 C124.230991,28.8413884 124.752685,29.7278822 124.977838,30.6859563 C126.015736,35.0908946 120.760896,39.215018 121.962991,43.5648946 C122.373757,44.7316526 123.011872,45.8037044 123.841092,46.7199316 L132.968007,58.2498575 C133.522652,58.8841686 133.981194,59.5966674 134.330455,60.3642279 C134.677519,61.4572032 134.812611,62.6068921 134.725296,63.7505242 C134.681363,69.256697 135.038862,75.1648205 138.278313,79.6303267 C142.171804,84.993339 150.107058,86.9204995 156.010448,83.9306477 C154.593635,81.7777341 153.116963,79.2559069 153.813838,76.772623 C154.621641,73.9589686 157.81716,72.6595119 159.662862,70.3909686 C161.891872,67.6378822 161.947336,63.7284995 161.310319,60.2541044 C160.672753,56.7797094 159.393228,53.3824007 159.366319,49.8474378 C159.321838,44.1044995 162.254313,37.431018 158.39377,33.1912649 C157.510184,32.2221785 156.334448,31.506376 155.676014,30.3721044 C155.17958,29.3881514 154.944543,28.2913217 154.995065,27.1895365 C154.934109,20.4940304 158.476143,13.6828946 156.350923,7.33427728 C155.946197,5.92139333 155.091716,4.68030198 153.918726,3.79931432 C150.908821,1.76753654 146.735811,3.73874642 143.254184,2.69807975 C141.606726,2.21904272 140.24977,1.1067958 138.640753,0.561684691 C134.302448,-0.908463457 130.288143,2.04284519 127.28977,4.87301802 C126.043194,5.9648921 124.720285,6.96591432 123.33038,7.86837605 C123.54455,7.75274642 118.443472,11.3978328 120.365506,11.436376" id="Fill-116" fill="#6D3939"></path>
                    </g>
                    <g id="Group-120" transform="translate(286.000000, 140.000000)">
                        <mask id="mask-10" fill="white">
                            <use xlink:href="#path-9"></use>
                        </mask>
                        <g id="Clip-119"></g>
                        <path d="M21.4734158,0.750732323 C19.6055941,0.97540404 17.4709406,1.61106061 16.7956931,3.34815657 C16.6165347,4.0062803 16.475495,4.6737197 16.3709406,5.34828283 C15.6744554,8.00050505 12.6521782,9.23893939 10.7838119,11.2664646 C9.15014851,13.0583586 8.40955446,15.4798813 7.87589109,17.8422222 C6.3429703,24.6097727 5.97485149,31.5915833 6.78732673,38.4846212 C6.97737624,40.0737626 7.22787129,41.6519444 7.49470297,43.2306742 C6.37346535,44.8187197 5.36059406,47.6145126 5.82346535,52.5463308 L2.13628713,70.1688131 L0.600643564,80.4982323 C0.17970297,83.4293763 1.21326733,86.3818914 3.3669802,88.400101 C5.71945545,90.7240833 8.57346535,94.6525505 10.3318317,97.2001086 C9.56509901,99.4534015 9.18608911,101.822318 9.21059406,104.20329 C9.24816832,105.299798 9.30806931,106.33548 9.38430693,107.332803 C9.54277228,109.434854 9.93757426,111.512245 10.5610891,113.524975 C10.9912871,117.76579 11.8456931,123.191338 13.5125743,126.677038 L14.1279208,145.209167 C14.1279208,145.209167 13.2070792,162.223939 11.3615842,165.566616 C9.515,168.909293 15.3586139,197.168611 15.3586139,197.168611 L15.3586139,201.119545 L14.3729703,204.012879 L14.1279208,203.826018 C9.51554455,209.601725 14.1279208,211.727886 14.1279208,211.727886 C14.1279208,211.727886 15.3798515,211.788712 17.3952475,211.864881 C17.0423762,213.527452 17.8510396,215.219066 19.3605446,215.980758 C19.3605446,215.980758 45.499703,217.197273 50.1066337,215.980758 C54.7135644,214.763694 53.4883168,210.50096 51.0269307,210.813308 C49.7815347,210.857146 48.5377723,210.692205 47.3457426,210.325606 C48.7833663,208.632348 47.6343564,206.335765 45.8041089,206.560985 C43.3432673,206.862374 37.8105941,204.659495 37.8105941,204.659495 L37.8105941,204.698402 C37.6330693,204.630452 37.4506436,204.575106 37.2665842,204.53346 C35.2103465,204.062745 33.1802475,203.486818 31.1828218,202.807323 C29.9962376,200.248258 27.2625743,193.365083 29.2229703,188.011869 C30.1105941,185.600758 30.3992079,182.390144 30.3992079,179.277071 C30.4460396,169.892917 31.8074257,160.561917 34.444703,151.560253 L38.1318812,138.809311 C38.1318812,138.809311 43.3590594,123.311894 43.6645545,119.082038 L43.6209901,112.877811 C47.9447525,115.679083 51.374901,114.829715 53.57,113.530455 C54.7059406,112.877811 55.1018317,111.422376 54.4538119,110.278194 C54.3214851,110.046399 54.1515842,109.837619 53.9511881,109.661717 C52.704703,108.489588 51.6221287,107.153066 50.7328713,105.688864 C48.8481683,102.707854 45.6957426,101.101725 43.5338614,100.301674 L43.5338614,99.332298 L43.6645545,99.332298 L43.6041089,98.4330631 L43.6645545,98.4330631 L43.5120792,96.0553788 L42.7442574,84.1751768 C42.7442574,84.1751768 39.9670297,76.2130303 44.8680198,68.924899 C49.7690099,61.6367677 45.1724257,54.6445455 40.565495,51.9101263 C40.565495,51.9101263 38.3878218,40.3641919 40.2610891,37.6297727 C37.7572277,36.1683106 35.175495,34.8454874 32.5284158,33.6678788 C32.4881188,33.525404 32.45,33.3796414 32.4140594,33.2294949 C32.364505,32.1340833 32.299703,31.0753864 32.2392574,30.0018939 C32.3018812,29.4473384 32.4042574,28.8982626 32.5442079,28.3574066 C32.6046535,28.1338308 32.6694554,27.9031313 32.7407921,27.6675 C37.2540594,25.9062929 40.2365842,21.5460177 40.2605446,16.6750253 C40.2616337,15.2831566 40.0149505,13.9016995 39.5308416,12.5980556 C39.769901,12.1936465 39.9528713,11.7590985 40.075396,11.3048232 C40.3177228,9.99350758 40.0568812,8.63835354 39.3456931,7.51280303 C38.1258911,4.77290404 35.049703,2.26863636 32.8110396,1.3535101 C31.0722772,0.637848485 28.8537624,0.404409091 26.6570297,0.404409091 C24.8158911,0.404409091 22.9905446,0.568255051 21.4734158,0.750732323 M12.9190099,77.4295455 C13.0219307,76.9856818 13.1090594,76.4979798 13.185297,75.9878106 L15.3640594,75.9878106 C16.2636634,77.8432702 16.6399505,79.911346 16.4526238,81.9668182 C14.7868317,81.4182904 12.2927723,80.1146465 12.9190099,77.4295455" id="Fill-118" mask="url(#mask-10)"></path>
                    </g>
                    <g id="Group-167" transform="translate(287.000000, 143.000000)">
                        <path d="M14.8035557,198.24243 L13.6178856,201.838512 L17.4759577,205.73243 L30.2391227,208.727327 L39.4409062,207.828306 L38.8447928,204.519028 C38.485267,203.076182 37.356968,201.956543 35.9215969,201.617894 C32.140566,200.718322 24.9281948,198.678152 23.4092258,195.832172 L14.8035557,198.24243 Z" id="Fill-121" fill="#DB8B8B"></path>
                        <path d="M14.8035557,198.24243 L13.6178856,201.838512 L17.4759577,205.73243 L30.2391227,208.727327 L39.4409062,207.828306 L38.8447928,204.519028 C38.485267,203.076182 37.356968,201.956543 35.9215969,201.617894 C32.140566,200.718322 24.9281948,198.678152 23.4092258,195.832172 L14.8035557,198.24243 Z" id="Fill-123" fill="#000000"></path>
                        <path d="M36.4735072,206.934691 L34.6922701,204.535464 L36.4735072,201.777732 C36.4735072,201.777732 41.8172186,203.95634 44.1885588,203.65299 C46.559899,203.349639 47.7515794,207.546907 43.2979402,208.749278 C38.8448474,209.951649 13.6124763,208.749278 13.6124763,208.749278 C13.6124763,208.749278 9.15938351,206.653402 13.6124763,200.961443 L17.4700021,203.95634 C17.4700021,203.95634 24.0267031,207.552423 27.2668062,206.951237 L36.4735072,206.934691 Z" id="Fill-125" fill="#000000"></path>
                        <path d="M44.4730103,212.02574 L35.2712268,212.92476 L22.5184433,209.90725 L18.6614639,206.046425 L18.9783711,205.092802 L19.4204021,203.758059 L19.8520515,202.450894 L28.4577216,200.051668 C28.8942887,200.769229 29.4914948,201.374276 30.2012577,201.816064 C32.9987835,203.746477 38.0195773,205.125343 40.9651753,205.836838 C41.0892062,205.86607 41.2110515,205.903023 41.3312577,205.947147 C42.5988866,206.376802 43.5627216,207.428601 43.8883711,208.738523 L44.4730103,212.02574 Z" id="Fill-127" fill="#DB8B8B"></path>
                        <path d="M44.4730103,212.02574 L35.2712268,212.92476 L22.5184433,209.90725 L18.6614639,206.046425 L18.9783711,205.092802 L22.5244536,207.850534 C22.5244536,207.850534 29.0811546,211.446064 32.3212577,210.844879 L41.5224948,210.844879 L39.7412577,208.446204 L41.3421856,205.952662 C42.6098144,206.382869 43.5736495,207.434668 43.8987526,208.744039 L44.4730103,212.02574 Z" id="Fill-129" fill="#000000"></path>
                        <path d="M41.5169763,211.126223 L39.7357392,208.726996 L41.5169763,205.969264 C41.5169763,205.969264 46.8606876,208.148424 49.2320278,207.845073 C51.603368,207.541171 52.7945021,211.738439 48.3414093,212.94081 C43.8883165,214.143733 18.6559454,212.94081 18.6559454,212.94081 C18.6559454,212.94081 14.2028526,210.844934 18.6559454,205.153527 L22.5134711,208.148424 C22.5134711,208.148424 29.0701722,211.743955 32.3097289,211.142769 L41.5169763,211.126223 Z" id="Fill-131" fill="#000000"></path>
                        <path d="M34.091567,37.3395804 C34.091567,37.3395804 19.8416701,38.8403381 21.9228763,32.8450289 C22.5031443,31.146266 22.6528557,29.3278175 22.3599897,27.5551474 C21.9906289,25.3566835 21.1289691,23.2723897 19.8416701,21.4605598 L33.2004021,23.5564361 C32.4010309,24.9077247 31.7923505,26.3654619 31.3923918,27.8860753 C29.8018454,34.2459567 34.091567,37.3395804 34.091567,37.3395804" id="Fill-133" fill="#DB8B8B"></path>
                        <path d="M9.75527835,105.665092 C9.75527835,105.665092 10.0503299,118.549216 13.0336289,124.842912 L13.6291959,143.120608 C13.6291959,143.120608 12.7385773,159.898649 10.9567938,163.197448 C9.1755567,166.495144 14.814866,194.359819 14.814866,194.359819 L14.814866,199.152206 C14.814866,199.152206 24.3002268,202.737257 26.9884742,198.545505 L24.3160722,162.88803 L25.5017423,113.447412 L9.75527835,105.665092 Z" id="Fill-135" fill="#1B1A23"></path>
                        <path d="M3.8213,64.2991129 L2.04006289,69.092051 L0.55387732,79.2791129 C0.147361856,82.1581851 1.14288763,85.0587675 3.22573299,87.0669479 C6.78820722,90.663582 11.5363515,98.1530304 11.5363515,98.1530304 L17.1751144,81.0550923 C17.1751144,81.0550923 11.5363515,80.1560716 12.4269701,76.2621541 C13.3175887,72.3682366 13.0225371,65.1760716 13.0225371,65.1760716 L3.8213,64.2991129 Z" id="Fill-137" fill="#CBCDDA"></path>
                        <path d="M3.8213,63.7475665 L2.04006289,68.5405046 L0.55387732,78.7275665 C0.147361856,81.6066387 1.14288763,84.5072211 3.22573299,86.5154015 C6.78820722,90.1120356 11.5363515,97.601484 11.5363515,97.601484 L17.1751144,80.5035459 C17.1751144,80.5035459 11.5363515,79.6045253 12.4269701,75.7106077 C13.3175887,71.8166902 13.0225371,64.6245253 13.0225371,64.6245253 L3.8213,63.7475665 Z" id="Fill-139" fill="#000000"></path>
                        <path d="M30.2012031,201.80542 C26.3764608,207.87243 20.4694196,204.425265 19.4154299,203.741347 L19.8470794,202.434182 L28.4527495,200.034956 C28.8898629,200.755275 29.4887082,201.361425 30.2012031,201.80542" id="Fill-141" fill="#000000"></path>
                        <path d="M42.112434,117.341274 C41.8173825,121.538542 36.7687227,136.816929 36.7687227,136.816929 L33.2117124,149.391635 C30.6600629,158.283666 29.3438052,167.491181 29.2995474,176.748336 C29.2995474,179.815486 29.0208876,182.981362 28.1630526,185.357975 C25.7862485,191.976532 30.5398567,200.939161 30.5398567,200.939161 C26.3818155,208.429161 19.2623309,203.338388 19.2623309,203.338388 L19.2623309,198.545449 C19.2623309,198.545449 13.6230216,172.479919 15.1042897,167.383078 C16.5850113,162.28679 17.1805784,148.503645 17.1805784,148.503645 L17.1805784,123.634419 C12.4247845,118.851408 9.53327938,112.500352 9.03387732,105.742805 C8.96284639,104.760501 8.90766082,103.729109 8.86995979,102.659661 C8.62954742,95.8971505 13.2083103,87.9714289 14.9950113,85.1480629 C15.4266608,84.4641454 15.6943928,84.0830268 15.6943928,84.0830268 L41.9211969,94.5624082 L41.9813,94.5624082 L41.9813,95.5888361 L41.9813,97.8551402 L42.112434,117.341274 Z" id="Fill-143" fill="#000000"></path>
                        <path d="M33.2063577,23.5562706 C32.4064402,24.9075593 31.7977598,26.3652964 31.3972546,27.8864613 C28.4658629,29.0110644 25.2088216,28.8919304 22.3659454,27.554982 C21.9960381,25.3570696 21.1343784,23.2722242 19.8470794,21.4603943 L33.2063577,23.5562706 Z" id="Fill-145" fill="#000000"></path>
                        <path d="M27.2670247,4.6771134 C33.6614474,4.6771134 38.8445196,9.90963402 38.8445196,16.3643814 C38.8445196,22.8191289 33.6614474,28.0516495 27.2670247,28.0516495 C20.8726021,28.0516495 15.6889835,22.8191289 15.6889835,16.3643814 C15.6889835,9.90963402 20.8726021,4.6771134 27.2670247,4.6771134" id="Fill-147" fill="#DB8B8B"></path>
                        <path d="M42.112434,97.8663918 L41.9867639,97.8663918 C29.5399598,100.447629 13.9131557,87.3539175 13.9131557,87.3539175 C14.3344237,86.6490412 14.6999598,85.9110722 15.0059392,85.147732 C15.4375887,84.4638144 15.7053206,84.0832474 15.7053206,84.0832474 L41.9321247,94.5626289 L41.9976918,95.610567 L42.112434,97.8663918 Z" id="Fill-149" fill="#000000"></path>
                        <path d="M38.8447928,37.0363402 C38.8447928,37.0363402 22.2235557,26.8492784 16.8803907,31.0410309 L9.46039072,40.6269072 C9.46039072,40.6269072 4.7117,42.1271134 5.60231856,51.7129897 L2.04039072,69.0922165 L12.727267,71.7892784 C12.727267,71.7892784 18.9615969,77.7845876 13.9129371,86.4714433 C13.9129371,86.4714433 29.6435557,99.6534021 42.1122155,96.9508247 L41.1948237,82.8808763 C41.1948237,82.8808763 38.5224216,75.0930412 43.2711124,67.9008763 C48.0187103,60.7087113 43.5661639,53.8198969 39.1125247,51.1228351 C39.1458546,51.1228351 37.0635557,39.7334021 38.8447928,37.0363402" id="Fill-151" fill="#CBCDDA"></path>
                        <path d="M39.7358485,98.1642268 C39.7358485,98.1642268 45.969632,99.3610825 48.9370856,104.159536 C49.7938278,105.599624 50.8396216,106.917268 52.0455082,108.075515 C53.0066113,108.960196 53.0754567,110.463711 52.1990443,111.433881 C52.0471474,111.601552 51.8723021,111.746608 51.6794258,111.864639 C49.3250237,113.293144 45.4838897,114.175619 40.6319309,110.148778 C32.3158485,103.260515 39.7358485,98.1642268 39.7358485,98.1642268" id="Fill-153" fill="#DB8B8B"></path>
                        <path d="M30.5341742,42.7338144 C30.5341742,42.7338144 24.5948959,42.1326289 23.1141742,57.7138144 C21.6334526,73.295 19.2566485,76.8910825 19.2566485,76.8910825 C19.2566485,76.8910825 17.7710093,84.982268 21.3329371,89.7752062 C24.8959577,94.5675928 31.7143804,104.755206 31.7143804,104.755206 C31.7143804,104.755206 39.1343804,106.851082 40.620566,99.3610825 L31.4193289,81.9818557 C31.4193289,81.9818557 29.9331433,75.9865464 33.4956175,71.7942423 C37.0580918,67.6030412 39.7359577,39.7334021 30.5341742,42.7338144" id="Fill-155" fill="#000000"></path>
                        <path d="M31.1301784,41.8349041 C31.1301784,41.8349041 25.1909,41.2337186 23.7101784,56.8149041 C22.2294567,72.3960897 19.8521062,75.9921722 19.8521062,75.9921722 C19.8521062,75.9921722 18.366467,84.0833577 21.9283948,88.8762959 C25.4914155,93.6686825 32.3098381,103.856296 32.3098381,103.856296 C32.3098381,103.856296 39.7298381,105.952172 41.2165701,98.4621722 L32.0147866,81.0829454 C32.0147866,81.0829454 30.5340649,75.0931515 34.0916216,70.9173938 C37.648632,66.7427392 40.3314155,38.8344918 31.1301784,41.8349041" id="Fill-157" fill="#CBCDDA"></path>
                        <path d="M36.0258485,53.0699593 C36.0258485,53.0699593 36.6214155,62.3580005 33.9490134,67.4542892 C31.2777041,72.5500263 31.2777041,79.1415572 33.9490134,82.7376397" id="Fill-159" fill="#000000"></path>
                        <path d="M37.5118701,41.6857108 C37.5118701,41.6857108 35.1345196,39.286484 28.310633,38.988649 C21.4862,38.6908139 18.5132825,36.5899737 18.5132825,36.5899737" id="Fill-161" fill="#000000"></path>
                        <path d="M20.9781649,1.26309639 C19.1745258,1.48923041 17.1151753,2.11247784 16.4644227,3.82227165 C16.2917629,4.4719933 16.1551649,5.13164278 16.0546289,5.79680773 C15.3831134,8.41665309 12.4653814,9.65763247 10.6617423,11.6321686 C9.07228866,13.397117 8.37290722,15.7853129 7.85328866,18.1183541 C6.37529897,24.7964778 6.02287629,31.6792253 6.80968041,38.4759314 C7.38940206,43.439849 8.57507216,48.3375809 8.90236082,53.3290758 C9.23074227,58.3205706 8.62916495,63.5712923 5.92452577,67.7630448 C4.76071134,69.5666015 3.23136082,71.1489881 2.40630928,73.1351067 C4.11105155,74.5305191 6.45507216,74.7290758 8.65102062,74.7897459 C11.2010309,74.8779933 13.7510412,74.8779933 16.3005052,74.7897459 C17.6397113,74.7456222 19.0324639,74.6573747 20.1962784,73.9734572 C21.0513814,73.4235655 21.7540412,72.6651892 22.2403299,71.7672716 C23.6986495,69.263251 24.0701959,66.2518077 24.0051753,63.3561892 C23.9396082,60.4605706 23.4861031,57.5704675 23.4587835,54.663818 C23.4309175,53.0808799 23.5516701,51.4041789 24.4526701,50.1080448 C25.1034227,49.170416 26.0918454,48.5416531 26.9387526,47.7860345 C30.1187526,44.9455706 31.2066186,40.384282 31.3098866,36.0987665 C31.4142474,31.813251 30.7143196,27.5222201 31.0749381,23.253251 C31.217,21.5986119 31.8344227,19.5744366 33.4632165,19.2490242 C33.9850206,19.2275139 34.5040928,19.1613284 35.0144227,19.0504675 C36.3208454,18.5430448 36.1951753,16.683782 36.5661753,15.3220139 C36.9874433,13.7942304 38.2763814,12.6139211 38.6430103,11.0695912 C39.4953814,7.44593144 34.927,3.11629227 31.9333196,1.85325103 C28.857134,0.55711701 24.2128041,0.871498454 20.9781649,1.26309639" id="Fill-163" fill="#000000"></path>
                        <path d="M20.7049691,0.661745361 C18.9013299,0.887879381 16.8419794,1.5111268 16.1912268,3.22092062 C16.018567,3.87119381 15.8819691,4.53029175 15.781433,5.1954567 C15.1099175,7.81530206 12.1921856,9.05628144 10.3885464,11.0308175 C8.79909278,12.795766 8.09971134,15.1839619 7.58009278,17.5175546 C6.10210309,24.1956784 5.74968041,31.0773227 6.53648454,37.875132 C7.11620619,42.8390495 8.30187629,47.7367814 8.62916495,52.7277247 C8.95754639,57.7192196 8.35596907,62.9704928 5.6513299,67.1616938 C4.48751546,68.9652505 2.95816495,70.5481887 2.1331134,72.5343072 C3.83785567,73.929168 6.18187629,74.1277247 8.37782474,74.1889464 C10.9278351,74.2771938 13.4778454,74.2771938 16.0273093,74.1889464 C17.3665155,74.1442711 18.759268,74.0560237 19.9230825,73.3721062 C20.7781856,72.8222144 21.4808454,72.0632866 21.967134,71.1659206 C23.4254536,68.6619 23.797,65.6504567 23.7319794,62.7548381 C23.6664124,59.8592196 23.2129072,56.9691165 23.1855876,54.062467 C23.1577216,52.4795289 23.2784742,50.8028278 24.1794742,49.5072454 C24.8302268,48.5690649 25.8186495,47.9403021 26.6655567,47.1852351 C29.8455567,44.3442196 30.9334227,39.7829309 31.0366907,35.4974155 C31.1410515,31.2124515 30.4411237,26.9208691 30.8017423,22.6519 C30.9438041,20.9972608 31.5612268,18.9730856 33.1900206,18.6476732 C33.7118247,18.6261629 34.2308969,18.5599773 34.7412268,18.4491165 C36.0476495,17.9416938 35.9219794,16.0829825 36.2929794,14.7206629 C36.7142474,13.1928794 38.0031856,12.0125701 38.3698144,10.4682402 C39.2221856,6.84458041 34.6538041,2.51494124 31.6601237,1.2519 C28.5620825,-0.0442340206 23.9177526,0.264631959 20.7049691,0.661745361" id="Fill-165" fill="#472727"></path>
                    </g>
                </g>
            </g>
        </g>
    </g>
</svg>