<?xml version="1.0" encoding="UTF-8"?>
<svg width="141px" height="87px" viewBox="0 0 141 87" version="1.1" xmlns="http://www.w3.org/2000/svg" xmlns:xlink="http://www.w3.org/1999/xlink">
    <!-- Generator: Sketch 51 (57462) - http://www.bohemiancoding.com/sketch -->
    <title>sun &amp; cloud</title>
    <desc>Created with Sketch.</desc>
    <defs></defs>
    <g id="Page-1" stroke="none" stroke-width="1" fill="none" fill-rule="evenodd">
        <g id="Desktop-home" transform="translate(-720.000000, -115.000000)">
            <g id="slider" transform="translate(0.000000, 111.000000)">
                <g id="sun-&amp;-cloud" transform="translate(720.000000, 0.000000)">
                    <path d="M20.9419489,62.5523889 L112.713676,62.5523889 C115.503751,62.5523889 117.76533,64.8066611 117.76533,67.5877222 L117.76533,68.4825556 C117.76533,71.2636167 115.503751,73.5178889 112.713676,73.5178889 L20.9419489,73.5178889 C18.1523806,73.5178889 15.8902942,71.2636167 15.8902942,68.4825556 L15.8902942,67.5877222 C15.8902942,64.8066611 18.1523806,62.5523889 20.9419489,62.5523889" id="Fill-1" fill="#F2F2F2"></path>
                    <path d="M43.7656899,71.8950556 L135.537417,71.8950556 C138.327492,71.8950556 140.589071,74.1493278 140.589071,76.9303889 L140.589071,77.8252222 C140.589071,80.6062833 138.327492,82.8605556 135.537417,82.8605556 L43.7656899,82.8605556 C40.9761216,82.8605556 38.7140353,80.6062833 38.7140353,77.8252222 L38.7140353,76.9303889 C38.7140353,74.1493278 40.9761216,71.8950556 43.7656899,71.8950556" id="Fill-3" fill="#F2F2F2"></path>
                    <path d="M5.05175612,80.0192322 L96.8234827,80.0192322 C99.6130511,80.0192322 101.875137,82.2735044 101.875137,85.0545656 L101.875137,85.9493989 C101.875137,88.73046 99.6130511,90.9847322 96.8234827,90.9847322 L5.05175612,90.9847322 C2.26168058,90.9847322 0.000101438849,88.73046 0.000101438849,85.9493989 L0.000101438849,85.0545656 C0.000101438849,82.2735044 2.26168058,80.0192322 5.05175612,80.0192322" id="Fill-5" fill="#F2F2F2"></path>
                    <path d="M70.5,0 C93.2314317,0 111.658813,18.3678444 111.658813,41.0258333 C111.658813,63.6838222 93.2314317,82.0516667 70.5,82.0516667 C47.7685683,82.0516667 29.3411871,63.6838222 29.3411871,41.0258333 C29.3411871,18.3678444 47.7685683,0 70.5,0" id="Fill-7"></path>
                    <path d="M70.4998986,4.46901 C90.7552079,4.46901 107.175114,20.8363711 107.175114,41.0257322 C107.175114,61.2155989 90.7552079,77.5824544 70.4998986,77.5824544 C50.2445892,77.5824544 33.8246827,61.2155989 33.8246827,41.0257322 C33.8246827,20.8363711 50.2445892,4.46901 70.4998986,4.46901" id="Fill-9" fill="#FCCC63"></path>
                </g>
            </g>
        </g>
    </g>
</svg>