<?xml version="1.0" encoding="UTF-8"?>
<svg width="187px" height="187px" viewBox="0 0 187 187" version="1.1" xmlns="http://www.w3.org/2000/svg" xmlns:xlink="http://www.w3.org/1999/xlink">
    <!-- Generator: Sketch 51 (57462) - http://www.bohemiancoding.com/sketch -->
    <title>target-setting</title>
    <desc>Created with Sketch.</desc>
    <defs>
        <polygon id="path-1" points="0 0 107 0 107 107 0 107"></polygon>
    </defs>
    <g id="Page-1" stroke="none" stroke-width="1" fill="none" fill-rule="evenodd">
        <g id="Individual-pack-page" transform="translate(-1056.000000, -1119.000000)">
            <g id="row2" transform="translate(-1.000000, 916.000000)">
                <g id="target-setting" transform="translate(1057.000000, 203.000000)">
                    <circle id="Oval" stroke-opacity="0" stroke="#979797" fill="#343436" cx="93.5" cy="93.5" r="93.5"></circle>
                    <g id="target-setting-icon" transform="translate(47.000000, 35.000000)">
                        <mask id="mask-2" fill="white">
                            <use xlink:href="#path-1"></use>
                        </mask>
                        <g id="Clip-2"></g>
                        <path d="M85.9249262,36.9644435 L76.1771404,35.1594034 L88.813159,22.5241226 L98.5609447,24.3291627 L85.9249262,36.9644435 Z M70.0396457,21.0800905 L83.0366934,8.0838017 L84.8418389,18.1920263 L72.2058203,30.8273072 L70.0396457,21.0800905 Z M106.864614,21.4410986 C106.503585,20.3580745 105.781527,19.6360584 104.698439,19.6360584 L89.8962463,17.1090023 L87.3690426,2.30767333 C87.3690426,1.22464927 86.6469844,0.50263322 85.5638971,0.141625197 C84.4808098,-0.219382826 83.3977225,0.141625197 82.6756643,0.863641243 L64.9852383,18.5530344 C64.2631801,19.2750504 63.902151,19.9970665 64.2631801,21.0800905 L67.1514129,36.2424275 L44.4065795,58.989543 L44.0455504,58.989543 C41.8793758,58.989543 40.0742303,60.7945831 40.0742303,62.9570212 C40.0742303,65.1230693 41.8793758,66.9281094 44.0455504,66.9281094 C46.211725,66.9281094 48.0168705,65.1230693 48.0168705,62.9570212 L71.122733,39.8525077 L85.9249262,42.7405719 L86.2859553,42.7405719 C87.0080135,42.7405719 87.7300717,42.3795639 88.0911008,42.0185559 L105.781527,24.3291627 C106.864614,23.6071467 107.225643,22.5241226 106.864614,21.4410986 Z M57.7646563,39.4914997 C58.4867145,38.0474676 57.7646563,36.6034355 56.3205399,35.8814195 C52.7102488,34.0763794 48.3778996,33.3543633 44.4065795,33.3543633 C28.1602699,33.3543633 14.8021932,46.3506521 14.8021932,62.5996233 C14.8021932,78.8449843 28.1602699,92.1986711 44.4065795,92.1986711 C60.6528891,92.1986711 74.0109658,78.8449843 74.0109658,62.5996233 C74.0109658,58.2639169 73.2889076,54.2928286 71.4837621,50.6827484 C70.7617039,49.2387163 69.3175875,48.5167003 67.8734711,49.2387163 C66.4293547,49.9607324 66.0683256,51.4047645 66.4293547,52.8487966 C67.8734711,56.0978688 68.5955293,59.346941 68.5955293,62.5996233 C68.5955293,75.95331 57.7646563,86.7835507 44.4065795,86.7835507 C31.0485027,86.7835507 20.2176297,75.95331 20.2176297,62.5996233 C20.2176297,49.2387163 31.0485027,38.4084756 44.4065795,38.4084756 C48.0168705,38.4084756 51.2661324,39.1304917 54.1543652,40.5745238 C55.5984817,41.2965398 57.0425981,40.5745238 57.7646563,39.4914997 Z M44.4065795,53.5708126 C45.8506959,53.5708126 47.2948123,52.4877885 47.2948123,50.6827484 C47.2948123,48.8777083 46.211725,47.7946842 44.4065795,47.7946842 C36.4639393,47.7946842 29.9654154,54.2928286 29.9654154,62.2350051 C29.9654154,70.1771817 36.4639393,76.6753261 44.4065795,76.6753261 C52.3492197,76.6753261 58.8477436,70.1771817 58.8477436,62.2350051 C58.8477436,60.7945831 57.7646563,59.346941 55.9595108,59.346941 C54.1543652,59.346941 53.432307,61.1519811 53.432307,62.5996233 C53.432307,67.6501255 49.4609869,71.6248238 44.4065795,71.6248238 C39.3521721,71.6248238 35.380852,67.6501255 35.380852,62.5996233 C35.380852,57.5419009 39.3521721,53.5708126 44.4065795,53.5708126 Z M82.3146352,45.2676281 C80.8705188,45.6286361 80.1484606,47.4336762 80.8705188,48.8777083 C82.6756643,53.2098046 83.3977225,57.9029089 83.3977225,62.5996233 C83.3977225,84.2601046 65.7072965,101.58488 44.4065795,101.58488 C23.1058625,101.58488 5.41543652,84.2601046 5.41543652,62.5996233 C5.41543652,40.9355318 22.7448334,23.6071467 44.4065795,23.6071467 C48.3778996,23.6071467 52.7102488,24.3291627 56.681569,25.4121868 C58.1256854,25.7731948 59.5698018,25.0511788 59.9308309,23.6071467 C60.29186,22.1631146 59.5698018,20.7190825 58.1256854,20.3580745 C53.7933361,18.9140424 49.0999578,18.1920263 44.4065795,18.1920263 C19.8566006,18.1920263 0,38.0474676 0,62.5996233 C0,87.1445587 19.8566006,107 44.4065795,107 C68.9565584,107 88.813159,87.1445587 88.813159,62.5996233 C88.813159,57.1808928 87.7300717,51.7657725 85.9249262,46.7116602 C85.5638971,45.6286361 83.7587516,44.90662 82.3146352,45.2676281 Z" id="Fill-1" fill="#FFFFFF" mask="url(#mask-2)"></path>
                    </g>
                </g>
            </g>
        </g>
    </g>
</svg>