<?xml version="1.0" encoding="UTF-8"?>
<svg width="51px" height="51px" viewBox="0 0 51 51" version="1.1" xmlns="http://www.w3.org/2000/svg" xmlns:xlink="http://www.w3.org/1999/xlink">
    <!-- Generator: Sketch 51 (57462) - http://www.bohemiancoding.com/sketch -->
    <title>instagram</title>
    <desc>Created with Sketch.</desc>
    <defs></defs>
    <g id="Page-1" stroke="none" stroke-width="1" fill="none" fill-rule="evenodd">
        <g id="Desktop-home" transform="translate(-766.000000, -4259.000000)">
            <g id="social-media-icons" transform="translate(552.000000, 4259.000000)">
                <g id="instagram" transform="translate(214.000000, 0.000000)">
                    <path d="M51,25.5 C51,39.5834375 39.5834375,51 25.5,51 C11.4165625,51 0,39.5834375 0,25.5 C0,11.4165625 11.4165625,0 25.5,0 C39.5834375,0 51,11.4165625 51,25.5" id="Fill-1" fill="#1DBE71"></path>
                    <path d="M25.5,13.8125 C22.3257812,13.8125 21.927875,13.8260469 20.6812969,13.8828906 C19.4371094,13.9397344 18.5876406,14.1370937 17.8441562,14.4260937 C17.0757031,14.7249219 16.4238594,15.1244219 15.7741406,15.7741406 C15.1244219,16.4238594 14.7249219,17.0757031 14.4260937,17.8441562 C14.1370938,18.5876406 13.9397344,19.4371094 13.8828906,20.6812969 C13.8260469,21.927875 13.8125,22.3257812 13.8125,25.5 C13.8125,28.6739531 13.8260469,29.072125 13.8828906,30.3189688 C13.9397344,31.562625 14.1370938,32.4120938 14.4260937,33.1555781 C14.7249219,33.9242969 15.1244219,34.5761406 15.7741406,35.2258594 C16.4238594,35.8758438 17.0757031,36.2750781 17.8441562,36.5739063 C18.5876406,36.8626406 19.4371094,37.0602656 20.6812969,37.1171094 C21.927875,37.1739531 22.3257812,37.1875 25.5,37.1875 C28.6739531,37.1875 29.072125,37.1739531 30.3189687,37.1171094 C31.562625,37.0602656 32.4120937,36.8626406 33.1555781,36.5739063 C33.9242969,36.2750781 34.5761406,35.8758438 35.2258594,35.2258594 C35.8758438,34.5761406 36.2750781,33.9242969 36.5739063,33.1555781 C36.8626406,32.4120938 37.0602656,31.562625 37.1171094,30.3189688 C37.1739531,29.072125 37.1875,28.6739531 37.1875,25.5 C37.1875,22.3257812 37.1739531,21.927875 37.1171094,20.6812969 C37.0602656,19.4371094 36.8626406,18.5876406 36.5739063,17.8441562 C36.2750781,17.0757031 35.8758438,16.4238594 35.2258594,15.7741406 C34.5761406,15.1244219 33.9242969,14.7249219 33.1555781,14.4260937 C32.4120937,14.1370937 31.562625,13.9397344 30.3189687,13.8828906 C29.072125,13.8260469 28.6739531,13.8125 25.5,13.8125 M25.5,15.918375 C28.6205625,15.918375 28.9903125,15.9303281 30.2225469,15.9866406 C31.3620781,16.0384375 31.9809844,16.2288906 32.3929688,16.3890625 C32.9385625,16.6010313 33.3279688,16.8541719 33.7367656,17.2632344 C34.1458281,17.6722969 34.3989688,18.0614375 34.6112031,18.6070313 C34.7711094,19.0190156 34.9615625,19.6376563 35.0133594,20.7771875 C35.0696719,22.0096875 35.081625,22.3791719 35.081625,25.5 C35.081625,28.6205625 35.0696719,28.9903125 35.0133594,30.2225469 C34.9615625,31.3620781 34.7711094,31.9809844 34.6112031,32.3929688 C34.3989688,32.9385625 34.1458281,33.3279688 33.7367656,33.7367656 C33.3279688,34.1458281 32.9385625,34.3989688 32.3929688,34.6112031 C31.9809844,34.7711094 31.3620781,34.9615625 30.2225469,35.0133594 C28.9905781,35.0696719 28.6208281,35.081625 25.5,35.081625 C22.3789063,35.081625 22.0094219,35.0696719 20.7771875,35.0133594 C19.6376563,34.9615625 19.0190156,34.7711094 18.6070313,34.6112031 C18.0614375,34.3989688 17.6722969,34.1458281 17.2632344,33.7367656 C16.8541719,33.3279688 16.6010313,32.9385625 16.3890625,32.3929688 C16.2288906,31.9809844 16.0384375,31.3620781 15.9866406,30.2228125 C15.9303281,28.9903125 15.918375,28.6205625 15.918375,25.5 C15.918375,22.3791719 15.9303281,22.0096875 15.9866406,20.7771875 C16.0384375,19.6376563 16.2288906,19.0190156 16.3890625,18.6070313 C16.6010313,18.0614375 16.8541719,17.6722969 17.2632344,17.2632344 C17.6722969,16.8541719 18.0614375,16.6010313 18.6070313,16.3890625 C19.0190156,16.2288906 19.6376563,16.0384375 20.7771875,15.9866406 C22.0096875,15.9303281 22.3791719,15.918375 25.5,15.918375" id="Fill-3" fill="#FFFFFF"></path>
                    <path d="M25.5,29.3959219 C23.3484375,29.3959219 21.6040781,27.6518281 21.6040781,25.5 C21.6040781,23.3484375 23.3484375,21.6043438 25.5,21.6043438 C27.6518281,21.6043438 29.3959219,23.3484375 29.3959219,25.5 C29.3959219,27.6518281 27.6518281,29.3959219 25.5,29.3959219 M25.5,19.4982031 C22.1852656,19.4982031 19.4982031,22.1852656 19.4982031,25.5 C19.4982031,28.8147344 22.1852656,31.5017969 25.5,31.5017969 C28.8147344,31.5017969 31.5017969,28.8147344 31.5017969,25.5 C31.5017969,22.1852656 28.8147344,19.4982031 25.5,19.4982031" id="Fill-5" fill="#FFFFFF"></path>
                    <path d="M33.1413937,19.2611859 C33.1413937,20.0357484 32.5134562,20.6636859 31.7388937,20.6636859 C30.9643312,20.6636859 30.3361281,20.0357484 30.3361281,19.2611859 C30.3361281,18.4866234 30.9643312,17.8586859 31.7388937,17.8586859 C32.5134562,17.8586859 33.1413937,18.4866234 33.1413937,19.2611859" id="Fill-7" fill="#FFFFFF"></path>
                </g>
            </g>
        </g>
    </g>
</svg>