<?xml version="1.0" encoding="UTF-8"?>
<svg width="51px" height="51px" viewBox="0 0 51 51" version="1.1" xmlns="http://www.w3.org/2000/svg" xmlns:xlink="http://www.w3.org/1999/xlink">
    <!-- Generator: Sketch 51 (57462) - http://www.bohemiancoding.com/sketch -->
    <title>twitter</title>
    <desc>Created with Sketch.</desc>
    <defs></defs>
    <g id="Page-1" stroke="none" stroke-width="1" fill="none" fill-rule="evenodd">
        <g id="Desktop-home" transform="translate(-623.000000, -4259.000000)">
            <g id="social-media-icons" transform="translate(552.000000, 4259.000000)">
                <g id="twitter" transform="translate(71.000000, 0.000000)">
                    <path d="M51,25.5 C51,39.5834375 39.5834375,51 25.5,51 C11.4165625,51 0,39.5834375 0,25.5 C0,11.4165625 11.4165625,0 25.5,0 C39.5834375,0 51,11.4165625 51,25.5" id="Fill-1" fill="#1DBE71"></path>
                    <path d="M33.3162281,21.4918781 C33.3241969,21.6648 33.3279156,21.8385188 33.3279156,22.0133 C33.3279156,27.3420031 29.2712906,33.4875031 21.8537125,33.4875031 C19.5757125,33.4875031 17.4565562,32.8197219 15.6718219,31.6759406 C15.98765,31.7131281 16.308525,31.7317219 16.6339156,31.7317219 C18.5233062,31.7317219 20.2620875,31.0873156 21.6425406,30.005425 C19.8771969,29.9727531 18.3886344,28.806925 17.8751812,27.2044094 C18.1208844,27.2516906 18.3734937,27.2774563 18.633275,27.2774563 C19.0011656,27.2774563 19.3576344,27.2275188 19.6965719,27.1356125 C17.851275,26.7655969 16.4609937,25.1351906 16.4609937,23.1817844 C16.4609937,23.1639875 16.4609937,23.1472531 16.4617906,23.1302531 C17.005525,23.4328 17.6270875,23.6144875 18.2884937,23.6349406 C17.2058062,22.9124406 16.4936656,21.6772844 16.4936656,20.2779719 C16.4936656,19.5395344 16.69315,18.84705 17.0400562,18.2512531 C19.0287906,20.6912844 22.0008687,22.2961906 25.352525,22.4645969 C25.2831969,22.1692219 25.2478687,21.8616281 25.2478687,21.5450031 C25.2478687,19.3185344 27.0538531,17.51255 29.2813844,17.51255 C30.4408375,17.51255 31.4889937,18.0028938 32.2250406,18.7867531 C33.1435719,18.6058625 34.0063219,18.2698469 34.7854,17.807925 C34.4839156,18.7495656 33.8445562,19.5395344 33.0120875,20.0386438 C33.8280875,19.9411594 34.6055719,19.724675 35.3280719,19.4038 C34.7880562,20.2123625 34.1038062,20.9226438 33.3162281,21.4918781" id="Fill-3" fill="#FFFFFF"></path>
                </g>
            </g>
        </g>
    </g>
</svg>